{"glyphs":{"0":{"ha":1321,"x_min":87,"x_max":1234,"o":"m 1104 534 q 1096 731 1104 654 q 1066 853 1088 808 q 1002 919 1044 898 q 894 945 960 939 q 730 951 827 951 l 591 951 q 427 945 494 951 q 319 919 361 939 q 255 853 277 898 q 225 731 233 808 q 217 534 217 654 l 217 507 q 225 316 217 392 q 255 195 233 240 q 319 127 277 149 q 427 98 361 104 q 591 91 494 91 l 730 91 q 894 98 827 91 q 1002 127 960 104 q 1066 195 1044 149 q 1096 316 1088 240 q 1104 507 1104 392 l 1104 534 m 87 507 l 87 534 q 100 767 87 673 q 147 920 114 861 q 238 1010 180 979 q 382 1052 295 1041 q 591 1063 469 1063 l 730 1063 q 939 1052 852 1063 q 1083 1010 1026 1041 q 1174 920 1141 979 q 1221 767 1207 861 q 1234 534 1234 673 l 1234 507 q 1212 235 1234 340 q 1135 75 1190 131 q 981 -1 1080 20 q 730 -22 883 -22 l 591 -22 q 340 -1 438 -22 q 186 75 241 20 q 109 235 131 131 q 87 507 87 340 z "},"1":{"ha":1321,"x_min":250,"x_max":1173,"o":"m 263 0 l 263 109 l 680 109 l 680 932 l 291 802 l 250 903 l 670 1042 l 810 1042 l 810 109 l 1173 109 l 1173 0 l 263 0 z "},"2":{"ha":1321,"x_min":113,"x_max":1240,"o":"m 113 252 q 130 404 113 342 q 195 503 146 466 q 335 557 243 541 q 576 574 427 574 l 819 574 q 984 582 924 574 q 1070 609 1043 589 q 1104 667 1097 629 q 1110 768 1110 705 q 1098 870 1110 833 q 1050 924 1086 907 q 944 946 1014 941 q 758 951 873 951 l 610 951 q 415 946 488 951 q 305 924 342 941 q 255 870 268 907 q 243 768 243 833 l 113 768 q 133 914 113 857 q 205 1004 153 972 q 354 1050 258 1037 q 603 1063 450 1063 l 764 1063 q 1005 1050 911 1063 q 1150 1004 1099 1037 q 1221 914 1201 972 q 1240 768 1240 857 q 1210 588 1240 654 q 1104 493 1180 522 q 891 465 1029 465 l 593 465 q 401 457 471 465 q 296 426 330 449 q 253 361 262 404 q 243 252 243 319 l 243 109 l 1199 109 l 1199 0 l 113 0 l 113 252 z "},"3":{"ha":1321,"x_min":90,"x_max":1232,"o":"m 563 -22 q 317 -5 410 -22 q 174 48 223 11 q 107 148 124 85 q 90 301 90 210 l 220 301 q 230 192 220 233 q 273 129 239 151 q 378 99 307 106 q 570 91 448 91 l 751 91 q 943 99 873 91 q 1048 129 1014 106 q 1092 192 1082 151 q 1101 301 1101 233 q 1092 398 1101 361 q 1049 454 1082 435 q 946 479 1016 473 q 755 486 876 486 l 553 486 l 553 595 l 782 595 q 958 602 893 595 q 1053 626 1022 608 q 1093 679 1084 644 q 1101 768 1101 713 q 1089 870 1101 833 q 1039 924 1076 907 q 929 946 1002 941 q 734 951 856 951 l 587 951 q 392 946 465 951 q 282 924 319 941 q 232 870 245 907 q 220 768 220 833 l 90 768 q 110 914 90 857 q 182 1004 130 972 q 331 1050 235 1037 q 580 1063 427 1063 l 741 1063 q 990 1050 894 1063 q 1139 1004 1086 1037 q 1212 914 1192 972 q 1232 768 1232 857 q 1192 607 1232 663 q 1090 540 1152 551 q 1192 469 1153 527 q 1232 301 1232 410 q 1214 148 1232 210 q 1147 48 1197 85 q 1004 -5 1098 11 q 758 -22 911 -22 l 563 -22 z "},"4":{"ha":1389,"x_min":87,"x_max":1302,"o":"m 998 0 l 998 217 l 87 217 l 87 347 l 955 1042 l 1128 1042 l 1128 326 l 1302 326 l 1302 217 l 1128 217 l 1128 0 l 998 0 m 217 326 l 998 326 l 998 955 l 217 326 z "},"5":{"ha":1321,"x_min":120,"x_max":1234,"o":"m 138 498 l 138 1042 l 1188 1042 l 1188 933 l 268 933 l 268 592 q 492 663 329 663 l 805 663 q 1032 647 947 663 q 1161 596 1118 631 q 1220 505 1205 561 q 1234 369 1234 449 l 1234 301 q 1217 147 1234 210 q 1150 48 1200 85 q 1007 -5 1101 11 q 761 -22 913 -22 l 593 -22 q 347 -5 441 -22 q 204 48 254 11 q 137 148 155 85 q 120 301 120 210 l 250 301 q 260 192 250 233 q 304 129 270 151 q 408 99 338 106 q 600 91 479 91 l 754 91 q 946 98 876 91 q 1050 128 1017 106 q 1094 192 1084 150 q 1104 301 1104 233 l 1104 369 q 1095 466 1104 429 q 1052 522 1085 503 q 949 547 1019 541 q 758 553 879 553 l 614 553 q 391 543 463 553 q 292 498 319 532 l 138 498 z "},"6":{"ha":1321,"x_min":105,"x_max":1247,"o":"m 578 -22 q 332 -5 426 -22 q 189 48 239 11 q 122 148 140 85 q 105 301 105 210 l 105 761 q 125 908 105 850 q 198 1001 145 967 q 347 1049 250 1035 q 595 1063 443 1063 l 757 1063 q 999 1050 907 1063 q 1141 1004 1092 1037 q 1207 914 1190 972 q 1224 768 1224 857 l 1094 768 q 1084 870 1094 833 q 1041 924 1074 907 q 938 946 1007 941 q 750 951 869 951 l 602 951 q 408 945 481 951 q 298 921 335 939 q 248 864 260 903 q 235 761 235 826 l 235 524 q 460 595 297 595 l 818 595 q 1045 579 960 595 q 1174 528 1131 563 q 1233 437 1218 493 q 1247 301 1247 381 q 1230 148 1247 210 q 1163 48 1213 85 q 1020 -5 1114 11 q 774 -22 926 -22 l 578 -22 m 1117 301 q 1107 398 1117 361 q 1065 454 1098 435 q 962 479 1031 473 q 770 486 892 486 l 582 486 q 391 479 460 486 q 288 454 321 473 q 245 398 254 435 q 235 301 235 361 q 245 192 235 233 q 289 129 255 151 q 393 99 323 106 q 585 91 464 91 l 767 91 q 959 99 888 91 q 1063 129 1029 106 q 1107 192 1097 151 q 1117 301 1117 233 z "},"7":{"ha":1345,"x_min":87,"x_max":1259,"o":"m 304 0 l 1107 933 l 87 933 l 87 1042 l 1259 1042 l 1259 911 l 477 0 l 304 0 z "},"8":{"ha":1321,"x_min":90,"x_max":1232,"o":"m 1101 768 q 1089 870 1101 833 q 1039 924 1076 907 q 929 946 1002 941 q 734 951 856 951 l 587 951 q 392 946 465 951 q 282 924 319 941 q 232 870 245 907 q 220 768 220 833 q 229 679 220 713 q 268 626 237 644 q 363 602 299 608 q 539 595 428 595 l 782 595 q 958 602 893 595 q 1053 626 1022 608 q 1093 679 1084 644 q 1101 768 1101 713 m 90 301 q 129 469 90 410 q 231 540 168 527 q 129 607 169 551 q 90 768 90 663 q 110 914 90 857 q 182 1004 130 972 q 331 1050 235 1037 q 580 1063 427 1063 l 741 1063 q 990 1050 894 1063 q 1139 1004 1086 1037 q 1212 914 1192 972 q 1232 768 1232 857 q 1192 607 1232 663 q 1090 540 1152 551 q 1192 469 1153 527 q 1232 301 1232 410 q 1214 148 1232 210 q 1147 48 1197 85 q 1004 -5 1098 11 q 758 -22 911 -22 l 563 -22 q 317 -5 410 -22 q 174 48 223 11 q 107 148 124 85 q 90 301 90 210 m 1101 301 q 1092 398 1101 361 q 1049 454 1082 435 q 946 479 1016 473 q 755 486 876 486 l 566 486 q 375 479 445 486 q 272 454 305 473 q 229 398 239 435 q 220 301 220 361 q 230 192 220 233 q 273 129 239 151 q 378 99 307 106 q 570 91 448 91 l 751 91 q 943 99 873 91 q 1048 129 1014 106 q 1092 192 1082 151 q 1101 301 1101 233 z "},"9":{"ha":1345,"x_min":90,"x_max":1232,"o":"m 580 -22 q 334 -8 427 -22 q 191 37 240 5 q 124 127 142 70 q 106 274 106 185 l 237 274 q 247 172 237 209 q 291 117 256 134 q 395 96 325 100 q 587 91 466 91 l 734 91 q 929 98 856 91 q 1039 124 1002 104 q 1089 183 1076 144 q 1101 288 1101 222 l 1101 518 q 877 447 1040 447 l 519 447 q 292 463 377 447 q 162 514 206 479 q 104 605 119 549 q 90 741 90 661 q 107 894 90 832 q 174 994 124 956 q 317 1047 223 1031 q 563 1063 410 1063 l 758 1063 q 1004 1047 911 1063 q 1147 994 1098 1031 q 1214 894 1197 956 q 1232 741 1232 832 l 1232 288 q 1212 139 1232 199 q 1139 44 1192 79 q 990 -6 1086 9 q 741 -22 894 -22 l 580 -22 m 1101 741 q 1092 850 1101 808 q 1048 913 1082 891 q 943 943 1014 935 q 751 951 873 951 l 570 951 q 378 943 448 951 q 273 913 307 935 q 230 850 239 891 q 220 741 220 808 q 229 644 220 680 q 272 588 239 607 q 375 563 305 569 q 566 556 445 556 l 755 556 q 946 563 876 556 q 1049 588 1016 569 q 1092 644 1082 607 q 1101 741 1101 680 z "},"A":{"ha":1476,"x_min":43,"x_max":1432,"o":"m 43 0 l 651 1042 l 825 1042 l 1432 0 l 1280 0 l 1150 239 l 326 239 l 195 0 l 43 0 m 391 347 l 1085 347 l 738 955 l 391 347 z "},"Á":{"ha":1476,"x_min":43,"x_max":1432,"o":"m 43 0 l 651 1042 l 825 1042 l 1432 0 l 1280 0 l 1150 239 l 326 239 l 195 0 l 43 0 m 391 347 l 1085 347 l 738 955 l 391 347 m 586 1171 l 543 1236 l 933 1561 l 1013 1444 l 586 1171 z "},"Ă":{"ha":1476,"x_min":43,"x_max":1432,"o":"m 43 0 l 651 1042 l 825 1042 l 1432 0 l 1280 0 l 1150 239 l 326 239 l 195 0 l 43 0 m 391 347 l 1085 347 l 738 955 l 391 347 m 738 1147 q 597 1170 656 1147 q 508 1250 539 1193 q 477 1411 477 1308 l 586 1411 q 633 1255 586 1283 q 738 1240 656 1240 q 846 1257 819 1240 q 890 1411 890 1283 l 998 1411 q 967 1250 998 1308 q 879 1170 937 1193 q 738 1147 821 1147 z "},"Ǎ":{"ha":1476,"x_min":43,"x_max":1432,"o":"m 43 0 l 651 1042 l 825 1042 l 1432 0 l 1280 0 l 1150 239 l 326 239 l 195 0 l 43 0 m 391 347 l 1085 347 l 738 955 l 391 347 m 673 1153 l 456 1478 l 543 1544 l 738 1240 l 933 1544 l 1020 1478 l 803 1153 l 673 1153 z "},"Â":{"ha":1476,"x_min":43,"x_max":1432,"o":"m 43 0 l 651 1042 l 825 1042 l 1432 0 l 1280 0 l 1150 239 l 326 239 l 195 0 l 43 0 m 391 347 l 1085 347 l 738 955 l 391 347 m 543 1149 l 456 1214 l 673 1539 l 803 1539 l 1020 1214 l 933 1149 l 738 1453 l 543 1149 z "},"Ȁ":{"ha":1476,"x_min":43,"x_max":1432,"o":"m 43 0 l 651 1042 l 825 1042 l 1432 0 l 1280 0 l 1150 239 l 326 239 l 195 0 l 43 0 m 391 347 l 1085 347 l 738 955 l 391 347 z "},"Ä":{"ha":1476,"x_min":43,"x_max":1432,"o":"m 43 0 l 651 1042 l 825 1042 l 1432 0 l 1280 0 l 1150 239 l 326 239 l 195 0 l 43 0 m 391 347 l 1085 347 l 738 955 l 391 347 m 913 1172 l 913 1302 l 1043 1302 l 1043 1172 l 913 1172 m 433 1172 l 433 1302 l 563 1302 l 563 1172 l 433 1172 z "},"Ȧ":{"ha":1476,"x_min":43,"x_max":1432,"o":"m 43 0 l 651 1042 l 825 1042 l 1432 0 l 1280 0 l 1150 239 l 326 239 l 195 0 l 43 0 m 391 347 l 1085 347 l 738 955 l 391 347 m 673 1172 l 673 1302 l 803 1302 l 803 1172 l 673 1172 z "},"À":{"ha":1476,"x_min":43,"x_max":1432,"o":"m 43 0 l 651 1042 l 825 1042 l 1432 0 l 1280 0 l 1150 239 l 326 239 l 195 0 l 43 0 m 391 347 l 1085 347 l 738 955 l 391 347 m 975 1169 l 548 1443 l 628 1560 l 1019 1234 l 975 1169 z "},"Ȃ":{"ha":1476,"x_min":43,"x_max":1432,"o":"m 43 0 l 651 1042 l 825 1042 l 1432 0 l 1280 0 l 1150 239 l 326 239 l 195 0 l 43 0 m 391 347 l 1085 347 l 738 955 l 391 347 m 738 1411 q 879 1389 821 1411 q 967 1308 937 1366 q 998 1147 998 1251 l 890 1147 q 846 1301 890 1275 q 738 1318 819 1318 q 633 1303 656 1318 q 586 1147 586 1275 l 477 1147 q 508 1308 477 1251 q 597 1389 539 1366 q 738 1411 656 1411 z "},"Ā":{"ha":1476,"x_min":43,"x_max":1432,"o":"m 43 0 l 651 1042 l 825 1042 l 1432 0 l 1280 0 l 1150 239 l 326 239 l 195 0 l 43 0 m 391 347 l 1085 347 l 738 955 l 391 347 m 477 1145 l 477 1254 l 998 1254 l 998 1145 l 477 1145 z "},"Ą":{"ha":1476,"x_min":43,"x_max":1432,"o":"m 43 0 l 651 1042 l 825 1042 l 1432 0 l 1280 0 l 1150 239 l 326 239 l 195 0 l 43 0 m 391 347 l 1085 347 l 738 955 l 391 347 m 1412 -376 q 1174 -285 1236 -376 q 1152 -215 1152 -251 q 1159 -157 1152 -179 q 1179 -114 1166 -135 q 1325 14 1225 -41 l 1412 14 q 1282 -181 1282 -72 q 1318 -251 1282 -235 q 1412 -268 1354 -268 l 1412 -376 z "},"Å":{"ha":1476,"x_min":43,"x_max":1432,"o":"m 43 0 l 651 1042 l 825 1042 l 1432 0 l 1280 0 l 1150 239 l 326 239 l 195 0 l 43 0 m 391 347 l 1085 347 l 738 955 l 391 347 m 738 1169 q 562 1227 625 1169 q 499 1386 499 1286 q 565 1547 499 1491 q 738 1603 631 1603 q 913 1545 850 1603 q 977 1386 977 1487 q 910 1225 977 1282 q 738 1169 844 1169 m 738 1256 q 849 1303 812 1256 q 868 1386 868 1327 q 837 1484 868 1451 q 738 1516 806 1516 q 627 1469 664 1516 q 608 1386 608 1445 q 639 1289 608 1321 q 738 1256 670 1256 z "},"Ǻ":{"ha":1476,"x_min":43,"x_max":1432,"o":"m 43 0 l 651 1042 l 825 1042 l 1432 0 l 1280 0 l 1150 239 l 326 239 l 195 0 l 43 0 m 391 347 l 1085 347 l 738 955 l 391 347 m 738 1169 q 562 1227 625 1169 q 499 1386 499 1286 q 565 1547 499 1491 q 738 1603 631 1603 q 913 1545 850 1603 q 977 1386 977 1487 q 910 1225 977 1282 q 738 1169 844 1169 m 738 1256 q 849 1303 812 1256 q 868 1386 868 1327 q 837 1484 868 1451 q 738 1516 806 1516 q 627 1469 664 1516 q 608 1386 608 1445 q 639 1289 608 1321 q 738 1256 670 1256 m 586 1671 l 543 1736 l 933 2062 l 1013 1945 l 586 1671 z "},"Ã":{"ha":1476,"x_min":43,"x_max":1432,"o":"m 43 0 l 651 1042 l 825 1042 l 1432 0 l 1280 0 l 1150 239 l 326 239 l 195 0 l 43 0 m 391 347 l 1085 347 l 738 955 l 391 347 m 434 1171 q 484 1300 434 1255 q 608 1345 534 1345 q 756 1312 678 1345 q 805 1291 779 1302 q 859 1279 831 1279 q 901 1292 891 1279 q 911 1344 911 1304 l 1042 1344 q 979 1207 1042 1254 q 868 1171 930 1171 q 720 1203 797 1171 q 671 1224 697 1213 q 617 1236 644 1236 q 573 1223 583 1236 q 564 1171 564 1211 l 434 1171 z "},"Æ":{"ha":2083,"x_min":0,"x_max":1997,"o":"m 0 0 l 955 1042 l 1997 1042 l 1997 933 l 1128 933 l 1128 586 l 1953 586 l 1953 477 l 1128 477 l 1128 109 l 1997 109 l 1997 0 l 998 0 l 998 239 l 395 239 l 174 0 l 0 0 m 477 347 l 998 347 l 998 933 l 477 347 z "},"Ǽ":{"ha":2083,"x_min":0,"x_max":1997,"o":"m 0 0 l 955 1042 l 1997 1042 l 1997 933 l 1128 933 l 1128 586 l 1953 586 l 1953 477 l 1128 477 l 1128 109 l 1997 109 l 1997 0 l 998 0 l 998 239 l 395 239 l 174 0 l 0 0 m 477 347 l 998 347 l 998 933 l 477 347 m 1371 1171 l 1328 1236 l 1718 1561 l 1799 1444 l 1371 1171 z "},"Ǣ":{"ha":2083,"x_min":0,"x_max":1997,"o":"m 0 0 l 955 1042 l 1997 1042 l 1997 933 l 1128 933 l 1128 586 l 1953 586 l 1953 477 l 1128 477 l 1128 109 l 1997 109 l 1997 0 l 998 0 l 998 239 l 395 239 l 174 0 l 0 0 m 477 347 l 998 347 l 998 933 l 477 347 m 1263 1145 l 1263 1254 l 1784 1254 l 1784 1145 l 1263 1145 z "},"B":{"ha":1432,"x_min":130,"x_max":1345,"o":"m 130 0 l 130 1042 l 960 1042 q 1154 1020 1078 1042 q 1266 942 1230 998 q 1302 783 1302 886 q 1259 631 1302 691 q 1128 564 1217 570 q 1295 482 1244 553 q 1345 304 1345 411 q 1324 151 1345 211 q 1253 59 1303 92 q 1117 13 1202 26 q 903 0 1031 0 l 130 0 m 260 608 l 867 608 q 1040 615 972 608 q 1139 659 1107 623 q 1172 783 1172 696 q 1153 884 1172 852 q 1087 924 1133 916 q 960 933 1041 933 l 260 933 l 260 608 m 260 109 l 903 109 q 1056 113 996 109 q 1152 136 1117 118 q 1201 194 1187 155 q 1215 304 1215 234 q 1188 416 1215 376 q 1114 473 1162 456 q 1003 495 1066 491 q 867 499 940 499 l 260 499 l 260 109 z "},"Ḃ":{"ha":1432,"x_min":130,"x_max":1345,"o":"m 130 0 l 130 1042 l 960 1042 q 1154 1020 1078 1042 q 1266 942 1230 998 q 1302 783 1302 886 q 1259 631 1302 691 q 1128 564 1217 570 q 1295 482 1244 553 q 1345 304 1345 411 q 1324 151 1345 211 q 1253 59 1303 92 q 1117 13 1202 26 q 903 0 1031 0 l 130 0 m 260 608 l 867 608 q 1040 615 972 608 q 1139 659 1107 623 q 1172 783 1172 696 q 1153 884 1172 852 q 1087 924 1133 916 q 960 933 1041 933 l 260 933 l 260 608 m 260 109 l 903 109 q 1056 113 996 109 q 1152 136 1117 118 q 1201 194 1187 155 q 1215 304 1215 234 q 1188 416 1215 376 q 1114 473 1162 456 q 1003 495 1066 491 q 867 499 940 499 l 260 499 l 260 109 m 671 1172 l 671 1302 l 802 1302 l 802 1172 l 671 1172 z "},"C":{"ha":1455,"x_min":87,"x_max":1366,"o":"m 87 507 l 87 534 q 100 767 87 673 q 147 920 114 861 q 238 1010 180 979 q 382 1052 295 1041 q 591 1063 469 1063 l 864 1063 q 1100 1050 1004 1063 q 1254 998 1196 1037 q 1339 883 1313 959 q 1366 683 1366 808 l 1236 683 q 1218 836 1236 781 q 1159 915 1200 890 q 1045 945 1117 939 q 864 951 973 951 l 591 951 q 427 945 494 951 q 319 919 361 939 q 255 853 277 898 q 225 731 233 808 q 217 534 217 654 l 217 507 q 225 316 217 392 q 255 195 233 240 q 319 127 277 149 q 427 98 361 104 q 591 91 494 91 l 864 91 q 1045 96 973 91 q 1159 123 1117 100 q 1218 200 1200 146 q 1236 352 1236 254 l 1366 352 q 1339 153 1366 227 q 1254 40 1313 78 q 1100 -9 1196 3 q 864 -22 1004 -22 l 591 -22 q 340 -1 438 -22 q 186 75 241 20 q 109 235 131 131 q 87 507 87 340 z "},"Ć":{"ha":1455,"x_min":87,"x_max":1366,"o":"m 87 507 l 87 534 q 100 767 87 673 q 147 920 114 861 q 238 1010 180 979 q 382 1052 295 1041 q 591 1063 469 1063 l 864 1063 q 1100 1050 1004 1063 q 1254 998 1196 1037 q 1339 883 1313 959 q 1366 683 1366 808 l 1236 683 q 1218 836 1236 781 q 1159 915 1200 890 q 1045 945 1117 939 q 864 951 973 951 l 591 951 q 427 945 494 951 q 319 919 361 939 q 255 853 277 898 q 225 731 233 808 q 217 534 217 654 l 217 507 q 225 316 217 392 q 255 195 233 240 q 319 127 277 149 q 427 98 361 104 q 591 91 494 91 l 864 91 q 1045 96 973 91 q 1159 123 1117 100 q 1218 200 1200 146 q 1236 352 1236 254 l 1366 352 q 1339 153 1366 227 q 1254 40 1313 78 q 1100 -9 1196 3 q 864 -22 1004 -22 l 591 -22 q 340 -1 438 -22 q 186 75 241 20 q 109 235 131 131 q 87 507 87 340 m 569 1171 l 526 1236 l 916 1561 l 996 1444 l 569 1171 z "},"Č":{"ha":1455,"x_min":87,"x_max":1366,"o":"m 87 507 l 87 534 q 100 767 87 673 q 147 920 114 861 q 238 1010 180 979 q 382 1052 295 1041 q 591 1063 469 1063 l 864 1063 q 1100 1050 1004 1063 q 1254 998 1196 1037 q 1339 883 1313 959 q 1366 683 1366 808 l 1236 683 q 1218 836 1236 781 q 1159 915 1200 890 q 1045 945 1117 939 q 864 951 973 951 l 591 951 q 427 945 494 951 q 319 919 361 939 q 255 853 277 898 q 225 731 233 808 q 217 534 217 654 l 217 507 q 225 316 217 392 q 255 195 233 240 q 319 127 277 149 q 427 98 361 104 q 591 91 494 91 l 864 91 q 1045 96 973 91 q 1159 123 1117 100 q 1218 200 1200 146 q 1236 352 1236 254 l 1366 352 q 1339 153 1366 227 q 1254 40 1313 78 q 1100 -9 1196 3 q 864 -22 1004 -22 l 591 -22 q 340 -1 438 -22 q 186 75 241 20 q 109 235 131 131 q 87 507 87 340 m 656 1153 l 439 1478 l 526 1544 l 721 1240 l 916 1544 l 1003 1478 l 786 1153 l 656 1153 z "},"Ç":{"ha":1455,"x_min":87,"x_max":1366,"o":"m 87 507 l 87 534 q 100 767 87 673 q 147 920 114 861 q 238 1010 180 979 q 382 1052 295 1041 q 591 1063 469 1063 l 864 1063 q 1100 1050 1004 1063 q 1254 998 1196 1037 q 1339 883 1313 959 q 1366 683 1366 808 l 1236 683 q 1218 836 1236 781 q 1159 915 1200 890 q 1045 945 1117 939 q 864 951 973 951 l 591 951 q 427 945 494 951 q 319 919 361 939 q 255 853 277 898 q 225 731 233 808 q 217 534 217 654 l 217 507 q 225 316 217 392 q 255 195 233 240 q 319 127 277 149 q 427 98 361 104 q 591 91 494 91 l 864 91 q 1045 96 973 91 q 1159 123 1117 100 q 1218 200 1200 146 q 1236 352 1236 254 l 1366 352 q 1339 153 1366 227 q 1254 40 1313 78 q 1100 -9 1196 3 q 864 -22 1004 -22 l 591 -22 q 340 -1 438 -22 q 186 75 241 20 q 109 235 131 131 q 87 507 87 340 m 653 -369 l 653 -260 q 714 -257 684 -260 q 764 -241 744 -254 q 783 -203 783 -229 q 747 -162 783 -172 q 653 -152 711 -152 l 653 43 l 740 43 l 740 -87 q 870 -116 827 -87 q 913 -216 913 -146 q 881 -308 913 -275 q 789 -355 848 -342 q 653 -369 730 -369 z "},"Ĉ":{"ha":1455,"x_min":87,"x_max":1366,"o":"m 87 507 l 87 534 q 100 767 87 673 q 147 920 114 861 q 238 1010 180 979 q 382 1052 295 1041 q 591 1063 469 1063 l 864 1063 q 1100 1050 1004 1063 q 1254 998 1196 1037 q 1339 883 1313 959 q 1366 683 1366 808 l 1236 683 q 1218 836 1236 781 q 1159 915 1200 890 q 1045 945 1117 939 q 864 951 973 951 l 591 951 q 427 945 494 951 q 319 919 361 939 q 255 853 277 898 q 225 731 233 808 q 217 534 217 654 l 217 507 q 225 316 217 392 q 255 195 233 240 q 319 127 277 149 q 427 98 361 104 q 591 91 494 91 l 864 91 q 1045 96 973 91 q 1159 123 1117 100 q 1218 200 1200 146 q 1236 352 1236 254 l 1366 352 q 1339 153 1366 227 q 1254 40 1313 78 q 1100 -9 1196 3 q 864 -22 1004 -22 l 591 -22 q 340 -1 438 -22 q 186 75 241 20 q 109 235 131 131 q 87 507 87 340 m 526 1149 l 439 1214 l 656 1539 l 786 1539 l 1003 1214 l 916 1149 l 721 1453 l 526 1149 z "},"Ċ":{"ha":1455,"x_min":87,"x_max":1366,"o":"m 87 507 l 87 534 q 100 767 87 673 q 147 920 114 861 q 238 1010 180 979 q 382 1052 295 1041 q 591 1063 469 1063 l 864 1063 q 1100 1050 1004 1063 q 1254 998 1196 1037 q 1339 883 1313 959 q 1366 683 1366 808 l 1236 683 q 1218 836 1236 781 q 1159 915 1200 890 q 1045 945 1117 939 q 864 951 973 951 l 591 951 q 427 945 494 951 q 319 919 361 939 q 255 853 277 898 q 225 731 233 808 q 217 534 217 654 l 217 507 q 225 316 217 392 q 255 195 233 240 q 319 127 277 149 q 427 98 361 104 q 591 91 494 91 l 864 91 q 1045 96 973 91 q 1159 123 1117 100 q 1218 200 1200 146 q 1236 352 1236 254 l 1366 352 q 1339 153 1366 227 q 1254 40 1313 78 q 1100 -9 1196 3 q 864 -22 1004 -22 l 591 -22 q 340 -1 438 -22 q 186 75 241 20 q 109 235 131 131 q 87 507 87 340 m 656 1172 l 656 1302 l 786 1302 l 786 1172 l 656 1172 z "},"D":{"ha":1497,"x_min":133,"x_max":1410,"o":"m 133 0 l 133 1042 l 906 1042 q 1157 1023 1059 1042 q 1311 952 1255 1005 q 1388 800 1366 900 q 1410 534 1410 699 l 1410 507 q 1388 248 1410 348 q 1311 94 1366 148 q 1157 20 1255 40 q 906 0 1059 0 l 133 0 m 263 113 l 906 113 q 1101 124 1027 113 q 1214 174 1175 136 q 1266 292 1253 213 q 1280 507 1280 372 l 1280 534 q 1272 720 1280 647 q 1241 836 1263 793 q 1178 898 1219 878 q 1069 924 1136 918 q 906 929 1003 929 l 263 929 l 263 113 z "},"Ǳ":{"ha":2884,"x_min":133,"x_max":2799,"o":"m 133 0 l 133 1042 l 906 1042 q 1157 1023 1059 1042 q 1311 952 1255 1005 q 1388 800 1366 900 q 1410 534 1410 699 l 1410 507 q 1388 248 1410 348 q 1311 94 1366 148 q 1157 20 1255 40 q 906 0 1059 0 l 133 0 m 263 113 l 906 113 q 1101 124 1027 113 q 1214 174 1175 136 q 1266 292 1253 213 q 1280 507 1280 372 l 1280 534 q 1272 720 1280 647 q 1241 836 1263 793 q 1178 898 1219 878 q 1069 924 1136 918 q 906 929 1003 929 l 263 929 l 263 113 m 1584 0 l 1584 109 l 2591 933 l 1627 933 l 1627 1042 l 2777 1042 l 2777 933 l 1764 109 l 2799 109 l 2799 0 l 1584 0 z "},"Ǆ":{"ha":2884,"x_min":133,"x_max":2799,"o":"m 133 0 l 133 1042 l 906 1042 q 1157 1023 1059 1042 q 1311 952 1255 1005 q 1388 800 1366 900 q 1410 534 1410 699 l 1410 507 q 1388 248 1410 348 q 1311 94 1366 148 q 1157 20 1255 40 q 906 0 1059 0 l 133 0 m 263 113 l 906 113 q 1101 124 1027 113 q 1214 174 1175 136 q 1266 292 1253 213 q 1280 507 1280 372 l 1280 534 q 1272 720 1280 647 q 1241 836 1263 793 q 1178 898 1219 878 q 1069 924 1136 918 q 906 929 1003 929 l 263 929 l 263 113 m 1584 0 l 1584 109 l 2591 933 l 1627 933 l 1627 1042 l 2777 1042 l 2777 933 l 1764 109 l 2799 109 l 2799 0 l 1584 0 m 2125 1153 l 1908 1478 l 1995 1544 l 2190 1240 l 2386 1544 l 2473 1478 l 2256 1153 l 2125 1153 z "},"Ď":{"ha":1497,"x_min":133,"x_max":1410,"o":"m 133 0 l 133 1042 l 906 1042 q 1157 1023 1059 1042 q 1311 952 1255 1005 q 1388 800 1366 900 q 1410 534 1410 699 l 1410 507 q 1388 248 1410 348 q 1311 94 1366 148 q 1157 20 1255 40 q 906 0 1059 0 l 133 0 m 263 113 l 906 113 q 1101 124 1027 113 q 1214 174 1175 136 q 1266 292 1253 213 q 1280 507 1280 372 l 1280 534 q 1272 720 1280 647 q 1241 836 1263 793 q 1178 898 1219 878 q 1069 924 1136 918 q 906 929 1003 929 l 263 929 l 263 113 m 692 1153 l 475 1478 l 562 1544 l 757 1240 l 952 1544 l 1039 1478 l 822 1153 l 692 1153 z "},"Đ":{"ha":1432,"x_min":0,"x_max":1345,"o":"m 87 0 l 87 477 l 0 477 l 0 586 l 87 586 l 87 1042 l 867 1042 q 1203 985 1098 1042 q 1286 914 1258 956 q 1337 757 1329 850 q 1345 556 1345 663 l 1345 521 q 1345 436 1345 477 q 1343 359 1344 396 q 1309 173 1339 249 q 1203 56 1278 96 q 867 0 1098 0 l 87 0 m 217 109 l 867 109 q 1112 133 1048 109 q 1173 177 1154 149 q 1204 256 1193 206 q 1215 521 1215 312 q 1202 793 1215 730 q 1169 870 1191 844 q 1099 914 1147 897 q 867 933 1048 933 l 217 933 l 217 586 l 521 586 l 521 477 l 217 477 l 217 109 z "},"Ḋ":{"ha":1497,"x_min":133,"x_max":1410,"o":"m 133 0 l 133 1042 l 906 1042 q 1157 1023 1059 1042 q 1311 952 1255 1005 q 1388 800 1366 900 q 1410 534 1410 699 l 1410 507 q 1388 248 1410 348 q 1311 94 1366 148 q 1157 20 1255 40 q 906 0 1059 0 l 133 0 m 263 113 l 906 113 q 1101 124 1027 113 q 1214 174 1175 136 q 1266 292 1253 213 q 1280 507 1280 372 l 1280 534 q 1272 720 1280 647 q 1241 836 1263 793 q 1178 898 1219 878 q 1069 924 1136 918 q 906 929 1003 929 l 263 929 l 263 113 m 692 1172 l 692 1302 l 822 1302 l 822 1172 l 692 1172 z "},"Ɖ":{"ha":1432,"x_min":0,"x_max":1345,"o":"m 87 0 l 87 477 l 0 477 l 0 586 l 87 586 l 87 1042 l 867 1042 q 1203 985 1098 1042 q 1286 914 1258 956 q 1337 757 1329 850 q 1345 556 1345 663 l 1345 521 q 1345 436 1345 477 q 1343 359 1344 396 q 1309 173 1339 249 q 1203 56 1278 96 q 867 0 1098 0 l 87 0 m 217 109 l 867 109 q 1112 133 1048 109 q 1173 177 1154 149 q 1204 256 1193 206 q 1215 521 1215 312 q 1202 793 1215 730 q 1169 870 1191 844 q 1099 914 1147 897 q 867 933 1048 933 l 217 933 l 217 586 l 521 586 l 521 477 l 217 477 l 217 109 z "},"ǲ":{"ha":2495,"x_min":133,"x_max":2408,"o":"m 133 0 l 133 1042 l 906 1042 q 1157 1023 1059 1042 q 1311 952 1255 1005 q 1388 800 1366 900 q 1410 534 1410 699 l 1410 507 q 1388 248 1410 348 q 1311 94 1366 148 q 1157 20 1255 40 q 906 0 1059 0 l 133 0 m 263 113 l 906 113 q 1101 124 1027 113 q 1214 174 1175 136 q 1266 292 1253 213 q 1280 507 1280 372 l 1280 534 q 1272 720 1280 647 q 1241 836 1263 793 q 1178 898 1219 878 q 1069 924 1136 918 q 906 929 1003 929 l 263 929 l 263 113 m 1584 0 l 1584 109 l 2243 681 l 1627 681 l 1627 781 l 2408 781 l 2408 673 l 1758 102 l 2408 102 l 2408 0 l 1584 0 z "},"ǅ":{"ha":2495,"x_min":133,"x_max":2408,"o":"m 133 0 l 133 1042 l 906 1042 q 1157 1023 1059 1042 q 1311 952 1255 1005 q 1388 800 1366 900 q 1410 534 1410 699 l 1410 507 q 1388 248 1410 348 q 1311 94 1366 148 q 1157 20 1255 40 q 906 0 1059 0 l 133 0 m 263 113 l 906 113 q 1101 124 1027 113 q 1214 174 1175 136 q 1266 292 1253 213 q 1280 507 1280 372 l 1280 534 q 1272 720 1280 647 q 1241 836 1263 793 q 1178 898 1219 878 q 1069 924 1136 918 q 906 929 1003 929 l 263 929 l 263 113 m 1584 0 l 1584 109 l 2243 681 l 1627 681 l 1627 781 l 2408 781 l 2408 673 l 1758 102 l 2408 102 l 2408 0 l 1584 0 m 1931 892 l 1714 1218 l 1801 1283 l 1996 979 l 2191 1283 l 2278 1218 l 2061 892 l 1931 892 z "},"Ð":{"ha":1432,"x_min":0,"x_max":1345,"o":"m 87 0 l 87 477 l 0 477 l 0 586 l 87 586 l 87 1042 l 867 1042 q 1203 985 1098 1042 q 1286 914 1258 956 q 1337 757 1329 850 q 1345 556 1345 663 l 1345 521 q 1345 436 1345 477 q 1343 359 1344 396 q 1309 173 1339 249 q 1203 56 1278 96 q 867 0 1098 0 l 87 0 m 217 109 l 867 109 q 1112 133 1048 109 q 1173 177 1154 149 q 1204 256 1193 206 q 1215 521 1215 312 q 1202 793 1215 730 q 1169 870 1191 844 q 1099 914 1147 897 q 867 933 1048 933 l 217 933 l 217 586 l 521 586 l 521 477 l 217 477 l 217 109 z "},"E":{"ha":1215,"x_min":130,"x_max":1172,"o":"m 130 0 l 130 1042 l 1153 1042 l 1153 933 l 260 933 l 260 586 l 1116 586 l 1116 477 l 260 477 l 260 109 l 1172 109 l 1172 0 l 130 0 z "},"É":{"ha":1215,"x_min":130,"x_max":1172,"o":"m 130 0 l 130 1042 l 1153 1042 l 1153 933 l 260 933 l 260 586 l 1116 586 l 1116 477 l 260 477 l 260 109 l 1172 109 l 1172 0 l 130 0 m 496 1171 l 453 1236 l 844 1561 l 924 1444 l 496 1171 z "},"Ĕ":{"ha":1215,"x_min":130,"x_max":1172,"o":"m 130 0 l 130 1042 l 1153 1042 l 1153 933 l 260 933 l 260 586 l 1116 586 l 1116 477 l 260 477 l 260 109 l 1172 109 l 1172 0 l 130 0 m 648 1147 q 508 1170 566 1147 q 419 1250 450 1193 q 388 1411 388 1308 l 496 1411 q 543 1255 496 1283 q 648 1240 567 1240 q 757 1257 730 1240 q 800 1411 800 1283 l 909 1411 q 878 1250 909 1308 q 789 1170 847 1193 q 648 1147 731 1147 z "},"Ě":{"ha":1215,"x_min":130,"x_max":1172,"o":"m 130 0 l 130 1042 l 1153 1042 l 1153 933 l 260 933 l 260 586 l 1116 586 l 1116 477 l 260 477 l 260 109 l 1172 109 l 1172 0 l 130 0 m 583 1153 l 366 1478 l 453 1544 l 648 1240 l 844 1544 l 930 1478 l 713 1153 l 583 1153 z "},"Ȩ":{"ha":1215,"x_min":130,"x_max":1172,"o":"m 130 0 l 130 1042 l 1153 1042 l 1153 933 l 260 933 l 260 586 l 1116 586 l 1116 477 l 260 477 l 260 109 l 1172 109 l 1172 0 l 130 0 m 554 -369 l 554 -260 q 615 -257 585 -260 q 665 -241 645 -254 q 684 -203 684 -229 q 648 -162 684 -172 q 554 -152 612 -152 l 554 43 l 641 43 l 641 -87 q 771 -116 728 -87 q 814 -216 814 -146 q 782 -308 814 -275 q 690 -355 749 -342 q 554 -369 631 -369 z "},"Ê":{"ha":1215,"x_min":130,"x_max":1172,"o":"m 130 0 l 130 1042 l 1153 1042 l 1153 933 l 260 933 l 260 586 l 1116 586 l 1116 477 l 260 477 l 260 109 l 1172 109 l 1172 0 l 130 0 m 453 1149 l 366 1214 l 583 1539 l 713 1539 l 930 1214 l 844 1149 l 648 1453 l 453 1149 z "},"Ȅ":{"ha":1215,"x_min":130,"x_max":1172,"o":"m 130 0 l 130 1042 l 1153 1042 l 1153 933 l 260 933 l 260 586 l 1116 586 l 1116 477 l 260 477 l 260 109 l 1172 109 l 1172 0 l 130 0 z "},"Ë":{"ha":1215,"x_min":130,"x_max":1172,"o":"m 130 0 l 130 1042 l 1153 1042 l 1153 933 l 260 933 l 260 586 l 1116 586 l 1116 477 l 260 477 l 260 109 l 1172 109 l 1172 0 l 130 0 m 823 1172 l 823 1302 l 954 1302 l 954 1172 l 823 1172 m 343 1172 l 343 1302 l 473 1302 l 473 1172 l 343 1172 z "},"Ė":{"ha":1215,"x_min":130,"x_max":1172,"o":"m 130 0 l 130 1042 l 1153 1042 l 1153 933 l 260 933 l 260 586 l 1116 586 l 1116 477 l 260 477 l 260 109 l 1172 109 l 1172 0 l 130 0 m 583 1172 l 583 1302 l 713 1302 l 713 1172 l 583 1172 z "},"È":{"ha":1215,"x_min":130,"x_max":1172,"o":"m 130 0 l 130 1042 l 1153 1042 l 1153 933 l 260 933 l 260 586 l 1116 586 l 1116 477 l 260 477 l 260 109 l 1172 109 l 1172 0 l 130 0 m 886 1169 l 458 1443 l 538 1560 l 929 1234 l 886 1169 z "},"Ȇ":{"ha":1215,"x_min":130,"x_max":1172,"o":"m 130 0 l 130 1042 l 1153 1042 l 1153 933 l 260 933 l 260 586 l 1116 586 l 1116 477 l 260 477 l 260 109 l 1172 109 l 1172 0 l 130 0 m 648 1411 q 789 1389 731 1411 q 878 1308 847 1366 q 909 1147 909 1251 l 800 1147 q 757 1301 800 1275 q 648 1318 730 1318 q 543 1303 567 1318 q 496 1147 496 1275 l 388 1147 q 419 1308 388 1251 q 508 1389 450 1366 q 648 1411 566 1411 z "},"Ē":{"ha":1215,"x_min":130,"x_max":1172,"o":"m 130 0 l 130 1042 l 1153 1042 l 1153 933 l 260 933 l 260 586 l 1116 586 l 1116 477 l 260 477 l 260 109 l 1172 109 l 1172 0 l 130 0 m 388 1145 l 388 1254 l 909 1254 l 909 1145 l 388 1145 z "},"Ę":{"ha":1215,"x_min":130,"x_max":1172,"o":"m 130 0 l 130 1042 l 1153 1042 l 1153 933 l 260 933 l 260 586 l 1116 586 l 1116 477 l 260 477 l 260 109 l 1172 109 l 1172 0 l 130 0 m 1162 -376 q 924 -285 987 -376 q 902 -215 902 -251 q 909 -157 902 -179 q 929 -114 916 -135 q 1076 14 975 -41 l 1162 14 q 1032 -181 1032 -72 q 1068 -251 1032 -235 q 1162 -268 1105 -268 l 1162 -376 z "},"Ẽ":{"ha":1215,"x_min":130,"x_max":1172,"o":"m 130 0 l 130 1042 l 1153 1042 l 1153 933 l 260 933 l 260 586 l 1116 586 l 1116 477 l 260 477 l 260 109 l 1172 109 l 1172 0 l 130 0 m 345 1171 q 394 1300 345 1255 q 518 1345 444 1345 q 667 1312 589 1345 q 715 1291 689 1302 q 769 1279 742 1279 q 812 1292 802 1279 q 822 1344 822 1304 l 952 1344 q 890 1207 952 1254 q 779 1171 841 1171 q 630 1203 707 1171 q 581 1224 608 1213 q 528 1236 555 1236 q 484 1223 493 1236 q 475 1171 475 1211 l 345 1171 z "},"F":{"ha":1172,"x_min":130,"x_max":1112,"o":"m 130 0 l 130 1042 l 1112 1042 l 1112 933 l 260 933 l 260 586 l 1074 586 l 1074 477 l 260 477 l 260 0 l 130 0 z "},"Ḟ":{"ha":1172,"x_min":130,"x_max":1112,"o":"m 130 0 l 130 1042 l 1112 1042 l 1112 933 l 260 933 l 260 586 l 1074 586 l 1074 477 l 260 477 l 260 0 l 130 0 m 521 1172 l 521 1302 l 651 1302 l 651 1172 l 521 1172 z "},"G":{"ha":1476,"x_min":87,"x_max":1366,"o":"m 87 507 l 87 534 q 100 767 87 673 q 147 920 114 861 q 238 1010 180 979 q 382 1052 295 1041 q 591 1063 469 1063 l 846 1063 q 1106 1051 1006 1063 q 1260 1004 1206 1039 q 1334 904 1314 970 q 1354 730 1354 838 l 1224 730 q 1210 856 1224 811 q 1156 921 1196 901 q 1042 946 1117 941 q 846 951 967 951 l 591 951 q 427 945 494 951 q 319 919 361 939 q 255 853 277 898 q 225 731 233 808 q 217 534 217 654 l 217 507 q 225 316 217 392 q 255 195 233 240 q 319 127 277 149 q 427 98 361 104 q 591 91 494 91 l 891 91 q 1072 100 1003 91 q 1176 139 1140 109 q 1223 232 1211 170 q 1236 399 1236 294 l 1236 439 l 737 439 l 737 548 l 1366 548 l 1366 399 q 1343 184 1366 267 q 1268 57 1321 102 q 1123 -5 1215 12 q 891 -22 1031 -22 l 591 -22 q 340 -1 438 -22 q 186 75 241 20 q 109 235 131 131 q 87 507 87 340 z "},"Ǵ":{"ha":1476,"x_min":87,"x_max":1366,"o":"m 87 507 l 87 534 q 100 767 87 673 q 147 920 114 861 q 238 1010 180 979 q 382 1052 295 1041 q 591 1063 469 1063 l 846 1063 q 1106 1051 1006 1063 q 1260 1004 1206 1039 q 1334 904 1314 970 q 1354 730 1354 838 l 1224 730 q 1210 856 1224 811 q 1156 921 1196 901 q 1042 946 1117 941 q 846 951 967 951 l 591 951 q 427 945 494 951 q 319 919 361 939 q 255 853 277 898 q 225 731 233 808 q 217 534 217 654 l 217 507 q 225 316 217 392 q 255 195 233 240 q 319 127 277 149 q 427 98 361 104 q 591 91 494 91 l 891 91 q 1072 100 1003 91 q 1176 139 1140 109 q 1223 232 1211 170 q 1236 399 1236 294 l 1236 439 l 737 439 l 737 548 l 1366 548 l 1366 399 q 1343 184 1366 267 q 1268 57 1321 102 q 1123 -5 1215 12 q 891 -22 1031 -22 l 591 -22 q 340 -1 438 -22 q 186 75 241 20 q 109 235 131 131 q 87 507 87 340 m 587 1171 l 543 1236 l 934 1561 l 1014 1444 l 587 1171 z "},"Ğ":{"ha":1476,"x_min":87,"x_max":1366,"o":"m 87 507 l 87 534 q 100 767 87 673 q 147 920 114 861 q 238 1010 180 979 q 382 1052 295 1041 q 591 1063 469 1063 l 846 1063 q 1106 1051 1006 1063 q 1260 1004 1206 1039 q 1334 904 1314 970 q 1354 730 1354 838 l 1224 730 q 1210 856 1224 811 q 1156 921 1196 901 q 1042 946 1117 941 q 846 951 967 951 l 591 951 q 427 945 494 951 q 319 919 361 939 q 255 853 277 898 q 225 731 233 808 q 217 534 217 654 l 217 507 q 225 316 217 392 q 255 195 233 240 q 319 127 277 149 q 427 98 361 104 q 591 91 494 91 l 891 91 q 1072 100 1003 91 q 1176 139 1140 109 q 1223 232 1211 170 q 1236 399 1236 294 l 1236 439 l 737 439 l 737 548 l 1366 548 l 1366 399 q 1343 184 1366 267 q 1268 57 1321 102 q 1123 -5 1215 12 q 891 -22 1031 -22 l 591 -22 q 340 -1 438 -22 q 186 75 241 20 q 109 235 131 131 q 87 507 87 340 m 739 1147 q 598 1170 656 1147 q 509 1250 540 1193 q 478 1411 478 1308 l 587 1411 q 633 1255 587 1283 q 739 1240 657 1240 q 847 1257 820 1240 q 890 1411 890 1283 l 999 1411 q 968 1250 999 1308 q 879 1170 937 1193 q 739 1147 821 1147 z "},"Ǧ":{"ha":1476,"x_min":87,"x_max":1366,"o":"m 87 507 l 87 534 q 100 767 87 673 q 147 920 114 861 q 238 1010 180 979 q 382 1052 295 1041 q 591 1063 469 1063 l 846 1063 q 1106 1051 1006 1063 q 1260 1004 1206 1039 q 1334 904 1314 970 q 1354 730 1354 838 l 1224 730 q 1210 856 1224 811 q 1156 921 1196 901 q 1042 946 1117 941 q 846 951 967 951 l 591 951 q 427 945 494 951 q 319 919 361 939 q 255 853 277 898 q 225 731 233 808 q 217 534 217 654 l 217 507 q 225 316 217 392 q 255 195 233 240 q 319 127 277 149 q 427 98 361 104 q 591 91 494 91 l 891 91 q 1072 100 1003 91 q 1176 139 1140 109 q 1223 232 1211 170 q 1236 399 1236 294 l 1236 439 l 737 439 l 737 548 l 1366 548 l 1366 399 q 1343 184 1366 267 q 1268 57 1321 102 q 1123 -5 1215 12 q 891 -22 1031 -22 l 591 -22 q 340 -1 438 -22 q 186 75 241 20 q 109 235 131 131 q 87 507 87 340 m 673 1153 l 456 1478 l 543 1544 l 739 1240 l 934 1544 l 1021 1478 l 804 1153 l 673 1153 z "},"Ĝ":{"ha":1476,"x_min":87,"x_max":1366,"o":"m 87 507 l 87 534 q 100 767 87 673 q 147 920 114 861 q 238 1010 180 979 q 382 1052 295 1041 q 591 1063 469 1063 l 846 1063 q 1106 1051 1006 1063 q 1260 1004 1206 1039 q 1334 904 1314 970 q 1354 730 1354 838 l 1224 730 q 1210 856 1224 811 q 1156 921 1196 901 q 1042 946 1117 941 q 846 951 967 951 l 591 951 q 427 945 494 951 q 319 919 361 939 q 255 853 277 898 q 225 731 233 808 q 217 534 217 654 l 217 507 q 225 316 217 392 q 255 195 233 240 q 319 127 277 149 q 427 98 361 104 q 591 91 494 91 l 891 91 q 1072 100 1003 91 q 1176 139 1140 109 q 1223 232 1211 170 q 1236 399 1236 294 l 1236 439 l 737 439 l 737 548 l 1366 548 l 1366 399 q 1343 184 1366 267 q 1268 57 1321 102 q 1123 -5 1215 12 q 891 -22 1031 -22 l 591 -22 q 340 -1 438 -22 q 186 75 241 20 q 109 235 131 131 q 87 507 87 340 m 543 1149 l 456 1214 l 673 1539 l 804 1539 l 1021 1214 l 934 1149 l 739 1453 l 543 1149 z "},"Ģ":{"ha":1476,"x_min":87,"x_max":1366,"o":"m 87 507 l 87 534 q 100 767 87 673 q 147 920 114 861 q 238 1010 180 979 q 382 1052 295 1041 q 591 1063 469 1063 l 846 1063 q 1106 1051 1006 1063 q 1260 1004 1206 1039 q 1334 904 1314 970 q 1354 730 1354 838 l 1224 730 q 1210 856 1224 811 q 1156 921 1196 901 q 1042 946 1117 941 q 846 951 967 951 l 591 951 q 427 945 494 951 q 319 919 361 939 q 255 853 277 898 q 225 731 233 808 q 217 534 217 654 l 217 507 q 225 316 217 392 q 255 195 233 240 q 319 127 277 149 q 427 98 361 104 q 591 91 494 91 l 891 91 q 1072 100 1003 91 q 1176 139 1140 109 q 1223 232 1211 170 q 1236 399 1236 294 l 1236 439 l 737 439 l 737 548 l 1366 548 l 1366 399 q 1343 184 1366 267 q 1268 57 1321 102 q 1123 -5 1215 12 q 891 -22 1031 -22 l 591 -22 q 340 -1 438 -22 q 186 75 241 20 q 109 235 131 131 q 87 507 87 340 m 804 -103 l 717 -363 l 630 -363 l 673 -103 l 804 -103 z "},"Ġ":{"ha":1476,"x_min":87,"x_max":1366,"o":"m 87 507 l 87 534 q 100 767 87 673 q 147 920 114 861 q 238 1010 180 979 q 382 1052 295 1041 q 591 1063 469 1063 l 846 1063 q 1106 1051 1006 1063 q 1260 1004 1206 1039 q 1334 904 1314 970 q 1354 730 1354 838 l 1224 730 q 1210 856 1224 811 q 1156 921 1196 901 q 1042 946 1117 941 q 846 951 967 951 l 591 951 q 427 945 494 951 q 319 919 361 939 q 255 853 277 898 q 225 731 233 808 q 217 534 217 654 l 217 507 q 225 316 217 392 q 255 195 233 240 q 319 127 277 149 q 427 98 361 104 q 591 91 494 91 l 891 91 q 1072 100 1003 91 q 1176 139 1140 109 q 1223 232 1211 170 q 1236 399 1236 294 l 1236 439 l 737 439 l 737 548 l 1366 548 l 1366 399 q 1343 184 1366 267 q 1268 57 1321 102 q 1123 -5 1215 12 q 891 -22 1031 -22 l 591 -22 q 340 -1 438 -22 q 186 75 241 20 q 109 235 131 131 q 87 507 87 340 m 673 1172 l 673 1302 l 804 1302 l 804 1172 l 673 1172 z "},"H":{"ha":1481,"x_min":133,"x_max":1348,"o":"m 133 0 l 133 1042 l 263 1042 l 263 586 l 1218 586 l 1218 1042 l 1348 1042 l 1348 0 l 1218 0 l 1218 477 l 263 477 l 263 0 l 133 0 z "},"Ħ":{"ha":1476,"x_min":130,"x_max":1345,"o":"m 130 0 l 130 1042 l 260 1042 l 260 586 l 1215 586 l 1215 1042 l 1345 1042 l 1345 0 l 1215 0 l 1215 477 l 260 477 l 260 0 l 130 0 z "},"Ȟ":{"ha":1481,"x_min":133,"x_max":1348,"o":"m 133 0 l 133 1042 l 263 1042 l 263 586 l 1218 586 l 1218 1042 l 1348 1042 l 1348 0 l 1218 0 l 1218 477 l 263 477 l 263 0 l 133 0 m 675 1153 l 458 1478 l 545 1544 l 741 1240 l 936 1544 l 1023 1478 l 806 1153 l 675 1153 z "},"Ĥ":{"ha":1481,"x_min":133,"x_max":1348,"o":"m 133 0 l 133 1042 l 263 1042 l 263 586 l 1218 586 l 1218 1042 l 1348 1042 l 1348 0 l 1218 0 l 1218 477 l 263 477 l 263 0 l 133 0 m 545 1149 l 458 1214 l 675 1539 l 806 1539 l 1023 1214 l 936 1149 l 741 1453 l 545 1149 z "},"I":{"ha":391,"x_min":130,"x_max":260,"o":"m 130 0 l 130 1042 l 260 1042 l 260 0 l 130 0 z "},"Ĳ":{"ha":1554,"x_min":130,"x_max":1432,"o":"m 130 0 l 130 1042 l 260 1042 l 260 0 l 130 0 m 781 0 q 579 37 652 0 q 488 183 506 75 q 477 347 477 248 l 477 391 l 608 391 l 608 347 q 646 145 608 193 q 700 113 667 119 q 781 106 734 106 l 1085 106 q 1252 148 1202 106 q 1302 304 1302 189 l 1302 1042 l 1432 1042 l 1432 304 q 1356 71 1432 138 q 1085 0 1278 0 l 781 0 z "},"Í":{"ha":391,"x_min":0,"x_max":471,"o":"m 130 0 l 130 1042 l 260 1042 l 260 0 l 130 0 m 43 1171 l 0 1236 l 391 1561 l 471 1444 l 43 1171 z "},"Ĭ":{"ha":391,"x_min":-65,"x_max":456,"o":"m 130 0 l 130 1042 l 260 1042 l 260 0 l 130 0 m 195 1147 q 55 1170 113 1147 q -34 1250 -3 1193 q -65 1411 -65 1308 l 43 1411 q 90 1255 43 1283 q 195 1240 114 1240 q 304 1257 277 1240 q 347 1411 347 1283 l 456 1411 q 425 1250 456 1308 q 336 1170 394 1193 q 195 1147 278 1147 z "},"Ǐ":{"ha":391,"x_min":-87,"x_max":477,"o":"m 130 0 l 130 1042 l 260 1042 l 260 0 l 130 0 m 130 1153 l -87 1478 l 0 1544 l 195 1240 l 391 1544 l 477 1478 l 260 1153 l 130 1153 z "},"Î":{"ha":391,"x_min":-87,"x_max":477,"o":"m 130 0 l 130 1042 l 260 1042 l 260 0 l 130 0 m 0 1149 l -87 1214 l 130 1539 l 260 1539 l 477 1214 l 391 1149 l 195 1453 l 0 1149 z "},"Ȉ":{"ha":391,"x_min":130,"x_max":260,"o":"m 130 0 l 130 1042 l 260 1042 l 260 0 l 130 0 z "},"Ï":{"ha":391,"x_min":-110,"x_max":500,"o":"m 130 0 l 130 1042 l 260 1042 l 260 0 l 130 0 m 370 1172 l 370 1302 l 500 1302 l 500 1172 l 370 1172 m -110 1172 l -110 1302 l 20 1302 l 20 1172 l -110 1172 z "},"İ":{"ha":391,"x_min":130,"x_max":260,"o":"m 130 0 l 130 1042 l 260 1042 l 260 0 l 130 0 m 130 1172 l 130 1302 l 260 1302 l 260 1172 l 130 1172 z "},"Ì":{"ha":391,"x_min":5,"x_max":476,"o":"m 130 0 l 130 1042 l 260 1042 l 260 0 l 130 0 m 433 1169 l 5 1443 l 85 1560 l 476 1234 l 433 1169 z "},"Ȋ":{"ha":391,"x_min":-65,"x_max":456,"o":"m 130 0 l 130 1042 l 260 1042 l 260 0 l 130 0 m 195 1411 q 336 1389 278 1411 q 425 1308 394 1366 q 456 1147 456 1251 l 347 1147 q 304 1301 347 1275 q 195 1318 277 1318 q 90 1303 114 1318 q 43 1147 43 1275 l -65 1147 q -34 1308 -65 1251 q 55 1389 -3 1366 q 195 1411 113 1411 z "},"Ī":{"ha":391,"x_min":-65,"x_max":456,"o":"m 130 0 l 130 1042 l 260 1042 l 260 0 l 130 0 m -65 1145 l -65 1254 l 456 1254 l 456 1145 l -65 1145 z "},"Į":{"ha":391,"x_min":-5,"x_max":260,"o":"m 130 0 l 130 1042 l 260 1042 l 260 0 l 130 0 m 256 -377 q 18 -286 80 -377 q -5 -216 -5 -252 q 2 -158 -5 -180 q 22 -115 9 -136 q 169 14 68 -41 l 256 14 q 125 -182 125 -73 q 162 -252 125 -235 q 256 -269 198 -269 l 256 -377 z "},"Ĩ":{"ha":391,"x_min":-109,"x_max":499,"o":"m 130 0 l 130 1042 l 260 1042 l 260 0 l 130 0 m -109 1171 q -59 1300 -109 1255 q 65 1345 -9 1345 q 214 1312 136 1345 q 262 1291 236 1302 q 316 1279 289 1279 q 359 1292 349 1279 q 369 1344 369 1304 l 499 1344 q 437 1207 499 1254 q 326 1171 388 1171 q 177 1203 254 1171 q 128 1224 155 1213 q 75 1236 102 1236 q 31 1223 40 1236 q 22 1171 22 1211 l -109 1171 z "},"J":{"ha":1163,"x_min":87,"x_max":1042,"o":"m 391 0 q 188 37 261 0 q 98 183 115 75 q 87 347 87 248 l 87 391 l 217 391 l 217 347 q 255 145 217 193 q 310 113 276 119 q 391 106 343 106 l 694 106 q 862 148 812 106 q 911 304 911 189 l 911 1042 l 1042 1042 l 1042 304 q 966 71 1042 138 q 694 0 887 0 l 391 0 z "},"Ĵ":{"ha":1163,"x_min":87,"x_max":1259,"o":"m 391 0 q 188 37 261 0 q 98 183 115 75 q 87 347 87 248 l 87 391 l 217 391 l 217 347 q 255 145 217 193 q 310 113 276 119 q 391 106 343 106 l 694 106 q 862 148 812 106 q 911 304 911 189 l 911 1042 l 1042 1042 l 1042 304 q 966 71 1042 138 q 694 0 887 0 l 391 0 m 782 1149 l 695 1214 l 912 1539 l 1042 1539 l 1259 1214 l 1173 1149 l 977 1453 l 782 1149 z "},"K":{"ha":1367,"x_min":130,"x_max":1324,"o":"m 130 0 l 130 1042 l 260 1042 l 260 586 l 433 586 l 1107 1042 l 1302 1042 l 564 532 l 1324 0 l 1128 0 l 434 477 l 260 477 l 260 0 l 130 0 z "},"Ǩ":{"ha":1367,"x_min":130,"x_max":1324,"o":"m 130 0 l 130 1042 l 260 1042 l 260 586 l 433 586 l 1107 1042 l 1302 1042 l 564 532 l 1324 0 l 1128 0 l 434 477 l 260 477 l 260 0 l 130 0 m 618 1153 l 401 1478 l 488 1544 l 684 1240 l 879 1544 l 966 1478 l 749 1153 l 618 1153 z "},"Ķ":{"ha":1367,"x_min":130,"x_max":1324,"o":"m 130 0 l 130 1042 l 260 1042 l 260 586 l 433 586 l 1107 1042 l 1302 1042 l 564 532 l 1324 0 l 1128 0 l 434 477 l 260 477 l 260 0 l 130 0 m 749 -103 l 662 -363 l 575 -363 l 618 -103 l 749 -103 z "},"L":{"ha":1128,"x_min":130,"x_max":1085,"o":"m 130 0 l 130 1042 l 260 1042 l 260 109 l 1085 109 l 1085 0 l 130 0 z "},"Ǉ":{"ha":2292,"x_min":130,"x_max":2170,"o":"m 130 0 l 130 1042 l 260 1042 l 260 109 l 1085 109 l 1085 0 l 130 0 m 1519 0 q 1317 37 1390 0 q 1226 183 1244 75 q 1215 347 1215 248 l 1215 391 l 1345 391 l 1345 347 q 1383 145 1345 193 q 1438 113 1404 119 q 1519 106 1472 106 l 1823 106 q 1990 148 1940 106 q 2040 304 2040 189 l 2040 1042 l 2170 1042 l 2170 304 q 2094 71 2170 138 q 1823 0 2016 0 l 1519 0 z "},"Ĺ":{"ha":1128,"x_min":130,"x_max":1085,"o":"m 130 0 l 130 1042 l 260 1042 l 260 109 l 1085 109 l 1085 0 l 130 0 m 412 1171 l 369 1236 l 760 1561 l 840 1444 l 412 1171 z "},"Ľ":{"ha":1128,"x_min":130,"x_max":1085,"o":"m 130 0 l 130 1042 l 260 1042 l 260 109 l 1085 109 l 1085 0 l 130 0 m 521 803 l 564 1063 l 694 1063 l 608 803 l 521 803 z "},"Ļ":{"ha":1128,"x_min":130,"x_max":1085,"o":"m 130 0 l 130 1042 l 260 1042 l 260 109 l 1085 109 l 1085 0 l 130 0 m 629 -103 l 543 -363 l 456 -363 l 499 -103 l 629 -103 z "},"Ŀ":{"ha":1128,"x_min":130,"x_max":1085,"o":"m 130 0 l 130 1042 l 260 1042 l 260 109 l 1085 109 l 1085 0 l 130 0 m 544 477 l 544 608 l 674 608 l 674 477 l 544 477 z "},"ǈ":{"ha":1584,"x_min":130,"x_max":1454,"o":"m 130 0 l 130 1042 l 260 1042 l 260 109 l 1085 109 l 1085 0 l 130 0 m 1324 911 l 1324 1042 l 1454 1042 l 1454 911 l 1324 911 m 1103 -260 l 1103 -152 l 1202 -152 q 1296 -127 1267 -152 q 1324 -16 1324 -102 l 1324 781 l 1454 781 l 1454 -16 q 1398 -200 1454 -139 q 1202 -260 1341 -260 l 1103 -260 z "},"Ł":{"ha":1128,"x_min":43,"x_max":1085,"o":"m 130 0 l 130 541 l 43 521 l 43 629 l 130 649 l 130 1042 l 260 1042 l 260 679 l 521 738 l 521 629 l 260 570 l 260 109 l 1085 109 l 1085 0 l 130 0 z "},"M":{"ha":1904,"x_min":133,"x_max":1771,"o":"m 133 0 l 133 1042 l 327 1042 l 957 192 l 1577 1042 l 1771 1042 l 1771 0 l 1641 0 l 1641 924 l 1019 68 l 901 68 l 263 924 l 263 0 l 133 0 z "},"Ṁ":{"ha":1904,"x_min":133,"x_max":1771,"o":"m 133 0 l 133 1042 l 327 1042 l 957 192 l 1577 1042 l 1771 1042 l 1771 0 l 1641 0 l 1641 924 l 1019 68 l 901 68 l 263 924 l 263 0 l 133 0 m 887 1172 l 887 1302 l 1017 1302 l 1017 1172 l 887 1172 z "},"N":{"ha":1574,"x_min":130,"x_max":1444,"o":"m 130 0 l 130 1042 l 266 1042 l 1312 161 l 1314 161 l 1314 1042 l 1444 1042 l 1444 0 l 1308 0 l 262 888 l 260 888 l 260 0 l 130 0 z "},"Ǌ":{"ha":2737,"x_min":130,"x_max":2616,"o":"m 130 0 l 130 1042 l 266 1042 l 1312 161 l 1314 161 l 1314 1042 l 1444 1042 l 1444 0 l 1308 0 l 262 888 l 260 888 l 260 0 l 130 0 m 1965 0 q 1762 37 1835 0 q 1672 183 1689 75 q 1661 347 1661 248 l 1661 391 l 1791 391 l 1791 347 q 1829 145 1791 193 q 1884 113 1850 119 q 1965 106 1917 106 l 2268 106 q 2436 148 2386 106 q 2485 304 2485 189 l 2485 1042 l 2616 1042 l 2616 304 q 2540 71 2616 138 q 2268 0 2461 0 l 1965 0 z "},"Ń":{"ha":1574,"x_min":130,"x_max":1444,"o":"m 130 0 l 130 1042 l 266 1042 l 1312 161 l 1314 161 l 1314 1042 l 1444 1042 l 1444 0 l 1308 0 l 262 888 l 260 888 l 260 0 l 130 0 m 635 1171 l 592 1236 l 983 1561 l 1063 1444 l 635 1171 z "},"Ň":{"ha":1574,"x_min":130,"x_max":1444,"o":"m 130 0 l 130 1042 l 266 1042 l 1312 161 l 1314 161 l 1314 1042 l 1444 1042 l 1444 0 l 1308 0 l 262 888 l 260 888 l 260 0 l 130 0 m 722 1153 l 505 1478 l 592 1544 l 787 1240 l 983 1544 l 1069 1478 l 852 1153 l 722 1153 z "},"Ņ":{"ha":1574,"x_min":130,"x_max":1444,"o":"m 130 0 l 130 1042 l 266 1042 l 1312 161 l 1314 161 l 1314 1042 l 1444 1042 l 1444 0 l 1308 0 l 262 888 l 260 888 l 260 0 l 130 0 m 852 -103 l 766 -363 l 679 -363 l 722 -103 l 852 -103 z "},"Ǹ":{"ha":1574,"x_min":130,"x_max":1444,"o":"m 130 0 l 130 1042 l 266 1042 l 1312 161 l 1314 161 l 1314 1042 l 1444 1042 l 1444 0 l 1308 0 l 262 888 l 260 888 l 260 0 l 130 0 m 1025 1169 l 597 1443 l 677 1560 l 1068 1234 l 1025 1169 z "},"ǋ":{"ha":2030,"x_min":130,"x_max":1900,"o":"m 130 0 l 130 1042 l 266 1042 l 1312 161 l 1314 161 l 1314 1042 l 1444 1042 l 1444 0 l 1308 0 l 262 888 l 260 888 l 260 0 l 130 0 m 1769 911 l 1769 1042 l 1900 1042 l 1900 911 l 1769 911 m 1549 -260 l 1549 -152 l 1647 -152 q 1741 -127 1713 -152 q 1769 -16 1769 -102 l 1769 781 l 1900 781 l 1900 -16 q 1843 -200 1900 -139 q 1647 -260 1787 -260 l 1549 -260 z "},"Ñ":{"ha":1574,"x_min":130,"x_max":1444,"o":"m 130 0 l 130 1042 l 266 1042 l 1312 161 l 1314 161 l 1314 1042 l 1444 1042 l 1444 0 l 1308 0 l 262 888 l 260 888 l 260 0 l 130 0 m 484 1171 q 533 1300 484 1255 q 657 1345 583 1345 q 806 1312 728 1345 q 854 1291 828 1302 q 908 1279 881 1279 q 951 1292 941 1279 q 961 1344 961 1304 l 1091 1344 q 1029 1207 1091 1254 q 918 1171 980 1171 q 769 1203 846 1171 q 720 1224 747 1213 q 667 1236 694 1236 q 623 1223 632 1236 q 614 1171 614 1211 l 484 1171 z "},"Ŋ":{"ha":1086,"x_min":133,"x_max":1045,"o":"m 521 867 l 304 1193 l 391 1258 l 586 954 l 781 1258 l 868 1193 l 651 867 l 521 867 m 133 0 l 133 781 l 263 781 l 263 677 q 335 743 292 717 q 451 783 378 770 q 640 796 523 796 q 882 766 793 796 q 1008 660 970 736 q 1045 443 1045 583 l 1045 0 l 914 0 l 914 443 q 901 572 914 523 q 854 646 887 621 q 764 679 821 671 q 617 688 706 688 q 404 665 481 688 q 295 595 327 643 q 263 471 263 547 l 263 0 l 133 0 z "},"O":{"ha":1455,"x_min":87,"x_max":1368,"o":"m 591 -22 q 340 -1 438 -22 q 186 75 241 20 q 109 235 131 131 q 87 507 87 340 l 87 534 q 100 767 87 673 q 147 920 114 861 q 238 1010 180 979 q 382 1052 295 1041 q 591 1063 469 1063 l 864 1063 q 1073 1052 986 1063 q 1217 1010 1160 1041 q 1308 920 1274 979 q 1354 767 1341 861 q 1368 534 1368 673 l 1368 507 q 1346 235 1368 340 q 1269 75 1324 131 q 1115 -1 1213 20 q 864 -22 1017 -22 l 591 -22 m 591 91 l 864 91 q 1027 98 961 91 q 1136 127 1094 104 q 1199 195 1177 149 q 1230 316 1221 240 q 1238 507 1238 392 l 1238 534 q 1230 731 1238 654 q 1199 853 1221 808 q 1136 919 1177 898 q 1027 945 1094 939 q 864 951 961 951 l 591 951 q 427 945 494 951 q 319 919 361 939 q 255 853 277 898 q 225 731 233 808 q 217 534 217 654 l 217 507 q 225 316 217 392 q 255 195 233 240 q 319 127 277 149 q 427 98 361 104 q 591 91 494 91 z "},"Ó":{"ha":1455,"x_min":87,"x_max":1368,"o":"m 591 -22 q 340 -1 438 -22 q 186 75 241 20 q 109 235 131 131 q 87 507 87 340 l 87 534 q 100 767 87 673 q 147 920 114 861 q 238 1010 180 979 q 382 1052 295 1041 q 591 1063 469 1063 l 864 1063 q 1073 1052 986 1063 q 1217 1010 1160 1041 q 1308 920 1274 979 q 1354 767 1341 861 q 1368 534 1368 673 l 1368 507 q 1346 235 1368 340 q 1269 75 1324 131 q 1115 -1 1213 20 q 864 -22 1017 -22 l 591 -22 m 591 91 l 864 91 q 1027 98 961 91 q 1136 127 1094 104 q 1199 195 1177 149 q 1230 316 1221 240 q 1238 507 1238 392 l 1238 534 q 1230 731 1238 654 q 1199 853 1221 808 q 1136 919 1177 898 q 1027 945 1094 939 q 864 951 961 951 l 591 951 q 427 945 494 951 q 319 919 361 939 q 255 853 277 898 q 225 731 233 808 q 217 534 217 654 l 217 507 q 225 316 217 392 q 255 195 233 240 q 319 127 277 149 q 427 98 361 104 q 591 91 494 91 m 576 1171 l 532 1236 l 923 1561 l 1003 1444 l 576 1171 z "},"Ŏ":{"ha":1455,"x_min":87,"x_max":1368,"o":"m 591 -22 q 340 -1 438 -22 q 186 75 241 20 q 109 235 131 131 q 87 507 87 340 l 87 534 q 100 767 87 673 q 147 920 114 861 q 238 1010 180 979 q 382 1052 295 1041 q 591 1063 469 1063 l 864 1063 q 1073 1052 986 1063 q 1217 1010 1160 1041 q 1308 920 1274 979 q 1354 767 1341 861 q 1368 534 1368 673 l 1368 507 q 1346 235 1368 340 q 1269 75 1324 131 q 1115 -1 1213 20 q 864 -22 1017 -22 l 591 -22 m 591 91 l 864 91 q 1027 98 961 91 q 1136 127 1094 104 q 1199 195 1177 149 q 1230 316 1221 240 q 1238 507 1238 392 l 1238 534 q 1230 731 1238 654 q 1199 853 1221 808 q 1136 919 1177 898 q 1027 945 1094 939 q 864 951 961 951 l 591 951 q 427 945 494 951 q 319 919 361 939 q 255 853 277 898 q 225 731 233 808 q 217 534 217 654 l 217 507 q 225 316 217 392 q 255 195 233 240 q 319 127 277 149 q 427 98 361 104 q 591 91 494 91 m 728 1147 q 587 1170 646 1147 q 498 1250 529 1193 q 467 1411 467 1308 l 576 1411 q 623 1255 576 1283 q 728 1240 646 1240 q 836 1257 809 1240 q 880 1411 880 1283 l 988 1411 q 957 1250 988 1308 q 868 1170 926 1193 q 728 1147 810 1147 z "},"Ǒ":{"ha":1455,"x_min":87,"x_max":1368,"o":"m 591 -22 q 340 -1 438 -22 q 186 75 241 20 q 109 235 131 131 q 87 507 87 340 l 87 534 q 100 767 87 673 q 147 920 114 861 q 238 1010 180 979 q 382 1052 295 1041 q 591 1063 469 1063 l 864 1063 q 1073 1052 986 1063 q 1217 1010 1160 1041 q 1308 920 1274 979 q 1354 767 1341 861 q 1368 534 1368 673 l 1368 507 q 1346 235 1368 340 q 1269 75 1324 131 q 1115 -1 1213 20 q 864 -22 1017 -22 l 591 -22 m 591 91 l 864 91 q 1027 98 961 91 q 1136 127 1094 104 q 1199 195 1177 149 q 1230 316 1221 240 q 1238 507 1238 392 l 1238 534 q 1230 731 1238 654 q 1199 853 1221 808 q 1136 919 1177 898 q 1027 945 1094 939 q 864 951 961 951 l 591 951 q 427 945 494 951 q 319 919 361 939 q 255 853 277 898 q 225 731 233 808 q 217 534 217 654 l 217 507 q 225 316 217 392 q 255 195 233 240 q 319 127 277 149 q 427 98 361 104 q 591 91 494 91 m 663 1153 l 446 1478 l 532 1544 l 728 1240 l 923 1544 l 1010 1478 l 793 1153 l 663 1153 z "},"Ô":{"ha":1455,"x_min":87,"x_max":1368,"o":"m 591 -22 q 340 -1 438 -22 q 186 75 241 20 q 109 235 131 131 q 87 507 87 340 l 87 534 q 100 767 87 673 q 147 920 114 861 q 238 1010 180 979 q 382 1052 295 1041 q 591 1063 469 1063 l 864 1063 q 1073 1052 986 1063 q 1217 1010 1160 1041 q 1308 920 1274 979 q 1354 767 1341 861 q 1368 534 1368 673 l 1368 507 q 1346 235 1368 340 q 1269 75 1324 131 q 1115 -1 1213 20 q 864 -22 1017 -22 l 591 -22 m 591 91 l 864 91 q 1027 98 961 91 q 1136 127 1094 104 q 1199 195 1177 149 q 1230 316 1221 240 q 1238 507 1238 392 l 1238 534 q 1230 731 1238 654 q 1199 853 1221 808 q 1136 919 1177 898 q 1027 945 1094 939 q 864 951 961 951 l 591 951 q 427 945 494 951 q 319 919 361 939 q 255 853 277 898 q 225 731 233 808 q 217 534 217 654 l 217 507 q 225 316 217 392 q 255 195 233 240 q 319 127 277 149 q 427 98 361 104 q 591 91 494 91 m 532 1149 l 446 1214 l 663 1539 l 793 1539 l 1010 1214 l 923 1149 l 728 1453 l 532 1149 z "},"Ȍ":{"ha":1455,"x_min":87,"x_max":1368,"o":"m 591 -22 q 340 -1 438 -22 q 186 75 241 20 q 109 235 131 131 q 87 507 87 340 l 87 534 q 100 767 87 673 q 147 920 114 861 q 238 1010 180 979 q 382 1052 295 1041 q 591 1063 469 1063 l 864 1063 q 1073 1052 986 1063 q 1217 1010 1160 1041 q 1308 920 1274 979 q 1354 767 1341 861 q 1368 534 1368 673 l 1368 507 q 1346 235 1368 340 q 1269 75 1324 131 q 1115 -1 1213 20 q 864 -22 1017 -22 l 591 -22 m 591 91 l 864 91 q 1027 98 961 91 q 1136 127 1094 104 q 1199 195 1177 149 q 1230 316 1221 240 q 1238 507 1238 392 l 1238 534 q 1230 731 1238 654 q 1199 853 1221 808 q 1136 919 1177 898 q 1027 945 1094 939 q 864 951 961 951 l 591 951 q 427 945 494 951 q 319 919 361 939 q 255 853 277 898 q 225 731 233 808 q 217 534 217 654 l 217 507 q 225 316 217 392 q 255 195 233 240 q 319 127 277 149 q 427 98 361 104 q 591 91 494 91 z "},"Ö":{"ha":1455,"x_min":87,"x_max":1368,"o":"m 591 -22 q 340 -1 438 -22 q 186 75 241 20 q 109 235 131 131 q 87 507 87 340 l 87 534 q 100 767 87 673 q 147 920 114 861 q 238 1010 180 979 q 382 1052 295 1041 q 591 1063 469 1063 l 864 1063 q 1073 1052 986 1063 q 1217 1010 1160 1041 q 1308 920 1274 979 q 1354 767 1341 861 q 1368 534 1368 673 l 1368 507 q 1346 235 1368 340 q 1269 75 1324 131 q 1115 -1 1213 20 q 864 -22 1017 -22 l 591 -22 m 591 91 l 864 91 q 1027 98 961 91 q 1136 127 1094 104 q 1199 195 1177 149 q 1230 316 1221 240 q 1238 507 1238 392 l 1238 534 q 1230 731 1238 654 q 1199 853 1221 808 q 1136 919 1177 898 q 1027 945 1094 939 q 864 951 961 951 l 591 951 q 427 945 494 951 q 319 919 361 939 q 255 853 277 898 q 225 731 233 808 q 217 534 217 654 l 217 507 q 225 316 217 392 q 255 195 233 240 q 319 127 277 149 q 427 98 361 104 q 591 91 494 91 m 903 1172 l 903 1302 l 1033 1302 l 1033 1172 l 903 1172 m 422 1172 l 422 1302 l 553 1302 l 553 1172 l 422 1172 z "},"Ȯ":{"ha":1455,"x_min":87,"x_max":1368,"o":"m 591 -22 q 340 -1 438 -22 q 186 75 241 20 q 109 235 131 131 q 87 507 87 340 l 87 534 q 100 767 87 673 q 147 920 114 861 q 238 1010 180 979 q 382 1052 295 1041 q 591 1063 469 1063 l 864 1063 q 1073 1052 986 1063 q 1217 1010 1160 1041 q 1308 920 1274 979 q 1354 767 1341 861 q 1368 534 1368 673 l 1368 507 q 1346 235 1368 340 q 1269 75 1324 131 q 1115 -1 1213 20 q 864 -22 1017 -22 l 591 -22 m 591 91 l 864 91 q 1027 98 961 91 q 1136 127 1094 104 q 1199 195 1177 149 q 1230 316 1221 240 q 1238 507 1238 392 l 1238 534 q 1230 731 1238 654 q 1199 853 1221 808 q 1136 919 1177 898 q 1027 945 1094 939 q 864 951 961 951 l 591 951 q 427 945 494 951 q 319 919 361 939 q 255 853 277 898 q 225 731 233 808 q 217 534 217 654 l 217 507 q 225 316 217 392 q 255 195 233 240 q 319 127 277 149 q 427 98 361 104 q 591 91 494 91 m 663 1172 l 663 1302 l 793 1302 l 793 1172 l 663 1172 z "},"Ò":{"ha":1455,"x_min":87,"x_max":1368,"o":"m 591 -22 q 340 -1 438 -22 q 186 75 241 20 q 109 235 131 131 q 87 507 87 340 l 87 534 q 100 767 87 673 q 147 920 114 861 q 238 1010 180 979 q 382 1052 295 1041 q 591 1063 469 1063 l 864 1063 q 1073 1052 986 1063 q 1217 1010 1160 1041 q 1308 920 1274 979 q 1354 767 1341 861 q 1368 534 1368 673 l 1368 507 q 1346 235 1368 340 q 1269 75 1324 131 q 1115 -1 1213 20 q 864 -22 1017 -22 l 591 -22 m 591 91 l 864 91 q 1027 98 961 91 q 1136 127 1094 104 q 1199 195 1177 149 q 1230 316 1221 240 q 1238 507 1238 392 l 1238 534 q 1230 731 1238 654 q 1199 853 1221 808 q 1136 919 1177 898 q 1027 945 1094 939 q 864 951 961 951 l 591 951 q 427 945 494 951 q 319 919 361 939 q 255 853 277 898 q 225 731 233 808 q 217 534 217 654 l 217 507 q 225 316 217 392 q 255 195 233 240 q 319 127 277 149 q 427 98 361 104 q 591 91 494 91 m 965 1169 l 538 1443 l 618 1560 l 1008 1234 l 965 1169 z "},"Ő":{"ha":1455,"x_min":87,"x_max":1368,"o":"m 591 -22 q 340 -1 438 -22 q 186 75 241 20 q 109 235 131 131 q 87 507 87 340 l 87 534 q 100 767 87 673 q 147 920 114 861 q 238 1010 180 979 q 382 1052 295 1041 q 591 1063 469 1063 l 864 1063 q 1073 1052 986 1063 q 1217 1010 1160 1041 q 1308 920 1274 979 q 1354 767 1341 861 q 1368 534 1368 673 l 1368 507 q 1346 235 1368 340 q 1269 75 1324 131 q 1115 -1 1213 20 q 864 -22 1017 -22 l 591 -22 m 591 91 l 864 91 q 1027 98 961 91 q 1136 127 1094 104 q 1199 195 1177 149 q 1230 316 1221 240 q 1238 507 1238 392 l 1238 534 q 1230 731 1238 654 q 1199 853 1221 808 q 1136 919 1177 898 q 1027 945 1094 939 q 864 951 961 951 l 591 951 q 427 945 494 951 q 319 919 361 939 q 255 853 277 898 q 225 731 233 808 q 217 534 217 654 l 217 507 q 225 316 217 392 q 255 195 233 240 q 319 127 277 149 q 427 98 361 104 q 591 91 494 91 m 913 1145 l 870 1210 l 1261 1535 l 1348 1405 l 913 1145 m 538 1145 l 495 1210 l 886 1535 l 972 1405 l 538 1145 z "},"Ȏ":{"ha":1455,"x_min":87,"x_max":1368,"o":"m 591 -22 q 340 -1 438 -22 q 186 75 241 20 q 109 235 131 131 q 87 507 87 340 l 87 534 q 100 767 87 673 q 147 920 114 861 q 238 1010 180 979 q 382 1052 295 1041 q 591 1063 469 1063 l 864 1063 q 1073 1052 986 1063 q 1217 1010 1160 1041 q 1308 920 1274 979 q 1354 767 1341 861 q 1368 534 1368 673 l 1368 507 q 1346 235 1368 340 q 1269 75 1324 131 q 1115 -1 1213 20 q 864 -22 1017 -22 l 591 -22 m 591 91 l 864 91 q 1027 98 961 91 q 1136 127 1094 104 q 1199 195 1177 149 q 1230 316 1221 240 q 1238 507 1238 392 l 1238 534 q 1230 731 1238 654 q 1199 853 1221 808 q 1136 919 1177 898 q 1027 945 1094 939 q 864 951 961 951 l 591 951 q 427 945 494 951 q 319 919 361 939 q 255 853 277 898 q 225 731 233 808 q 217 534 217 654 l 217 507 q 225 316 217 392 q 255 195 233 240 q 319 127 277 149 q 427 98 361 104 q 591 91 494 91 m 728 1411 q 868 1389 810 1411 q 957 1308 926 1366 q 988 1147 988 1251 l 880 1147 q 836 1301 880 1275 q 728 1318 809 1318 q 623 1303 646 1318 q 576 1147 576 1275 l 467 1147 q 498 1308 467 1251 q 587 1389 529 1366 q 728 1411 646 1411 z "},"Ō":{"ha":1455,"x_min":87,"x_max":1368,"o":"m 591 -22 q 340 -1 438 -22 q 186 75 241 20 q 109 235 131 131 q 87 507 87 340 l 87 534 q 100 767 87 673 q 147 920 114 861 q 238 1010 180 979 q 382 1052 295 1041 q 591 1063 469 1063 l 864 1063 q 1073 1052 986 1063 q 1217 1010 1160 1041 q 1308 920 1274 979 q 1354 767 1341 861 q 1368 534 1368 673 l 1368 507 q 1346 235 1368 340 q 1269 75 1324 131 q 1115 -1 1213 20 q 864 -22 1017 -22 l 591 -22 m 591 91 l 864 91 q 1027 98 961 91 q 1136 127 1094 104 q 1199 195 1177 149 q 1230 316 1221 240 q 1238 507 1238 392 l 1238 534 q 1230 731 1238 654 q 1199 853 1221 808 q 1136 919 1177 898 q 1027 945 1094 939 q 864 951 961 951 l 591 951 q 427 945 494 951 q 319 919 361 939 q 255 853 277 898 q 225 731 233 808 q 217 534 217 654 l 217 507 q 225 316 217 392 q 255 195 233 240 q 319 127 277 149 q 427 98 361 104 q 591 91 494 91 m 467 1145 l 467 1254 l 988 1254 l 988 1145 l 467 1145 z "},"Ǫ":{"ha":1455,"x_min":87,"x_max":1368,"o":"m 591 -22 q 340 -1 438 -22 q 186 75 241 20 q 109 235 131 131 q 87 507 87 340 l 87 534 q 100 767 87 673 q 147 920 114 861 q 238 1010 180 979 q 382 1052 295 1041 q 591 1063 469 1063 l 864 1063 q 1073 1052 986 1063 q 1217 1010 1160 1041 q 1308 920 1274 979 q 1354 767 1341 861 q 1368 534 1368 673 l 1368 507 q 1346 235 1368 340 q 1269 75 1324 131 q 1115 -1 1213 20 q 864 -22 1017 -22 l 591 -22 m 591 91 l 864 91 q 1027 98 961 91 q 1136 127 1094 104 q 1199 195 1177 149 q 1230 316 1221 240 q 1238 507 1238 392 l 1238 534 q 1230 731 1238 654 q 1199 853 1221 808 q 1136 919 1177 898 q 1027 945 1094 939 q 864 951 961 951 l 591 951 q 427 945 494 951 q 319 919 361 939 q 255 853 277 898 q 225 731 233 808 q 217 534 217 654 l 217 507 q 225 316 217 392 q 255 195 233 240 q 319 127 277 149 q 427 98 361 104 q 591 91 494 91 m 817 -377 q 578 -286 641 -377 q 556 -216 556 -252 q 563 -158 556 -180 q 583 -115 570 -136 q 730 14 629 -41 l 817 14 q 686 -182 686 -73 q 723 -252 686 -235 q 817 -269 759 -269 l 817 -377 z "},"Ø":{"ha":1455,"x_min":87,"x_max":1368,"o":"m 450 -172 l 365 -137 l 425 -15 q 258 25 324 -5 q 155 115 193 56 q 102 270 117 174 q 87 507 87 366 l 87 534 q 100 767 87 673 q 147 920 114 861 q 238 1010 180 979 q 382 1052 295 1041 q 591 1063 469 1063 l 864 1063 q 954 1062 914 1063 l 1029 1215 l 1115 1180 l 1053 1055 q 1208 1015 1147 1044 q 1304 926 1269 985 q 1353 772 1339 867 q 1368 534 1368 676 l 1368 507 q 1346 235 1368 340 q 1269 75 1324 131 q 1115 -1 1213 20 q 864 -22 1017 -22 l 591 -22 q 525 -21 555 -22 l 450 -172 m 217 507 q 227 303 217 382 q 264 180 237 224 q 343 117 291 136 q 478 93 395 98 l 899 951 q 864 951 884 951 l 591 951 q 427 945 494 951 q 319 919 361 939 q 255 853 277 898 q 225 731 233 808 q 217 534 217 654 l 217 507 m 591 91 l 864 91 q 1027 98 961 91 q 1136 127 1094 104 q 1199 195 1177 149 q 1230 316 1221 240 q 1238 507 1238 392 l 1238 534 q 1229 738 1238 659 q 1195 861 1219 817 q 1123 924 1170 905 q 1001 948 1076 943 l 580 91 q 591 91 585 91 z "},"Ǿ":{"ha":1455,"x_min":87,"x_max":1368,"o":"m 450 -172 l 365 -137 l 425 -15 q 258 25 324 -5 q 155 115 193 56 q 102 270 117 174 q 87 507 87 366 l 87 534 q 100 767 87 673 q 147 920 114 861 q 238 1010 180 979 q 382 1052 295 1041 q 591 1063 469 1063 l 864 1063 q 954 1062 914 1063 l 1029 1215 l 1115 1180 l 1053 1055 q 1208 1015 1147 1044 q 1304 926 1269 985 q 1353 772 1339 867 q 1368 534 1368 676 l 1368 507 q 1346 235 1368 340 q 1269 75 1324 131 q 1115 -1 1213 20 q 864 -22 1017 -22 l 591 -22 q 525 -21 555 -22 l 450 -172 m 217 507 q 227 303 217 382 q 264 180 237 224 q 343 117 291 136 q 478 93 395 98 l 899 951 q 864 951 884 951 l 591 951 q 427 945 494 951 q 319 919 361 939 q 255 853 277 898 q 225 731 233 808 q 217 534 217 654 l 217 507 m 591 91 l 864 91 q 1027 98 961 91 q 1136 127 1094 104 q 1199 195 1177 149 q 1230 316 1221 240 q 1238 507 1238 392 l 1238 534 q 1229 738 1238 659 q 1195 861 1219 817 q 1123 924 1170 905 q 1001 948 1076 943 l 580 91 q 591 91 585 91 m 576 1171 l 532 1236 l 923 1561 l 1003 1444 l 576 1171 z "},"Õ":{"ha":1455,"x_min":87,"x_max":1368,"o":"m 591 -22 q 340 -1 438 -22 q 186 75 241 20 q 109 235 131 131 q 87 507 87 340 l 87 534 q 100 767 87 673 q 147 920 114 861 q 238 1010 180 979 q 382 1052 295 1041 q 591 1063 469 1063 l 864 1063 q 1073 1052 986 1063 q 1217 1010 1160 1041 q 1308 920 1274 979 q 1354 767 1341 861 q 1368 534 1368 673 l 1368 507 q 1346 235 1368 340 q 1269 75 1324 131 q 1115 -1 1213 20 q 864 -22 1017 -22 l 591 -22 m 591 91 l 864 91 q 1027 98 961 91 q 1136 127 1094 104 q 1199 195 1177 149 q 1230 316 1221 240 q 1238 507 1238 392 l 1238 534 q 1230 731 1238 654 q 1199 853 1221 808 q 1136 919 1177 898 q 1027 945 1094 939 q 864 951 961 951 l 591 951 q 427 945 494 951 q 319 919 361 939 q 255 853 277 898 q 225 731 233 808 q 217 534 217 654 l 217 507 q 225 316 217 392 q 255 195 233 240 q 319 127 277 149 q 427 98 361 104 q 591 91 494 91 m 424 1171 q 474 1300 424 1255 q 597 1345 524 1345 q 746 1312 668 1345 q 795 1291 768 1302 q 848 1279 821 1279 q 891 1292 881 1279 q 901 1344 901 1304 l 1031 1344 q 969 1207 1031 1254 q 858 1171 920 1171 q 709 1203 787 1171 q 661 1224 687 1213 q 607 1236 634 1236 q 563 1223 572 1236 q 554 1171 554 1211 l 424 1171 z "},"Œ":{"ha":2387,"x_min":89,"x_max":2344,"o":"m 564 -22 q 228 37 332 -22 q 121 158 154 78 q 89 353 89 239 l 89 572 q 97 772 89 679 q 146 930 104 865 q 228 1005 175 976 q 529 1061 329 1061 l 988 1061 q 1302 998 1200 1061 l 1302 1042 l 2344 1042 l 2344 933 l 1432 933 l 1432 586 l 2300 586 l 2300 477 l 1432 477 l 1432 109 l 2344 109 l 2344 0 l 1302 0 l 1302 43 q 956 -22 1196 -22 l 564 -22 m 564 87 l 956 87 q 1199 113 1134 87 q 1260 158 1239 129 q 1289 235 1280 187 q 1302 521 1302 298 q 1291 798 1302 743 q 1261 881 1281 850 q 1199 929 1241 912 q 1112 948 1160 945 q 1006 952 1063 952 l 511 952 q 369 943 427 952 q 276 902 311 933 q 229 807 242 871 q 217 521 217 745 q 228 243 217 298 q 257 160 238 191 q 319 113 277 130 q 564 87 385 87 z "},"P":{"ha":1350,"x_min":133,"x_max":1299,"o":"m 133 0 l 133 1042 l 830 1042 q 1076 1027 983 1042 q 1217 977 1169 1012 q 1282 883 1265 942 q 1299 735 1299 823 l 1299 708 q 1282 565 1299 624 q 1215 471 1265 507 q 1072 418 1166 435 q 826 401 979 401 l 263 401 l 263 0 l 133 0 m 1169 735 q 1157 838 1169 800 q 1108 897 1145 877 q 999 923 1072 916 q 805 929 926 929 l 263 929 l 263 514 l 805 514 q 999 522 926 514 q 1108 550 1072 530 q 1157 609 1145 571 q 1169 708 1169 648 l 1169 735 z "},"Ṗ":{"ha":1350,"x_min":133,"x_max":1299,"o":"m 133 0 l 133 1042 l 830 1042 q 1076 1027 983 1042 q 1217 977 1169 1012 q 1282 883 1265 942 q 1299 735 1299 823 l 1299 708 q 1282 565 1299 624 q 1215 471 1265 507 q 1072 418 1166 435 q 826 401 979 401 l 263 401 l 263 0 l 133 0 m 1169 735 q 1157 838 1169 800 q 1108 897 1145 877 q 999 923 1072 916 q 805 929 926 929 l 263 929 l 263 514 l 805 514 q 999 522 926 514 q 1108 550 1072 530 q 1157 609 1145 571 q 1169 708 1169 648 l 1169 735 m 610 1172 l 610 1302 l 741 1302 l 741 1172 l 610 1172 z "},"Þ":{"ha":1302,"x_min":87,"x_max":1259,"o":"m 87 0 l 87 1042 l 217 1042 l 217 911 l 869 911 q 1143 878 1056 911 q 1210 836 1187 861 q 1252 739 1246 798 q 1259 606 1259 681 q 1258 556 1259 581 q 1256 510 1257 532 q 1199 365 1251 414 q 781 282 1112 282 l 217 282 l 217 0 l 87 0 m 217 391 l 781 391 q 1025 405 958 391 q 1100 443 1075 416 q 1127 526 1124 469 q 1128 570 1128 544 q 1128 634 1128 597 q 1120 724 1128 692 q 1086 770 1111 755 q 1014 793 1062 785 q 781 803 962 803 l 217 803 l 217 391 z "},"Q":{"ha":1455,"x_min":87,"x_max":1455,"o":"m 591 -22 q 340 -1 438 -22 q 186 75 241 20 q 109 235 131 131 q 87 507 87 340 l 87 534 q 100 767 87 673 q 147 920 114 861 q 238 1010 180 979 q 382 1052 295 1041 q 591 1063 469 1063 l 864 1063 q 1073 1052 986 1063 q 1217 1010 1160 1041 q 1308 920 1274 979 q 1354 767 1341 861 q 1368 534 1368 673 l 1368 507 q 1347 240 1368 342 q 1273 79 1326 137 l 1455 -63 l 1389 -144 l 1181 18 q 1047 -13 1125 -5 q 864 -22 968 -22 l 591 -22 m 591 91 l 864 91 q 981 94 930 91 q 1072 104 1033 96 l 751 356 l 817 437 l 1174 157 q 1225 282 1213 199 q 1238 507 1238 365 l 1238 534 q 1230 731 1238 654 q 1199 853 1221 808 q 1136 919 1177 898 q 1027 945 1094 939 q 864 951 961 951 l 591 951 q 427 945 494 951 q 319 919 361 939 q 255 853 277 898 q 225 731 233 808 q 217 534 217 654 l 217 507 q 225 316 217 392 q 255 195 233 240 q 319 127 277 149 q 427 98 361 104 q 591 91 494 91 z "},"R":{"ha":1415,"x_min":133,"x_max":1299,"o":"m 133 1042 l 830 1042 q 1076 1028 983 1042 q 1217 981 1169 1015 q 1282 890 1265 948 q 1299 745 1299 833 l 1299 718 q 1280 577 1299 636 q 1206 483 1261 519 q 1043 431 1151 446 l 1270 0 l 1139 0 l 918 422 q 889 421 904 421 q 859 421 875 421 l 263 421 l 263 0 l 133 0 l 133 1042 m 263 534 l 839 534 q 1022 542 955 534 q 1120 569 1088 549 q 1160 625 1152 589 q 1169 718 1169 661 l 1169 745 q 1157 846 1169 809 q 1108 901 1145 884 q 999 924 1072 919 q 805 929 926 929 l 263 929 l 263 534 z "},"Ŕ":{"ha":1415,"x_min":133,"x_max":1299,"o":"m 133 1042 l 830 1042 q 1076 1028 983 1042 q 1217 981 1169 1015 q 1282 890 1265 948 q 1299 745 1299 833 l 1299 718 q 1280 577 1299 636 q 1206 483 1261 519 q 1043 431 1151 446 l 1270 0 l 1139 0 l 918 422 q 889 421 904 421 q 859 421 875 421 l 263 421 l 263 0 l 133 0 l 133 1042 m 263 534 l 839 534 q 1022 542 955 534 q 1120 569 1088 549 q 1160 625 1152 589 q 1169 718 1169 661 l 1169 745 q 1157 846 1169 809 q 1108 901 1145 884 q 999 924 1072 919 q 805 929 926 929 l 263 929 l 263 534 m 529 1171 l 486 1236 l 876 1561 l 956 1444 l 529 1171 z "},"Ř":{"ha":1415,"x_min":133,"x_max":1299,"o":"m 133 1042 l 830 1042 q 1076 1028 983 1042 q 1217 981 1169 1015 q 1282 890 1265 948 q 1299 745 1299 833 l 1299 718 q 1280 577 1299 636 q 1206 483 1261 519 q 1043 431 1151 446 l 1270 0 l 1139 0 l 918 422 q 889 421 904 421 q 859 421 875 421 l 263 421 l 263 0 l 133 0 l 133 1042 m 263 534 l 839 534 q 1022 542 955 534 q 1120 569 1088 549 q 1160 625 1152 589 q 1169 718 1169 661 l 1169 745 q 1157 846 1169 809 q 1108 901 1145 884 q 999 924 1072 919 q 805 929 926 929 l 263 929 l 263 534 m 616 1153 l 399 1478 l 486 1544 l 681 1240 l 876 1544 l 963 1478 l 746 1153 l 616 1153 z "},"Ŗ":{"ha":1415,"x_min":133,"x_max":1299,"o":"m 133 1042 l 830 1042 q 1076 1028 983 1042 q 1217 981 1169 1015 q 1282 890 1265 948 q 1299 745 1299 833 l 1299 718 q 1280 577 1299 636 q 1206 483 1261 519 q 1043 431 1151 446 l 1270 0 l 1139 0 l 918 422 q 889 421 904 421 q 859 421 875 421 l 263 421 l 263 0 l 133 0 l 133 1042 m 263 534 l 839 534 q 1022 542 955 534 q 1120 569 1088 549 q 1160 625 1152 589 q 1169 718 1169 661 l 1169 745 q 1157 846 1169 809 q 1108 901 1145 884 q 999 924 1072 919 q 805 929 926 929 l 263 929 l 263 534 m 773 -103 l 686 -363 l 600 -363 l 643 -103 l 773 -103 z "},"Ȑ":{"ha":1415,"x_min":133,"x_max":1299,"o":"m 133 1042 l 830 1042 q 1076 1028 983 1042 q 1217 981 1169 1015 q 1282 890 1265 948 q 1299 745 1299 833 l 1299 718 q 1280 577 1299 636 q 1206 483 1261 519 q 1043 431 1151 446 l 1270 0 l 1139 0 l 918 422 q 889 421 904 421 q 859 421 875 421 l 263 421 l 263 0 l 133 0 l 133 1042 m 263 534 l 839 534 q 1022 542 955 534 q 1120 569 1088 549 q 1160 625 1152 589 q 1169 718 1169 661 l 1169 745 q 1157 846 1169 809 q 1108 901 1145 884 q 999 924 1072 919 q 805 929 926 929 l 263 929 l 263 534 z "},"Ȓ":{"ha":1415,"x_min":133,"x_max":1299,"o":"m 133 1042 l 830 1042 q 1076 1028 983 1042 q 1217 981 1169 1015 q 1282 890 1265 948 q 1299 745 1299 833 l 1299 718 q 1280 577 1299 636 q 1206 483 1261 519 q 1043 431 1151 446 l 1270 0 l 1139 0 l 918 422 q 889 421 904 421 q 859 421 875 421 l 263 421 l 263 0 l 133 0 l 133 1042 m 263 534 l 839 534 q 1022 542 955 534 q 1120 569 1088 549 q 1160 625 1152 589 q 1169 718 1169 661 l 1169 745 q 1157 846 1169 809 q 1108 901 1145 884 q 999 924 1072 919 q 805 929 926 929 l 263 929 l 263 534 m 681 1411 q 822 1389 764 1411 q 910 1308 880 1366 q 941 1147 941 1251 l 833 1147 q 789 1301 833 1275 q 681 1318 762 1318 q 576 1303 600 1318 q 529 1147 529 1275 l 420 1147 q 451 1308 420 1251 q 541 1389 482 1366 q 681 1411 599 1411 z "},"S":{"ha":1453,"x_min":90,"x_max":1369,"o":"m 1239 301 q 1230 396 1239 361 q 1187 447 1220 431 q 1084 469 1154 464 q 892 476 1014 474 l 515 481 q 291 498 376 484 q 163 546 206 513 q 105 632 119 578 q 90 768 90 686 q 110 914 90 857 q 183 1004 130 972 q 332 1050 235 1037 q 581 1063 428 1063 l 871 1063 q 1101 1055 1009 1063 q 1248 1014 1194 1046 q 1325 915 1302 982 q 1349 730 1349 848 l 1219 730 q 1201 868 1219 821 q 1144 931 1184 914 q 1038 949 1105 948 q 871 951 970 951 l 587 951 q 393 946 466 951 q 283 924 320 941 q 233 870 245 907 q 220 768 220 833 q 229 680 220 713 q 269 629 238 646 q 364 605 300 612 q 540 597 429 599 l 944 592 q 1172 575 1086 590 q 1299 528 1257 561 q 1355 440 1341 496 q 1369 301 1369 385 q 1352 148 1369 210 q 1285 48 1335 85 q 1142 -5 1236 11 q 896 -22 1048 -22 l 578 -22 q 345 -9 439 -22 q 195 40 251 3 q 115 150 139 77 q 90 345 90 223 l 220 345 q 236 197 220 250 q 291 122 252 145 q 400 95 330 100 q 578 91 470 91 l 889 91 q 1081 99 1010 91 q 1185 129 1152 106 q 1229 192 1219 151 q 1239 301 1239 233 z "},"Ś":{"ha":1453,"x_min":90,"x_max":1369,"o":"m 1239 301 q 1230 396 1239 361 q 1187 447 1220 431 q 1084 469 1154 464 q 892 476 1014 474 l 515 481 q 291 498 376 484 q 163 546 206 513 q 105 632 119 578 q 90 768 90 686 q 110 914 90 857 q 183 1004 130 972 q 332 1050 235 1037 q 581 1063 428 1063 l 871 1063 q 1101 1055 1009 1063 q 1248 1014 1194 1046 q 1325 915 1302 982 q 1349 730 1349 848 l 1219 730 q 1201 868 1219 821 q 1144 931 1184 914 q 1038 949 1105 948 q 871 951 970 951 l 587 951 q 393 946 466 951 q 283 924 320 941 q 233 870 245 907 q 220 768 220 833 q 229 680 220 713 q 269 629 238 646 q 364 605 300 612 q 540 597 429 599 l 944 592 q 1172 575 1086 590 q 1299 528 1257 561 q 1355 440 1341 496 q 1369 301 1369 385 q 1352 148 1369 210 q 1285 48 1335 85 q 1142 -5 1236 11 q 896 -22 1048 -22 l 578 -22 q 345 -9 439 -22 q 195 40 251 3 q 115 150 139 77 q 90 345 90 223 l 220 345 q 236 197 220 250 q 291 122 252 145 q 400 95 330 100 q 578 91 470 91 l 889 91 q 1081 99 1010 91 q 1185 129 1152 106 q 1229 192 1219 151 q 1239 301 1239 233 m 574 1171 l 531 1236 l 922 1561 l 1002 1444 l 574 1171 z "},"Š":{"ha":1453,"x_min":90,"x_max":1369,"o":"m 1239 301 q 1230 396 1239 361 q 1187 447 1220 431 q 1084 469 1154 464 q 892 476 1014 474 l 515 481 q 291 498 376 484 q 163 546 206 513 q 105 632 119 578 q 90 768 90 686 q 110 914 90 857 q 183 1004 130 972 q 332 1050 235 1037 q 581 1063 428 1063 l 871 1063 q 1101 1055 1009 1063 q 1248 1014 1194 1046 q 1325 915 1302 982 q 1349 730 1349 848 l 1219 730 q 1201 868 1219 821 q 1144 931 1184 914 q 1038 949 1105 948 q 871 951 970 951 l 587 951 q 393 946 466 951 q 283 924 320 941 q 233 870 245 907 q 220 768 220 833 q 229 680 220 713 q 269 629 238 646 q 364 605 300 612 q 540 597 429 599 l 944 592 q 1172 575 1086 590 q 1299 528 1257 561 q 1355 440 1341 496 q 1369 301 1369 385 q 1352 148 1369 210 q 1285 48 1335 85 q 1142 -5 1236 11 q 896 -22 1048 -22 l 578 -22 q 345 -9 439 -22 q 195 40 251 3 q 115 150 139 77 q 90 345 90 223 l 220 345 q 236 197 220 250 q 291 122 252 145 q 400 95 330 100 q 578 91 470 91 l 889 91 q 1081 99 1010 91 q 1185 129 1152 106 q 1229 192 1219 151 q 1239 301 1239 233 m 661 1153 l 444 1478 l 531 1544 l 726 1240 l 922 1544 l 1008 1478 l 791 1153 l 661 1153 z "},"Ş":{"ha":1453,"x_min":90,"x_max":1369,"o":"m 1239 301 q 1230 396 1239 361 q 1187 447 1220 431 q 1084 469 1154 464 q 892 476 1014 474 l 515 481 q 291 498 376 484 q 163 546 206 513 q 105 632 119 578 q 90 768 90 686 q 110 914 90 857 q 183 1004 130 972 q 332 1050 235 1037 q 581 1063 428 1063 l 871 1063 q 1101 1055 1009 1063 q 1248 1014 1194 1046 q 1325 915 1302 982 q 1349 730 1349 848 l 1219 730 q 1201 868 1219 821 q 1144 931 1184 914 q 1038 949 1105 948 q 871 951 970 951 l 587 951 q 393 946 466 951 q 283 924 320 941 q 233 870 245 907 q 220 768 220 833 q 229 680 220 713 q 269 629 238 646 q 364 605 300 612 q 540 597 429 599 l 944 592 q 1172 575 1086 590 q 1299 528 1257 561 q 1355 440 1341 496 q 1369 301 1369 385 q 1352 148 1369 210 q 1285 48 1335 85 q 1142 -5 1236 11 q 896 -22 1048 -22 l 578 -22 q 345 -9 439 -22 q 195 40 251 3 q 115 150 139 77 q 90 345 90 223 l 220 345 q 236 197 220 250 q 291 122 252 145 q 400 95 330 100 q 578 91 470 91 l 889 91 q 1081 99 1010 91 q 1185 129 1152 106 q 1229 192 1219 151 q 1239 301 1239 233 m 673 -369 l 673 -260 q 734 -257 704 -260 q 783 -241 764 -254 q 803 -203 803 -229 q 767 -162 803 -172 q 673 -152 731 -152 l 673 43 l 760 43 l 760 -87 q 890 -116 846 -87 q 933 -216 933 -146 q 900 -308 933 -275 q 809 -355 867 -342 q 673 -369 750 -369 z "},"Ŝ":{"ha":1453,"x_min":90,"x_max":1369,"o":"m 1239 301 q 1230 396 1239 361 q 1187 447 1220 431 q 1084 469 1154 464 q 892 476 1014 474 l 515 481 q 291 498 376 484 q 163 546 206 513 q 105 632 119 578 q 90 768 90 686 q 110 914 90 857 q 183 1004 130 972 q 332 1050 235 1037 q 581 1063 428 1063 l 871 1063 q 1101 1055 1009 1063 q 1248 1014 1194 1046 q 1325 915 1302 982 q 1349 730 1349 848 l 1219 730 q 1201 868 1219 821 q 1144 931 1184 914 q 1038 949 1105 948 q 871 951 970 951 l 587 951 q 393 946 466 951 q 283 924 320 941 q 233 870 245 907 q 220 768 220 833 q 229 680 220 713 q 269 629 238 646 q 364 605 300 612 q 540 597 429 599 l 944 592 q 1172 575 1086 590 q 1299 528 1257 561 q 1355 440 1341 496 q 1369 301 1369 385 q 1352 148 1369 210 q 1285 48 1335 85 q 1142 -5 1236 11 q 896 -22 1048 -22 l 578 -22 q 345 -9 439 -22 q 195 40 251 3 q 115 150 139 77 q 90 345 90 223 l 220 345 q 236 197 220 250 q 291 122 252 145 q 400 95 330 100 q 578 91 470 91 l 889 91 q 1081 99 1010 91 q 1185 129 1152 106 q 1229 192 1219 151 q 1239 301 1239 233 m 531 1149 l 444 1214 l 661 1539 l 791 1539 l 1008 1214 l 922 1149 l 726 1453 l 531 1149 z "},"Ș":{"ha":1453,"x_min":90,"x_max":1369,"o":"m 1239 301 q 1230 396 1239 361 q 1187 447 1220 431 q 1084 469 1154 464 q 892 476 1014 474 l 515 481 q 291 498 376 484 q 163 546 206 513 q 105 632 119 578 q 90 768 90 686 q 110 914 90 857 q 183 1004 130 972 q 332 1050 235 1037 q 581 1063 428 1063 l 871 1063 q 1101 1055 1009 1063 q 1248 1014 1194 1046 q 1325 915 1302 982 q 1349 730 1349 848 l 1219 730 q 1201 868 1219 821 q 1144 931 1184 914 q 1038 949 1105 948 q 871 951 970 951 l 587 951 q 393 946 466 951 q 283 924 320 941 q 233 870 245 907 q 220 768 220 833 q 229 680 220 713 q 269 629 238 646 q 364 605 300 612 q 540 597 429 599 l 944 592 q 1172 575 1086 590 q 1299 528 1257 561 q 1355 440 1341 496 q 1369 301 1369 385 q 1352 148 1369 210 q 1285 48 1335 85 q 1142 -5 1236 11 q 896 -22 1048 -22 l 578 -22 q 345 -9 439 -22 q 195 40 251 3 q 115 150 139 77 q 90 345 90 223 l 220 345 q 236 197 220 250 q 291 122 252 145 q 400 95 330 100 q 578 91 470 91 l 889 91 q 1081 99 1010 91 q 1185 129 1152 106 q 1229 192 1219 151 q 1239 301 1239 233 m 791 -103 l 705 -363 l 618 -363 l 661 -103 l 791 -103 z "},"Ṡ":{"ha":1453,"x_min":90,"x_max":1369,"o":"m 1239 301 q 1230 396 1239 361 q 1187 447 1220 431 q 1084 469 1154 464 q 892 476 1014 474 l 515 481 q 291 498 376 484 q 163 546 206 513 q 105 632 119 578 q 90 768 90 686 q 110 914 90 857 q 183 1004 130 972 q 332 1050 235 1037 q 581 1063 428 1063 l 871 1063 q 1101 1055 1009 1063 q 1248 1014 1194 1046 q 1325 915 1302 982 q 1349 730 1349 848 l 1219 730 q 1201 868 1219 821 q 1144 931 1184 914 q 1038 949 1105 948 q 871 951 970 951 l 587 951 q 393 946 466 951 q 283 924 320 941 q 233 870 245 907 q 220 768 220 833 q 229 680 220 713 q 269 629 238 646 q 364 605 300 612 q 540 597 429 599 l 944 592 q 1172 575 1086 590 q 1299 528 1257 561 q 1355 440 1341 496 q 1369 301 1369 385 q 1352 148 1369 210 q 1285 48 1335 85 q 1142 -5 1236 11 q 896 -22 1048 -22 l 578 -22 q 345 -9 439 -22 q 195 40 251 3 q 115 150 139 77 q 90 345 90 223 l 220 345 q 236 197 220 250 q 291 122 252 145 q 400 95 330 100 q 578 91 470 91 l 889 91 q 1081 99 1010 91 q 1185 129 1152 106 q 1229 192 1219 151 q 1239 301 1239 233 m 661 1172 l 661 1302 l 791 1302 l 791 1172 l 661 1172 z "},"ẞ":{"ha":1215,"x_min":130,"x_max":1085,"o":"m 130 -262 l 130 1111 l 1085 1111 l 1085 -262 l 130 -262 m 260 -153 l 955 -153 l 955 1002 l 260 1002 l 260 -153 z "},"T":{"ha":1299,"x_min":64,"x_max":1236,"o":"m 585 0 l 585 933 l 64 933 l 64 1042 l 1236 1042 l 1236 933 l 715 933 l 715 0 l 585 0 z "},"Ŧ":{"ha":1299,"x_min":64,"x_max":1236,"o":"m 585 0 l 585 442 l 389 442 l 389 551 l 585 551 l 585 933 l 64 933 l 64 1042 l 1236 1042 l 1236 933 l 715 933 l 715 551 l 910 551 l 910 442 l 715 442 l 715 0 l 585 0 z "},"Ť":{"ha":1299,"x_min":64,"x_max":1236,"o":"m 585 0 l 585 933 l 64 933 l 64 1042 l 1236 1042 l 1236 933 l 715 933 l 715 0 l 585 0 m 585 1153 l 368 1478 l 454 1544 l 650 1240 l 845 1544 l 932 1478 l 715 1153 l 585 1153 z "},"Ț":{"ha":1299,"x_min":64,"x_max":1236,"o":"m 585 0 l 585 933 l 64 933 l 64 1042 l 1236 1042 l 1236 933 l 715 933 l 715 0 l 585 0 m 715 -103 l 628 -363 l 541 -363 l 585 -103 l 715 -103 z "},"Ṫ":{"ha":1299,"x_min":64,"x_max":1236,"o":"m 585 0 l 585 933 l 64 933 l 64 1042 l 1236 1042 l 1236 933 l 715 933 l 715 0 l 585 0 m 585 1172 l 585 1302 l 715 1302 l 715 1172 l 585 1172 z "},"U":{"ha":1438,"x_min":92,"x_max":1345,"o":"m 596 -22 q 345 -1 444 -22 q 192 75 247 20 q 114 235 136 131 q 92 507 92 340 l 92 1042 l 222 1042 l 222 507 q 231 316 222 392 q 261 195 239 240 q 325 127 283 149 q 433 98 367 104 q 596 91 500 91 l 842 91 q 1005 98 939 91 q 1113 127 1071 104 q 1177 195 1154 149 q 1207 316 1199 240 q 1215 507 1215 392 l 1215 1042 l 1345 1042 l 1345 507 q 1323 235 1345 340 q 1246 75 1301 131 q 1093 -1 1191 20 q 842 -22 994 -22 l 596 -22 z "},"Ú":{"ha":1438,"x_min":92,"x_max":1345,"o":"m 596 -22 q 345 -1 444 -22 q 192 75 247 20 q 114 235 136 131 q 92 507 92 340 l 92 1042 l 222 1042 l 222 507 q 231 316 222 392 q 261 195 239 240 q 325 127 283 149 q 433 98 367 104 q 596 91 500 91 l 842 91 q 1005 98 939 91 q 1113 127 1071 104 q 1177 195 1154 149 q 1207 316 1199 240 q 1215 507 1215 392 l 1215 1042 l 1345 1042 l 1345 507 q 1323 235 1345 340 q 1246 75 1301 131 q 1093 -1 1191 20 q 842 -22 994 -22 l 596 -22 m 567 1171 l 524 1236 l 914 1561 l 994 1444 l 567 1171 z "},"Ŭ":{"ha":1438,"x_min":92,"x_max":1345,"o":"m 596 -22 q 345 -1 444 -22 q 192 75 247 20 q 114 235 136 131 q 92 507 92 340 l 92 1042 l 222 1042 l 222 507 q 231 316 222 392 q 261 195 239 240 q 325 127 283 149 q 433 98 367 104 q 596 91 500 91 l 842 91 q 1005 98 939 91 q 1113 127 1071 104 q 1177 195 1154 149 q 1207 316 1199 240 q 1215 507 1215 392 l 1215 1042 l 1345 1042 l 1345 507 q 1323 235 1345 340 q 1246 75 1301 131 q 1093 -1 1191 20 q 842 -22 994 -22 l 596 -22 m 719 1147 q 578 1170 637 1147 q 489 1250 520 1193 q 458 1411 458 1308 l 567 1411 q 614 1255 567 1283 q 719 1240 637 1240 q 827 1257 800 1240 q 871 1411 871 1283 l 979 1411 q 948 1250 979 1308 q 860 1170 918 1193 q 719 1147 802 1147 z "},"Ǔ":{"ha":1438,"x_min":92,"x_max":1345,"o":"m 596 -22 q 345 -1 444 -22 q 192 75 247 20 q 114 235 136 131 q 92 507 92 340 l 92 1042 l 222 1042 l 222 507 q 231 316 222 392 q 261 195 239 240 q 325 127 283 149 q 433 98 367 104 q 596 91 500 91 l 842 91 q 1005 98 939 91 q 1113 127 1071 104 q 1177 195 1154 149 q 1207 316 1199 240 q 1215 507 1215 392 l 1215 1042 l 1345 1042 l 1345 507 q 1323 235 1345 340 q 1246 75 1301 131 q 1093 -1 1191 20 q 842 -22 994 -22 l 596 -22 m 654 1153 l 437 1478 l 524 1544 l 719 1240 l 914 1544 l 1001 1478 l 784 1153 l 654 1153 z "},"Û":{"ha":1438,"x_min":92,"x_max":1345,"o":"m 596 -22 q 345 -1 444 -22 q 192 75 247 20 q 114 235 136 131 q 92 507 92 340 l 92 1042 l 222 1042 l 222 507 q 231 316 222 392 q 261 195 239 240 q 325 127 283 149 q 433 98 367 104 q 596 91 500 91 l 842 91 q 1005 98 939 91 q 1113 127 1071 104 q 1177 195 1154 149 q 1207 316 1199 240 q 1215 507 1215 392 l 1215 1042 l 1345 1042 l 1345 507 q 1323 235 1345 340 q 1246 75 1301 131 q 1093 -1 1191 20 q 842 -22 994 -22 l 596 -22 m 524 1149 l 437 1214 l 654 1539 l 784 1539 l 1001 1214 l 914 1149 l 719 1453 l 524 1149 z "},"Ȕ":{"ha":1438,"x_min":92,"x_max":1345,"o":"m 596 -22 q 345 -1 444 -22 q 192 75 247 20 q 114 235 136 131 q 92 507 92 340 l 92 1042 l 222 1042 l 222 507 q 231 316 222 392 q 261 195 239 240 q 325 127 283 149 q 433 98 367 104 q 596 91 500 91 l 842 91 q 1005 98 939 91 q 1113 127 1071 104 q 1177 195 1154 149 q 1207 316 1199 240 q 1215 507 1215 392 l 1215 1042 l 1345 1042 l 1345 507 q 1323 235 1345 340 q 1246 75 1301 131 q 1093 -1 1191 20 q 842 -22 994 -22 l 596 -22 z "},"Ü":{"ha":1438,"x_min":92,"x_max":1345,"o":"m 596 -22 q 345 -1 444 -22 q 192 75 247 20 q 114 235 136 131 q 92 507 92 340 l 92 1042 l 222 1042 l 222 507 q 231 316 222 392 q 261 195 239 240 q 325 127 283 149 q 433 98 367 104 q 596 91 500 91 l 842 91 q 1005 98 939 91 q 1113 127 1071 104 q 1177 195 1154 149 q 1207 316 1199 240 q 1215 507 1215 392 l 1215 1042 l 1345 1042 l 1345 507 q 1323 235 1345 340 q 1246 75 1301 131 q 1093 -1 1191 20 q 842 -22 994 -22 l 596 -22 m 894 1172 l 894 1302 l 1024 1302 l 1024 1172 l 894 1172 m 414 1172 l 414 1302 l 544 1302 l 544 1172 l 414 1172 z "},"Ù":{"ha":1438,"x_min":92,"x_max":1345,"o":"m 596 -22 q 345 -1 444 -22 q 192 75 247 20 q 114 235 136 131 q 92 507 92 340 l 92 1042 l 222 1042 l 222 507 q 231 316 222 392 q 261 195 239 240 q 325 127 283 149 q 433 98 367 104 q 596 91 500 91 l 842 91 q 1005 98 939 91 q 1113 127 1071 104 q 1177 195 1154 149 q 1207 316 1199 240 q 1215 507 1215 392 l 1215 1042 l 1345 1042 l 1345 507 q 1323 235 1345 340 q 1246 75 1301 131 q 1093 -1 1191 20 q 842 -22 994 -22 l 596 -22 m 956 1169 l 529 1443 l 609 1560 l 1000 1234 l 956 1169 z "},"Ű":{"ha":1438,"x_min":92,"x_max":1345,"o":"m 596 -22 q 345 -1 444 -22 q 192 75 247 20 q 114 235 136 131 q 92 507 92 340 l 92 1042 l 222 1042 l 222 507 q 231 316 222 392 q 261 195 239 240 q 325 127 283 149 q 433 98 367 104 q 596 91 500 91 l 842 91 q 1005 98 939 91 q 1113 127 1071 104 q 1177 195 1154 149 q 1207 316 1199 240 q 1215 507 1215 392 l 1215 1042 l 1345 1042 l 1345 507 q 1323 235 1345 340 q 1246 75 1301 131 q 1093 -1 1191 20 q 842 -22 994 -22 l 596 -22 m 905 1145 l 861 1210 l 1252 1535 l 1339 1405 l 905 1145 m 530 1145 l 486 1210 l 877 1535 l 964 1405 l 530 1145 z "},"Ȗ":{"ha":1438,"x_min":92,"x_max":1345,"o":"m 596 -22 q 345 -1 444 -22 q 192 75 247 20 q 114 235 136 131 q 92 507 92 340 l 92 1042 l 222 1042 l 222 507 q 231 316 222 392 q 261 195 239 240 q 325 127 283 149 q 433 98 367 104 q 596 91 500 91 l 842 91 q 1005 98 939 91 q 1113 127 1071 104 q 1177 195 1154 149 q 1207 316 1199 240 q 1215 507 1215 392 l 1215 1042 l 1345 1042 l 1345 507 q 1323 235 1345 340 q 1246 75 1301 131 q 1093 -1 1191 20 q 842 -22 994 -22 l 596 -22 m 719 1411 q 860 1389 802 1411 q 948 1308 918 1366 q 979 1147 979 1251 l 871 1147 q 827 1301 871 1275 q 719 1318 800 1318 q 614 1303 637 1318 q 567 1147 567 1275 l 458 1147 q 489 1308 458 1251 q 578 1389 520 1366 q 719 1411 637 1411 z "},"Ū":{"ha":1438,"x_min":92,"x_max":1345,"o":"m 596 -22 q 345 -1 444 -22 q 192 75 247 20 q 114 235 136 131 q 92 507 92 340 l 92 1042 l 222 1042 l 222 507 q 231 316 222 392 q 261 195 239 240 q 325 127 283 149 q 433 98 367 104 q 596 91 500 91 l 842 91 q 1005 98 939 91 q 1113 127 1071 104 q 1177 195 1154 149 q 1207 316 1199 240 q 1215 507 1215 392 l 1215 1042 l 1345 1042 l 1345 507 q 1323 235 1345 340 q 1246 75 1301 131 q 1093 -1 1191 20 q 842 -22 994 -22 l 596 -22 m 458 1145 l 458 1254 l 979 1254 l 979 1145 l 458 1145 z "},"Ų":{"ha":1438,"x_min":92,"x_max":1345,"o":"m 596 -22 q 345 -1 444 -22 q 192 75 247 20 q 114 235 136 131 q 92 507 92 340 l 92 1042 l 222 1042 l 222 507 q 231 316 222 392 q 261 195 239 240 q 325 127 283 149 q 433 98 367 104 q 596 91 500 91 l 842 91 q 1005 98 939 91 q 1113 127 1071 104 q 1177 195 1154 149 q 1207 316 1199 240 q 1215 507 1215 392 l 1215 1042 l 1345 1042 l 1345 507 q 1323 235 1345 340 q 1246 75 1301 131 q 1093 -1 1191 20 q 842 -22 994 -22 l 596 -22 m 760 -376 q 522 -285 585 -376 q 500 -215 500 -251 q 507 -157 500 -179 q 527 -114 514 -135 q 673 14 573 -41 l 760 14 q 630 -181 630 -72 q 666 -251 630 -235 q 760 -268 703 -268 l 760 -376 z "},"Ů":{"ha":1438,"x_min":92,"x_max":1345,"o":"m 596 -22 q 345 -1 444 -22 q 192 75 247 20 q 114 235 136 131 q 92 507 92 340 l 92 1042 l 222 1042 l 222 507 q 231 316 222 392 q 261 195 239 240 q 325 127 283 149 q 433 98 367 104 q 596 91 500 91 l 842 91 q 1005 98 939 91 q 1113 127 1071 104 q 1177 195 1154 149 q 1207 316 1199 240 q 1215 507 1215 392 l 1215 1042 l 1345 1042 l 1345 507 q 1323 235 1345 340 q 1246 75 1301 131 q 1093 -1 1191 20 q 842 -22 994 -22 l 596 -22 m 719 1169 q 543 1227 606 1169 q 480 1386 480 1286 q 546 1547 480 1491 q 719 1603 612 1603 q 895 1545 831 1603 q 958 1386 958 1487 q 891 1225 958 1282 q 719 1169 825 1169 m 719 1256 q 830 1303 793 1256 q 849 1386 849 1327 q 818 1484 849 1451 q 719 1516 787 1516 q 608 1469 645 1516 q 589 1386 589 1445 q 620 1289 589 1321 q 719 1256 651 1256 z "},"Ũ":{"ha":1438,"x_min":92,"x_max":1345,"o":"m 596 -22 q 345 -1 444 -22 q 192 75 247 20 q 114 235 136 131 q 92 507 92 340 l 92 1042 l 222 1042 l 222 507 q 231 316 222 392 q 261 195 239 240 q 325 127 283 149 q 433 98 367 104 q 596 91 500 91 l 842 91 q 1005 98 939 91 q 1113 127 1071 104 q 1177 195 1154 149 q 1207 316 1199 240 q 1215 507 1215 392 l 1215 1042 l 1345 1042 l 1345 507 q 1323 235 1345 340 q 1246 75 1301 131 q 1093 -1 1191 20 q 842 -22 994 -22 l 596 -22 m 415 1171 q 465 1300 415 1255 q 589 1345 515 1345 q 737 1312 659 1345 q 786 1291 760 1302 q 840 1279 812 1279 q 882 1292 872 1279 q 892 1344 892 1304 l 1023 1344 q 960 1207 1023 1254 q 849 1171 911 1171 q 701 1203 778 1171 q 652 1224 678 1213 q 598 1236 625 1236 q 554 1223 564 1236 q 545 1171 545 1211 l 415 1171 z "},"V":{"ha":1389,"x_min":46,"x_max":1341,"o":"m 608 0 l 46 1042 l 195 1042 l 694 92 l 1194 1042 l 1341 1042 l 781 0 l 608 0 z "},"W":{"ha":2257,"x_min":52,"x_max":2205,"o":"m 564 0 l 52 1042 l 202 1042 l 651 111 l 1074 1042 l 1226 1042 l 1649 111 l 2055 1042 l 2205 1042 l 1736 0 l 1563 0 l 1150 911 l 738 0 l 564 0 z "},"Ẃ":{"ha":2257,"x_min":52,"x_max":2205,"o":"m 564 0 l 52 1042 l 202 1042 l 651 111 l 1074 1042 l 1226 1042 l 1649 111 l 2055 1042 l 2205 1042 l 1736 0 l 1563 0 l 1150 911 l 738 0 l 564 0 m 977 1171 l 933 1236 l 1324 1561 l 1404 1444 l 977 1171 z "},"Ŵ":{"ha":2257,"x_min":52,"x_max":2205,"o":"m 564 0 l 52 1042 l 202 1042 l 651 111 l 1074 1042 l 1226 1042 l 1649 111 l 2055 1042 l 2205 1042 l 1736 0 l 1563 0 l 1150 911 l 738 0 l 564 0 m 933 1149 l 846 1214 l 1063 1539 l 1194 1539 l 1411 1214 l 1324 1149 l 1128 1453 l 933 1149 z "},"Ẅ":{"ha":2257,"x_min":52,"x_max":2205,"o":"m 564 0 l 52 1042 l 202 1042 l 651 111 l 1074 1042 l 1226 1042 l 1649 111 l 2055 1042 l 2205 1042 l 1736 0 l 1563 0 l 1150 911 l 738 0 l 564 0 m 1303 1172 l 1303 1302 l 1434 1302 l 1434 1172 l 1303 1172 m 823 1172 l 823 1302 l 954 1302 l 954 1172 l 823 1172 z "},"Ẁ":{"ha":2257,"x_min":52,"x_max":2205,"o":"m 564 0 l 52 1042 l 202 1042 l 651 111 l 1074 1042 l 1226 1042 l 1649 111 l 2055 1042 l 2205 1042 l 1736 0 l 1563 0 l 1150 911 l 738 0 l 564 0 m 1366 1169 l 939 1443 l 1019 1560 l 1409 1234 l 1366 1169 z "},"X":{"ha":1476,"x_min":43,"x_max":1432,"o":"m 43 0 l 635 549 l 87 1042 l 271 1042 l 726 633 l 1166 1042 l 1350 1042 l 820 549 l 1432 0 l 1248 0 l 729 465 l 228 0 l 43 0 z "},"Y":{"ha":1476,"x_min":87,"x_max":1389,"o":"m 673 0 l 673 434 l 87 1042 l 260 1042 l 738 532 l 1215 1042 l 1389 1042 l 803 434 l 803 0 l 673 0 z "},"Ý":{"ha":1476,"x_min":87,"x_max":1389,"o":"m 673 0 l 673 434 l 87 1042 l 260 1042 l 738 532 l 1215 1042 l 1389 1042 l 803 434 l 803 0 l 673 0 m 586 1171 l 543 1236 l 933 1561 l 1013 1444 l 586 1171 z "},"Ŷ":{"ha":1476,"x_min":87,"x_max":1389,"o":"m 673 0 l 673 434 l 87 1042 l 260 1042 l 738 532 l 1215 1042 l 1389 1042 l 803 434 l 803 0 l 673 0 m 543 1149 l 456 1214 l 673 1539 l 803 1539 l 1020 1214 l 933 1149 l 738 1453 l 543 1149 z "},"Ÿ":{"ha":1476,"x_min":87,"x_max":1389,"o":"m 673 0 l 673 434 l 87 1042 l 260 1042 l 738 532 l 1215 1042 l 1389 1042 l 803 434 l 803 0 l 673 0 m 913 1172 l 913 1302 l 1043 1302 l 1043 1172 l 913 1172 m 433 1172 l 433 1302 l 563 1302 l 563 1172 l 433 1172 z "},"Ỳ":{"ha":1476,"x_min":87,"x_max":1389,"o":"m 673 0 l 673 434 l 87 1042 l 260 1042 l 738 532 l 1215 1042 l 1389 1042 l 803 434 l 803 0 l 673 0 m 975 1169 l 548 1443 l 628 1560 l 1019 1234 l 975 1169 z "},"Ȳ":{"ha":1476,"x_min":87,"x_max":1389,"o":"m 673 0 l 673 434 l 87 1042 l 260 1042 l 738 532 l 1215 1042 l 1389 1042 l 803 434 l 803 0 l 673 0 m 477 1145 l 477 1254 l 998 1254 l 998 1145 l 477 1145 z "},"Ỹ":{"ha":1476,"x_min":87,"x_max":1389,"o":"m 673 0 l 673 434 l 87 1042 l 260 1042 l 738 532 l 1215 1042 l 1389 1042 l 803 434 l 803 0 l 673 0 m 434 1171 q 484 1300 434 1255 q 608 1345 534 1345 q 756 1312 678 1345 q 805 1291 779 1302 q 859 1279 831 1279 q 901 1292 891 1279 q 911 1344 911 1304 l 1042 1344 q 979 1207 1042 1254 q 868 1171 930 1171 q 720 1203 797 1171 q 671 1224 697 1213 q 617 1236 644 1236 q 573 1223 583 1236 q 564 1171 564 1211 l 434 1171 z "},"Z":{"ha":1388,"x_min":87,"x_max":1302,"o":"m 87 0 l 87 109 l 1095 933 l 130 933 l 130 1042 l 1280 1042 l 1280 933 l 267 109 l 1302 109 l 1302 0 l 87 0 z "},"Ź":{"ha":1388,"x_min":87,"x_max":1302,"o":"m 87 0 l 87 109 l 1095 933 l 130 933 l 130 1042 l 1280 1042 l 1280 933 l 267 109 l 1302 109 l 1302 0 l 87 0 m 542 1171 l 498 1236 l 889 1561 l 969 1444 l 542 1171 z "},"Ž":{"ha":1388,"x_min":87,"x_max":1302,"o":"m 87 0 l 87 109 l 1095 933 l 130 933 l 130 1042 l 1280 1042 l 1280 933 l 267 109 l 1302 109 l 1302 0 l 87 0 m 629 1153 l 412 1478 l 498 1544 l 694 1240 l 889 1544 l 976 1478 l 759 1153 l 629 1153 z "},"Ż":{"ha":1388,"x_min":87,"x_max":1302,"o":"m 87 0 l 87 109 l 1095 933 l 130 933 l 130 1042 l 1280 1042 l 1280 933 l 267 109 l 1302 109 l 1302 0 l 87 0 m 629 1172 l 629 1302 l 759 1302 l 759 1172 l 629 1172 z "},"a":{"ha":1058,"x_min":87,"x_max":974,"o":"m 499 -15 q 268 0 359 -15 q 132 64 176 14 q 87 218 87 113 q 129 374 87 324 q 261 439 171 424 q 499 454 352 454 q 699 448 618 454 q 844 429 780 443 q 831 571 842 519 q 791 648 821 623 q 704 681 761 673 q 551 688 646 688 q 381 683 443 688 q 292 666 320 678 q 257 631 264 654 q 250 571 250 608 l 120 571 q 140 689 120 644 q 208 757 160 734 q 340 788 256 780 q 551 796 424 796 q 772 779 688 796 q 900 715 856 761 q 959 587 943 669 q 974 376 974 505 l 974 0 l 844 0 l 844 54 q 780 14 821 29 q 672 -8 739 -1 q 499 -15 604 -15 m 499 91 q 684 94 615 91 q 788 109 753 96 q 833 148 822 121 q 844 224 844 175 l 844 344 l 499 348 q 352 346 408 349 q 267 329 296 342 q 228 290 237 317 q 218 218 218 263 q 228 148 218 174 q 267 110 237 122 q 352 94 296 98 q 499 91 408 91 z "},"á":{"ha":1058,"x_min":87,"x_max":974,"o":"m 499 -15 q 268 0 359 -15 q 132 64 176 14 q 87 218 87 113 q 129 374 87 324 q 261 439 171 424 q 499 454 352 454 q 699 448 618 454 q 844 429 780 443 q 831 571 842 519 q 791 648 821 623 q 704 681 761 673 q 551 688 646 688 q 381 683 443 688 q 292 666 320 678 q 257 631 264 654 q 250 571 250 608 l 120 571 q 140 689 120 644 q 208 757 160 734 q 340 788 256 780 q 551 796 424 796 q 772 779 688 796 q 900 715 856 761 q 959 587 943 669 q 974 376 974 505 l 974 0 l 844 0 l 844 54 q 780 14 821 29 q 672 -8 739 -1 q 499 -15 604 -15 m 499 91 q 684 94 615 91 q 788 109 753 96 q 833 148 822 121 q 844 224 844 175 l 844 344 l 499 348 q 352 346 408 349 q 267 329 296 342 q 228 290 237 317 q 218 218 218 263 q 228 148 218 174 q 267 110 237 122 q 352 94 296 98 q 499 91 408 91 m 393 910 l 350 975 l 741 1301 l 821 1184 l 393 910 z "},"ă":{"ha":1058,"x_min":87,"x_max":974,"o":"m 499 -15 q 268 0 359 -15 q 132 64 176 14 q 87 218 87 113 q 129 374 87 324 q 261 439 171 424 q 499 454 352 454 q 699 448 618 454 q 844 429 780 443 q 831 571 842 519 q 791 648 821 623 q 704 681 761 673 q 551 688 646 688 q 381 683 443 688 q 292 666 320 678 q 257 631 264 654 q 250 571 250 608 l 120 571 q 140 689 120 644 q 208 757 160 734 q 340 788 256 780 q 551 796 424 796 q 772 779 688 796 q 900 715 856 761 q 959 587 943 669 q 974 376 974 505 l 974 0 l 844 0 l 844 54 q 780 14 821 29 q 672 -8 739 -1 q 499 -15 604 -15 m 499 91 q 684 94 615 91 q 788 109 753 96 q 833 148 822 121 q 844 224 844 175 l 844 344 l 499 348 q 352 346 408 349 q 267 329 296 342 q 228 290 237 317 q 218 218 218 263 q 228 148 218 174 q 267 110 237 122 q 352 94 296 98 q 499 91 408 91 m 545 886 q 405 909 463 886 q 316 990 347 932 q 285 1151 285 1047 l 393 1151 q 440 994 393 1023 q 545 980 464 980 q 654 996 627 980 q 697 1151 697 1023 l 806 1151 q 775 990 806 1047 q 686 909 744 932 q 545 886 628 886 z "},"ǎ":{"ha":1058,"x_min":87,"x_max":974,"o":"m 499 -15 q 268 0 359 -15 q 132 64 176 14 q 87 218 87 113 q 129 374 87 324 q 261 439 171 424 q 499 454 352 454 q 699 448 618 454 q 844 429 780 443 q 831 571 842 519 q 791 648 821 623 q 704 681 761 673 q 551 688 646 688 q 381 683 443 688 q 292 666 320 678 q 257 631 264 654 q 250 571 250 608 l 120 571 q 140 689 120 644 q 208 757 160 734 q 340 788 256 780 q 551 796 424 796 q 772 779 688 796 q 900 715 856 761 q 959 587 943 669 q 974 376 974 505 l 974 0 l 844 0 l 844 54 q 780 14 821 29 q 672 -8 739 -1 q 499 -15 604 -15 m 499 91 q 684 94 615 91 q 788 109 753 96 q 833 148 822 121 q 844 224 844 175 l 844 344 l 499 348 q 352 346 408 349 q 267 329 296 342 q 228 290 237 317 q 218 218 218 263 q 228 148 218 174 q 267 110 237 122 q 352 94 296 98 q 499 91 408 91 m 480 892 l 263 1218 l 350 1283 l 545 979 l 741 1283 l 827 1218 l 610 892 l 480 892 z "},"â":{"ha":1058,"x_min":87,"x_max":974,"o":"m 499 -15 q 268 0 359 -15 q 132 64 176 14 q 87 218 87 113 q 129 374 87 324 q 261 439 171 424 q 499 454 352 454 q 699 448 618 454 q 844 429 780 443 q 831 571 842 519 q 791 648 821 623 q 704 681 761 673 q 551 688 646 688 q 381 683 443 688 q 292 666 320 678 q 257 631 264 654 q 250 571 250 608 l 120 571 q 140 689 120 644 q 208 757 160 734 q 340 788 256 780 q 551 796 424 796 q 772 779 688 796 q 900 715 856 761 q 959 587 943 669 q 974 376 974 505 l 974 0 l 844 0 l 844 54 q 780 14 821 29 q 672 -8 739 -1 q 499 -15 604 -15 m 499 91 q 684 94 615 91 q 788 109 753 96 q 833 148 822 121 q 844 224 844 175 l 844 344 l 499 348 q 352 346 408 349 q 267 329 296 342 q 228 290 237 317 q 218 218 218 263 q 228 148 218 174 q 267 110 237 122 q 352 94 296 98 q 499 91 408 91 m 350 888 l 263 954 l 480 1279 l 610 1279 l 827 954 l 741 888 l 545 1192 l 350 888 z "},"ȁ":{"ha":1058,"x_min":87,"x_max":974,"o":"m 499 -15 q 268 0 359 -15 q 132 64 176 14 q 87 218 87 113 q 129 374 87 324 q 261 439 171 424 q 499 454 352 454 q 699 448 618 454 q 844 429 780 443 q 831 571 842 519 q 791 648 821 623 q 704 681 761 673 q 551 688 646 688 q 381 683 443 688 q 292 666 320 678 q 257 631 264 654 q 250 571 250 608 l 120 571 q 140 689 120 644 q 208 757 160 734 q 340 788 256 780 q 551 796 424 796 q 772 779 688 796 q 900 715 856 761 q 959 587 943 669 q 974 376 974 505 l 974 0 l 844 0 l 844 54 q 780 14 821 29 q 672 -8 739 -1 q 499 -15 604 -15 m 499 91 q 684 94 615 91 q 788 109 753 96 q 833 148 822 121 q 844 224 844 175 l 844 344 l 499 348 q 352 346 408 349 q 267 329 296 342 q 228 290 237 317 q 218 218 218 263 q 228 148 218 174 q 267 110 237 122 q 352 94 296 98 q 499 91 408 91 z "},"ä":{"ha":1058,"x_min":87,"x_max":974,"o":"m 499 -15 q 268 0 359 -15 q 132 64 176 14 q 87 218 87 113 q 129 374 87 324 q 261 439 171 424 q 499 454 352 454 q 699 448 618 454 q 844 429 780 443 q 831 571 842 519 q 791 648 821 623 q 704 681 761 673 q 551 688 646 688 q 381 683 443 688 q 292 666 320 678 q 257 631 264 654 q 250 571 250 608 l 120 571 q 140 689 120 644 q 208 757 160 734 q 340 788 256 780 q 551 796 424 796 q 772 779 688 796 q 900 715 856 761 q 959 587 943 669 q 974 376 974 505 l 974 0 l 844 0 l 844 54 q 780 14 821 29 q 672 -8 739 -1 q 499 -15 604 -15 m 499 91 q 684 94 615 91 q 788 109 753 96 q 833 148 822 121 q 844 224 844 175 l 844 344 l 499 348 q 352 346 408 349 q 267 329 296 342 q 228 290 237 317 q 218 218 218 263 q 228 148 218 174 q 267 110 237 122 q 352 94 296 98 q 499 91 408 91 m 720 911 l 720 1042 l 850 1042 l 850 911 l 720 911 m 240 911 l 240 1042 l 370 1042 l 370 911 l 240 911 z "},"ȧ":{"ha":1058,"x_min":87,"x_max":974,"o":"m 499 -15 q 268 0 359 -15 q 132 64 176 14 q 87 218 87 113 q 129 374 87 324 q 261 439 171 424 q 499 454 352 454 q 699 448 618 454 q 844 429 780 443 q 831 571 842 519 q 791 648 821 623 q 704 681 761 673 q 551 688 646 688 q 381 683 443 688 q 292 666 320 678 q 257 631 264 654 q 250 571 250 608 l 120 571 q 140 689 120 644 q 208 757 160 734 q 340 788 256 780 q 551 796 424 796 q 772 779 688 796 q 900 715 856 761 q 959 587 943 669 q 974 376 974 505 l 974 0 l 844 0 l 844 54 q 780 14 821 29 q 672 -8 739 -1 q 499 -15 604 -15 m 499 91 q 684 94 615 91 q 788 109 753 96 q 833 148 822 121 q 844 224 844 175 l 844 344 l 499 348 q 352 346 408 349 q 267 329 296 342 q 228 290 237 317 q 218 218 218 263 q 228 148 218 174 q 267 110 237 122 q 352 94 296 98 q 499 91 408 91 m 480 911 l 480 1042 l 610 1042 l 610 911 l 480 911 z "},"à":{"ha":1058,"x_min":87,"x_max":974,"o":"m 499 -15 q 268 0 359 -15 q 132 64 176 14 q 87 218 87 113 q 129 374 87 324 q 261 439 171 424 q 499 454 352 454 q 699 448 618 454 q 844 429 780 443 q 831 571 842 519 q 791 648 821 623 q 704 681 761 673 q 551 688 646 688 q 381 683 443 688 q 292 666 320 678 q 257 631 264 654 q 250 571 250 608 l 120 571 q 140 689 120 644 q 208 757 160 734 q 340 788 256 780 q 551 796 424 796 q 772 779 688 796 q 900 715 856 761 q 959 587 943 669 q 974 376 974 505 l 974 0 l 844 0 l 844 54 q 780 14 821 29 q 672 -8 739 -1 q 499 -15 604 -15 m 499 91 q 684 94 615 91 q 788 109 753 96 q 833 148 822 121 q 844 224 844 175 l 844 344 l 499 348 q 352 346 408 349 q 267 329 296 342 q 228 290 237 317 q 218 218 218 263 q 228 148 218 174 q 267 110 237 122 q 352 94 296 98 q 499 91 408 91 m 783 909 l 355 1183 l 435 1299 l 826 974 l 783 909 z "},"ȃ":{"ha":1058,"x_min":87,"x_max":974,"o":"m 499 -15 q 268 0 359 -15 q 132 64 176 14 q 87 218 87 113 q 129 374 87 324 q 261 439 171 424 q 499 454 352 454 q 699 448 618 454 q 844 429 780 443 q 831 571 842 519 q 791 648 821 623 q 704 681 761 673 q 551 688 646 688 q 381 683 443 688 q 292 666 320 678 q 257 631 264 654 q 250 571 250 608 l 120 571 q 140 689 120 644 q 208 757 160 734 q 340 788 256 780 q 551 796 424 796 q 772 779 688 796 q 900 715 856 761 q 959 587 943 669 q 974 376 974 505 l 974 0 l 844 0 l 844 54 q 780 14 821 29 q 672 -8 739 -1 q 499 -15 604 -15 m 499 91 q 684 94 615 91 q 788 109 753 96 q 833 148 822 121 q 844 224 844 175 l 844 344 l 499 348 q 352 346 408 349 q 267 329 296 342 q 228 290 237 317 q 218 218 218 263 q 228 148 218 174 q 267 110 237 122 q 352 94 296 98 q 499 91 408 91 m 545 1151 q 686 1128 628 1151 q 775 1048 744 1105 q 806 886 806 990 l 697 886 q 654 1041 697 1015 q 545 1057 627 1057 q 440 1043 464 1057 q 393 886 393 1015 l 285 886 q 316 1048 285 990 q 405 1128 347 1105 q 545 1151 463 1151 z "},"ā":{"ha":1058,"x_min":87,"x_max":974,"o":"m 499 -15 q 268 0 359 -15 q 132 64 176 14 q 87 218 87 113 q 129 374 87 324 q 261 439 171 424 q 499 454 352 454 q 699 448 618 454 q 844 429 780 443 q 831 571 842 519 q 791 648 821 623 q 704 681 761 673 q 551 688 646 688 q 381 683 443 688 q 292 666 320 678 q 257 631 264 654 q 250 571 250 608 l 120 571 q 140 689 120 644 q 208 757 160 734 q 340 788 256 780 q 551 796 424 796 q 772 779 688 796 q 900 715 856 761 q 959 587 943 669 q 974 376 974 505 l 974 0 l 844 0 l 844 54 q 780 14 821 29 q 672 -8 739 -1 q 499 -15 604 -15 m 499 91 q 684 94 615 91 q 788 109 753 96 q 833 148 822 121 q 844 224 844 175 l 844 344 l 499 348 q 352 346 408 349 q 267 329 296 342 q 228 290 237 317 q 218 218 218 263 q 228 148 218 174 q 267 110 237 122 q 352 94 296 98 q 499 91 408 91 m 285 885 l 285 994 l 806 994 l 806 885 l 285 885 z "},"ą":{"ha":1058,"x_min":87,"x_max":974,"o":"m 499 -15 q 268 0 359 -15 q 132 64 176 14 q 87 218 87 113 q 129 374 87 324 q 261 439 171 424 q 499 454 352 454 q 699 448 618 454 q 844 429 780 443 q 831 571 842 519 q 791 648 821 623 q 704 681 761 673 q 551 688 646 688 q 381 683 443 688 q 292 666 320 678 q 257 631 264 654 q 250 571 250 608 l 120 571 q 140 689 120 644 q 208 757 160 734 q 340 788 256 780 q 551 796 424 796 q 772 779 688 796 q 900 715 856 761 q 959 587 943 669 q 974 376 974 505 l 974 0 l 844 0 l 844 54 q 780 14 821 29 q 672 -8 739 -1 q 499 -15 604 -15 m 499 91 q 684 94 615 91 q 788 109 753 96 q 833 148 822 121 q 844 224 844 175 l 844 344 l 499 348 q 352 346 408 349 q 267 329 296 342 q 228 290 237 317 q 218 218 218 263 q 228 148 218 174 q 267 110 237 122 q 352 94 296 98 q 499 91 408 91 m 958 -377 q 720 -286 783 -377 q 698 -216 698 -252 q 705 -158 698 -180 q 725 -115 712 -136 q 871 14 771 -41 l 958 14 q 828 -182 828 -73 q 864 -252 828 -235 q 958 -269 901 -269 l 958 -377 z "},"å":{"ha":1058,"x_min":87,"x_max":974,"o":"m 499 -15 q 268 0 359 -15 q 132 64 176 14 q 87 218 87 113 q 129 374 87 324 q 261 439 171 424 q 499 454 352 454 q 699 448 618 454 q 844 429 780 443 q 831 571 842 519 q 791 648 821 623 q 704 681 761 673 q 551 688 646 688 q 381 683 443 688 q 292 666 320 678 q 257 631 264 654 q 250 571 250 608 l 120 571 q 140 689 120 644 q 208 757 160 734 q 340 788 256 780 q 551 796 424 796 q 772 779 688 796 q 900 715 856 761 q 959 587 943 669 q 974 376 974 505 l 974 0 l 844 0 l 844 54 q 780 14 821 29 q 672 -8 739 -1 q 499 -15 604 -15 m 499 91 q 684 94 615 91 q 788 109 753 96 q 833 148 822 121 q 844 224 844 175 l 844 344 l 499 348 q 352 346 408 349 q 267 329 296 342 q 228 290 237 317 q 218 218 218 263 q 228 148 218 174 q 267 110 237 122 q 352 94 296 98 q 499 91 408 91 m 545 909 q 370 967 433 909 q 307 1126 307 1025 q 373 1286 307 1230 q 545 1343 439 1343 q 721 1284 658 1343 q 784 1126 784 1226 q 718 965 784 1021 q 545 909 652 909 m 545 996 q 656 1043 619 996 q 675 1126 675 1067 q 645 1223 675 1191 q 545 1256 614 1256 q 434 1208 471 1256 q 415 1126 415 1185 q 446 1028 415 1061 q 545 996 477 996 z "},"ǻ":{"ha":1058,"x_min":87,"x_max":974,"o":"m 499 -15 q 268 0 359 -15 q 132 64 176 14 q 87 218 87 113 q 129 374 87 324 q 261 439 171 424 q 499 454 352 454 q 699 448 618 454 q 844 429 780 443 q 831 571 842 519 q 791 648 821 623 q 704 681 761 673 q 551 688 646 688 q 381 683 443 688 q 292 666 320 678 q 257 631 264 654 q 250 571 250 608 l 120 571 q 140 689 120 644 q 208 757 160 734 q 340 788 256 780 q 551 796 424 796 q 772 779 688 796 q 900 715 856 761 q 959 587 943 669 q 974 376 974 505 l 974 0 l 844 0 l 844 54 q 780 14 821 29 q 672 -8 739 -1 q 499 -15 604 -15 m 499 91 q 684 94 615 91 q 788 109 753 96 q 833 148 822 121 q 844 224 844 175 l 844 344 l 499 348 q 352 346 408 349 q 267 329 296 342 q 228 290 237 317 q 218 218 218 263 q 228 148 218 174 q 267 110 237 122 q 352 94 296 98 q 499 91 408 91 m 545 909 q 370 967 433 909 q 307 1126 307 1025 q 373 1286 307 1230 q 545 1343 439 1343 q 721 1284 658 1343 q 784 1126 784 1226 q 718 965 784 1021 q 545 909 652 909 m 545 996 q 656 1043 619 996 q 675 1126 675 1067 q 645 1223 675 1191 q 545 1256 614 1256 q 434 1208 471 1256 q 415 1126 415 1185 q 446 1028 415 1061 q 545 996 477 996 m 393 1411 l 350 1476 l 741 1801 l 821 1685 l 393 1411 z "},"ã":{"ha":1058,"x_min":87,"x_max":974,"o":"m 499 -15 q 268 0 359 -15 q 132 64 176 14 q 87 218 87 113 q 129 374 87 324 q 261 439 171 424 q 499 454 352 454 q 699 448 618 454 q 844 429 780 443 q 831 571 842 519 q 791 648 821 623 q 704 681 761 673 q 551 688 646 688 q 381 683 443 688 q 292 666 320 678 q 257 631 264 654 q 250 571 250 608 l 120 571 q 140 689 120 644 q 208 757 160 734 q 340 788 256 780 q 551 796 424 796 q 772 779 688 796 q 900 715 856 761 q 959 587 943 669 q 974 376 974 505 l 974 0 l 844 0 l 844 54 q 780 14 821 29 q 672 -8 739 -1 q 499 -15 604 -15 m 499 91 q 684 94 615 91 q 788 109 753 96 q 833 148 822 121 q 844 224 844 175 l 844 344 l 499 348 q 352 346 408 349 q 267 329 296 342 q 228 290 237 317 q 218 218 218 263 q 228 148 218 174 q 267 110 237 122 q 352 94 296 98 q 499 91 408 91 m 241 910 q 291 1039 241 994 q 415 1084 341 1084 q 564 1051 486 1084 q 612 1030 586 1042 q 666 1019 639 1019 q 709 1031 699 1019 q 719 1084 719 1044 l 849 1084 q 787 947 849 994 q 675 910 738 910 q 527 943 604 910 q 478 964 505 952 q 425 975 452 975 q 381 963 390 975 q 372 910 372 950 l 241 910 z "},"æ":{"ha":1866,"x_min":87,"x_max":1780,"o":"m 517 -24 q 363 -16 439 -24 q 225 17 288 -7 q 124 87 162 41 q 87 210 87 134 q 206 432 87 381 q 368 466 277 463 q 517 470 457 470 q 656 463 584 470 q 787 438 728 456 q 868 388 845 420 q 846 577 868 505 q 746 673 825 650 q 585 689 696 689 q 489 688 531 689 q 417 684 447 686 q 304 650 347 677 q 260 547 260 624 l 130 547 q 225 741 130 686 q 566 798 323 798 q 782 774 719 798 q 876 722 841 752 q 937 638 910 692 q 1074 765 979 732 q 1305 798 1169 798 q 1507 785 1440 798 q 1714 672 1649 758 q 1780 411 1780 587 l 1769 366 l 998 366 l 998 347 q 1016 211 1000 267 q 1078 127 1033 155 q 1194 92 1126 98 q 1343 87 1262 87 q 1427 88 1389 87 q 1493 92 1464 90 q 1607 126 1564 99 q 1649 229 1649 153 l 1780 229 q 1685 35 1780 92 q 1367 -22 1586 -22 q 1188 -13 1271 -22 q 1041 23 1105 -4 q 937 104 977 50 q 667 -18 869 10 q 603 -23 640 -21 q 517 -24 565 -24 m 998 456 l 1649 456 q 1632 571 1649 523 q 1579 644 1614 619 q 1337 689 1514 689 q 1198 683 1264 689 q 1085 654 1133 677 q 1016 578 1037 631 q 998 456 998 533 m 552 87 q 694 92 634 87 q 803 121 753 97 q 852 165 836 137 q 868 229 868 193 q 793 326 868 298 q 522 354 716 354 q 281 338 326 354 q 230 301 243 323 q 217 229 217 279 q 230 154 217 182 q 277 113 243 126 q 382 92 311 98 q 460 88 417 90 q 552 87 503 87 z "},"ǽ":{"ha":1866,"x_min":87,"x_max":1780,"o":"m 517 -24 q 363 -16 439 -24 q 225 17 288 -7 q 124 87 162 41 q 87 210 87 134 q 206 432 87 381 q 368 466 277 463 q 517 470 457 470 q 656 463 584 470 q 787 438 728 456 q 868 388 845 420 q 846 577 868 505 q 746 673 825 650 q 585 689 696 689 q 489 688 531 689 q 417 684 447 686 q 304 650 347 677 q 260 547 260 624 l 130 547 q 225 741 130 686 q 566 798 323 798 q 782 774 719 798 q 876 722 841 752 q 937 638 910 692 q 1074 765 979 732 q 1305 798 1169 798 q 1507 785 1440 798 q 1714 672 1649 758 q 1780 411 1780 587 l 1769 366 l 998 366 l 998 347 q 1016 211 1000 267 q 1078 127 1033 155 q 1194 92 1126 98 q 1343 87 1262 87 q 1427 88 1389 87 q 1493 92 1464 90 q 1607 126 1564 99 q 1649 229 1649 153 l 1780 229 q 1685 35 1780 92 q 1367 -22 1586 -22 q 1188 -13 1271 -22 q 1041 23 1105 -4 q 937 104 977 50 q 667 -18 869 10 q 603 -23 640 -21 q 517 -24 565 -24 m 998 456 l 1649 456 q 1632 571 1649 523 q 1579 644 1614 619 q 1337 689 1514 689 q 1198 683 1264 689 q 1085 654 1133 677 q 1016 578 1037 631 q 998 456 998 533 m 552 87 q 694 92 634 87 q 803 121 753 97 q 852 165 836 137 q 868 229 868 193 q 793 326 868 298 q 522 354 716 354 q 281 338 326 354 q 230 301 243 323 q 217 229 217 279 q 230 154 217 182 q 277 113 243 126 q 382 92 311 98 q 460 88 417 90 q 552 87 503 87 m 788 910 l 745 975 l 1135 1301 l 1215 1184 l 788 910 z "},"ǣ":{"ha":1866,"x_min":87,"x_max":1780,"o":"m 517 -24 q 363 -16 439 -24 q 225 17 288 -7 q 124 87 162 41 q 87 210 87 134 q 206 432 87 381 q 368 466 277 463 q 517 470 457 470 q 656 463 584 470 q 787 438 728 456 q 868 388 845 420 q 846 577 868 505 q 746 673 825 650 q 585 689 696 689 q 489 688 531 689 q 417 684 447 686 q 304 650 347 677 q 260 547 260 624 l 130 547 q 225 741 130 686 q 566 798 323 798 q 782 774 719 798 q 876 722 841 752 q 937 638 910 692 q 1074 765 979 732 q 1305 798 1169 798 q 1507 785 1440 798 q 1714 672 1649 758 q 1780 411 1780 587 l 1769 366 l 998 366 l 998 347 q 1016 211 1000 267 q 1078 127 1033 155 q 1194 92 1126 98 q 1343 87 1262 87 q 1427 88 1389 87 q 1493 92 1464 90 q 1607 126 1564 99 q 1649 229 1649 153 l 1780 229 q 1685 35 1780 92 q 1367 -22 1586 -22 q 1188 -13 1271 -22 q 1041 23 1105 -4 q 937 104 977 50 q 667 -18 869 10 q 603 -23 640 -21 q 517 -24 565 -24 m 998 456 l 1649 456 q 1632 571 1649 523 q 1579 644 1614 619 q 1337 689 1514 689 q 1198 683 1264 689 q 1085 654 1133 677 q 1016 578 1037 631 q 998 456 998 533 m 552 87 q 694 92 634 87 q 803 121 753 97 q 852 165 836 137 q 868 229 868 193 q 793 326 868 298 q 522 354 716 354 q 281 338 326 354 q 230 301 243 323 q 217 229 217 279 q 230 154 217 182 q 277 113 243 126 q 382 92 311 98 q 460 88 417 90 q 552 87 503 87 m 680 885 l 680 994 l 1200 994 l 1200 885 l 680 885 z "},"b":{"ha":1111,"x_min":90,"x_max":1046,"o":"m 568 -15 q 356 4 442 -15 q 220 90 269 23 l 220 0 l 90 0 l 90 1042 l 220 1042 l 220 692 q 356 777 269 758 q 568 796 442 796 q 790 783 699 796 q 938 728 882 769 q 1020 608 994 688 q 1046 395 1046 528 q 1020 176 1046 258 q 938 53 994 94 q 790 -2 882 12 q 568 -15 699 -15 m 916 395 q 906 550 916 492 q 863 638 896 608 q 759 677 829 667 q 568 688 689 688 q 389 677 457 688 q 283 638 320 667 q 233 550 247 608 q 220 395 220 492 q 233 234 220 294 q 283 143 247 174 q 389 103 320 113 q 568 94 457 94 q 759 103 689 94 q 863 143 829 113 q 906 234 896 174 q 916 395 916 294 z "},"ḃ":{"ha":1111,"x_min":90,"x_max":1046,"o":"m 568 -15 q 356 4 442 -15 q 220 90 269 23 l 220 0 l 90 0 l 90 1042 l 220 1042 l 220 692 q 356 777 269 758 q 568 796 442 796 q 790 783 699 796 q 938 728 882 769 q 1020 608 994 688 q 1046 395 1046 528 q 1020 176 1046 258 q 938 53 994 94 q 790 -2 882 12 q 568 -15 699 -15 m 916 395 q 906 550 916 492 q 863 638 896 608 q 759 677 829 667 q 568 688 689 688 q 389 677 457 688 q 283 638 320 667 q 233 550 247 608 q 220 395 220 492 q 233 234 220 294 q 283 143 247 174 q 389 103 320 113 q 568 94 457 94 q 759 103 689 94 q 863 143 829 113 q 906 234 896 174 q 916 395 916 294 m 500 1084 l 500 1215 l 631 1215 l 631 1084 l 500 1084 z "},"c":{"ha":1065,"x_min":65,"x_max":1000,"o":"m 543 -15 q 321 -2 412 -15 q 173 53 229 12 q 91 176 117 94 q 65 395 65 258 q 91 608 65 528 q 173 728 117 688 q 321 783 229 769 q 543 796 412 796 q 801 778 700 796 q 951 705 903 760 q 1000 535 1000 649 l 876 535 q 848 633 876 601 q 749 677 821 666 q 543 688 677 688 q 352 677 422 688 q 248 638 281 667 q 205 550 215 608 q 195 395 195 492 q 205 234 195 294 q 248 143 215 174 q 352 103 281 113 q 543 94 422 94 q 711 99 646 94 q 812 122 776 105 q 862 173 848 140 q 876 260 876 205 l 1000 260 q 973 115 1000 170 q 890 32 946 60 q 748 -5 835 4 q 543 -15 662 -15 z "},"ć":{"ha":1065,"x_min":65,"x_max":1000,"o":"m 543 -15 q 321 -2 412 -15 q 173 53 229 12 q 91 176 117 94 q 65 395 65 258 q 91 608 65 528 q 173 728 117 688 q 321 783 229 769 q 543 796 412 796 q 801 778 700 796 q 951 705 903 760 q 1000 535 1000 649 l 876 535 q 848 633 876 601 q 749 677 821 666 q 543 688 677 688 q 352 677 422 688 q 248 638 281 667 q 205 550 215 608 q 195 395 195 492 q 205 234 195 294 q 248 143 215 174 q 352 103 281 113 q 543 94 422 94 q 711 99 646 94 q 812 122 776 105 q 862 173 848 140 q 876 260 876 205 l 1000 260 q 973 115 1000 170 q 890 32 946 60 q 748 -5 835 4 q 543 -15 662 -15 m 381 910 l 338 975 l 728 1301 l 808 1184 l 381 910 z "},"č":{"ha":1065,"x_min":65,"x_max":1000,"o":"m 543 -15 q 321 -2 412 -15 q 173 53 229 12 q 91 176 117 94 q 65 395 65 258 q 91 608 65 528 q 173 728 117 688 q 321 783 229 769 q 543 796 412 796 q 801 778 700 796 q 951 705 903 760 q 1000 535 1000 649 l 876 535 q 848 633 876 601 q 749 677 821 666 q 543 688 677 688 q 352 677 422 688 q 248 638 281 667 q 205 550 215 608 q 195 395 195 492 q 205 234 195 294 q 248 143 215 174 q 352 103 281 113 q 543 94 422 94 q 711 99 646 94 q 812 122 776 105 q 862 173 848 140 q 876 260 876 205 l 1000 260 q 973 115 1000 170 q 890 32 946 60 q 748 -5 835 4 q 543 -15 662 -15 m 468 892 l 251 1218 l 338 1283 l 533 979 l 728 1283 l 815 1218 l 598 892 l 468 892 z "},"ç":{"ha":1065,"x_min":65,"x_max":1000,"o":"m 543 -15 q 321 -2 412 -15 q 173 53 229 12 q 91 176 117 94 q 65 395 65 258 q 91 608 65 528 q 173 728 117 688 q 321 783 229 769 q 543 796 412 796 q 801 778 700 796 q 951 705 903 760 q 1000 535 1000 649 l 876 535 q 848 633 876 601 q 749 677 821 666 q 543 688 677 688 q 352 677 422 688 q 248 638 281 667 q 205 550 215 608 q 195 395 195 492 q 205 234 195 294 q 248 143 215 174 q 352 103 281 113 q 543 94 422 94 q 711 99 646 94 q 812 122 776 105 q 862 173 848 140 q 876 260 876 205 l 1000 260 q 973 115 1000 170 q 890 32 946 60 q 748 -5 835 4 q 543 -15 662 -15 m 479 -369 l 479 -260 q 541 -257 511 -260 q 590 -241 570 -254 q 610 -203 610 -229 q 574 -162 610 -172 q 479 -152 538 -152 l 479 43 l 566 43 l 566 -87 q 696 -116 653 -87 q 740 -216 740 -146 q 707 -308 740 -275 q 615 -355 674 -342 q 479 -369 557 -369 z "},"ĉ":{"ha":1065,"x_min":65,"x_max":1000,"o":"m 543 -15 q 321 -2 412 -15 q 173 53 229 12 q 91 176 117 94 q 65 395 65 258 q 91 608 65 528 q 173 728 117 688 q 321 783 229 769 q 543 796 412 796 q 801 778 700 796 q 951 705 903 760 q 1000 535 1000 649 l 876 535 q 848 633 876 601 q 749 677 821 666 q 543 688 677 688 q 352 677 422 688 q 248 638 281 667 q 205 550 215 608 q 195 395 195 492 q 205 234 195 294 q 248 143 215 174 q 352 103 281 113 q 543 94 422 94 q 711 99 646 94 q 812 122 776 105 q 862 173 848 140 q 876 260 876 205 l 1000 260 q 973 115 1000 170 q 890 32 946 60 q 748 -5 835 4 q 543 -15 662 -15 m 338 888 l 251 954 l 468 1279 l 598 1279 l 815 954 l 728 888 l 533 1192 l 338 888 z "},"ċ":{"ha":1065,"x_min":65,"x_max":1000,"o":"m 543 -15 q 321 -2 412 -15 q 173 53 229 12 q 91 176 117 94 q 65 395 65 258 q 91 608 65 528 q 173 728 117 688 q 321 783 229 769 q 543 796 412 796 q 801 778 700 796 q 951 705 903 760 q 1000 535 1000 649 l 876 535 q 848 633 876 601 q 749 677 821 666 q 543 688 677 688 q 352 677 422 688 q 248 638 281 667 q 205 550 215 608 q 195 395 195 492 q 205 234 195 294 q 248 143 215 174 q 352 103 281 113 q 543 94 422 94 q 711 99 646 94 q 812 122 776 105 q 862 173 848 140 q 876 260 876 205 l 1000 260 q 973 115 1000 170 q 890 32 946 60 q 748 -5 835 4 q 543 -15 662 -15 m 468 911 l 468 1042 l 598 1042 l 598 911 l 468 911 z "},"d":{"ha":1111,"x_min":65,"x_max":1021,"o":"m 543 -15 q 321 -2 412 -15 q 173 53 229 12 q 91 176 117 94 q 65 395 65 258 q 91 608 65 528 q 173 728 117 688 q 321 783 229 769 q 543 796 412 796 q 755 777 669 796 q 891 692 842 758 l 891 1042 l 1021 1042 l 1021 0 l 891 0 l 891 90 q 755 4 842 23 q 543 -15 669 -15 m 891 395 q 878 550 891 492 q 827 638 864 608 q 722 677 791 667 q 543 688 654 688 q 352 677 422 688 q 248 638 281 667 q 205 550 215 608 q 195 395 195 492 q 205 234 195 294 q 248 143 215 174 q 352 103 281 113 q 543 94 422 94 q 722 103 654 94 q 827 143 791 113 q 878 234 864 174 q 891 395 891 294 z "},"ď":{"ha":1111,"x_min":65,"x_max":1318,"o":"m 543 -15 q 321 -2 412 -15 q 173 53 229 12 q 91 176 117 94 q 65 395 65 258 q 91 608 65 528 q 173 728 117 688 q 321 783 229 769 q 543 796 412 796 q 755 777 669 796 q 891 692 842 758 l 891 1042 l 1021 1042 l 1021 0 l 891 0 l 891 90 q 755 4 842 23 q 543 -15 669 -15 m 891 395 q 878 550 891 492 q 827 638 864 608 q 722 677 791 667 q 543 688 654 688 q 352 677 422 688 q 248 638 281 667 q 205 550 215 608 q 195 395 195 492 q 205 234 195 294 q 248 143 215 174 q 352 103 281 113 q 543 94 422 94 q 722 103 654 94 q 827 143 791 113 q 878 234 864 174 q 891 395 891 294 m 1144 781 l 1187 1042 l 1318 1042 l 1231 781 l 1144 781 z "},"đ":{"ha":1128,"x_min":87,"x_max":1128,"o":"m 564 -22 q 358 -6 450 -22 q 204 53 267 9 q 113 180 141 96 q 87 369 87 256 q 146 625 87 535 q 343 741 206 714 q 528 760 434 760 q 689 751 610 760 q 827 720 767 743 q 911 651 886 696 l 911 847 l 608 847 l 608 956 l 911 956 l 911 1042 l 1042 1042 l 1042 956 l 1128 956 l 1128 847 l 1042 847 l 1042 0 l 911 0 l 911 86 q 564 -22 852 -22 m 559 87 l 560 87 q 695 91 633 87 q 806 114 758 94 q 879 179 854 133 q 911 367 911 238 q 884 549 911 484 q 770 636 857 614 q 599 651 711 651 q 433 647 488 651 q 311 621 362 642 q 239 548 260 600 q 217 369 217 496 q 235 200 217 243 q 277 138 252 158 q 398 94 322 102 q 559 87 475 87 z "},"ḋ":{"ha":1111,"x_min":65,"x_max":1021,"o":"m 543 -15 q 321 -2 412 -15 q 173 53 229 12 q 91 176 117 94 q 65 395 65 258 q 91 608 65 528 q 173 728 117 688 q 321 783 229 769 q 543 796 412 796 q 755 777 669 796 q 891 692 842 758 l 891 1042 l 1021 1042 l 1021 0 l 891 0 l 891 90 q 755 4 842 23 q 543 -15 669 -15 m 891 395 q 878 550 891 492 q 827 638 864 608 q 722 677 791 667 q 543 688 654 688 q 352 677 422 688 q 248 638 281 667 q 205 550 215 608 q 195 395 195 492 q 205 234 195 294 q 248 143 215 174 q 352 103 281 113 q 543 94 422 94 q 722 103 654 94 q 827 143 791 113 q 878 234 864 174 q 891 395 891 294 m 456 1039 l 456 1169 l 586 1169 l 586 1039 l 456 1039 z "},"ǳ":{"ha":2109,"x_min":65,"x_max":2022,"o":"m 543 -15 q 321 -2 412 -15 q 173 53 229 12 q 91 176 117 94 q 65 395 65 258 q 91 608 65 528 q 173 728 117 688 q 321 783 229 769 q 543 796 412 796 q 755 777 669 796 q 891 692 842 758 l 891 1042 l 1021 1042 l 1021 0 l 891 0 l 891 90 q 755 4 842 23 q 543 -15 669 -15 m 891 395 q 878 550 891 492 q 827 638 864 608 q 722 677 791 667 q 543 688 654 688 q 352 677 422 688 q 248 638 281 667 q 205 550 215 608 q 195 395 195 492 q 205 234 195 294 q 248 143 215 174 q 352 103 281 113 q 543 94 422 94 q 722 103 654 94 q 827 143 791 113 q 878 234 864 174 q 891 395 891 294 m 1198 0 l 1198 109 l 1858 681 l 1241 681 l 1241 781 l 2022 781 l 2022 673 l 1372 102 l 2022 102 l 2022 0 l 1198 0 z "},"ǆ":{"ha":2109,"x_min":65,"x_max":2022,"o":"m 543 -15 q 321 -2 412 -15 q 173 53 229 12 q 91 176 117 94 q 65 395 65 258 q 91 608 65 528 q 173 728 117 688 q 321 783 229 769 q 543 796 412 796 q 755 777 669 796 q 891 692 842 758 l 891 1042 l 1021 1042 l 1021 0 l 891 0 l 891 90 q 755 4 842 23 q 543 -15 669 -15 m 891 395 q 878 550 891 492 q 827 638 864 608 q 722 677 791 667 q 543 688 654 688 q 352 677 422 688 q 248 638 281 667 q 205 550 215 608 q 195 395 195 492 q 205 234 195 294 q 248 143 215 174 q 352 103 281 113 q 543 94 422 94 q 722 103 654 94 q 827 143 791 113 q 878 234 864 174 q 891 395 891 294 m 1198 0 l 1198 109 l 1858 681 l 1241 681 l 1241 781 l 2022 781 l 2022 673 l 1372 102 l 2022 102 l 2022 0 l 1198 0 m 1545 892 l 1328 1218 l 1415 1283 l 1610 979 l 1805 1283 l 1892 1218 l 1675 892 l 1545 892 z "},"ð":{"ha":1345,"x_min":87,"x_max":1388,"o":"m 564 -22 q 179 60 284 -22 q 108 158 129 99 q 87 304 87 218 q 106 446 87 384 q 194 560 130 520 q 348 614 258 600 q 538 629 437 629 q 648 629 599 629 q 734 628 697 629 q 1128 564 1038 621 q 1106 770 1128 692 l 898 696 l 869 777 l 1071 850 q 1008 909 1044 890 q 916 941 973 928 q 694 955 854 955 q 384 928 488 955 q 304 898 334 916 q 254 848 269 877 q 239 760 239 820 l 131 760 q 171 925 131 865 q 293 1017 213 987 q 475 1055 373 1046 q 682 1063 576 1063 q 867 1053 791 1063 q 1179 889 1088 1024 l 1359 954 l 1388 872 l 1218 811 q 1259 521 1259 703 q 1258 433 1259 475 q 1256 353 1257 391 q 1222 158 1253 239 q 1118 37 1192 77 q 781 -22 1013 -22 l 564 -22 m 564 87 l 781 87 q 943 94 871 87 q 1062 136 1015 101 q 1116 220 1104 167 q 1128 349 1128 273 q 1094 463 1128 431 q 1026 497 1067 487 q 933 511 985 507 q 770 520 861 519 q 594 521 680 521 l 557 521 q 439 518 488 521 q 339 503 391 516 q 276 477 300 494 q 235 429 252 461 q 217 304 217 397 q 229 195 217 235 q 271 135 241 156 q 355 100 301 114 q 564 87 412 87 z "},"e":{"ha":1063,"x_min":65,"x_max":981,"o":"m 981 232 q 955 94 981 144 q 876 21 929 44 q 739 -8 822 -2 q 541 -15 656 -15 q 319 -2 410 -15 q 172 53 228 12 q 91 176 116 94 q 65 395 65 258 q 90 608 65 528 q 170 728 115 688 q 316 783 226 769 q 538 796 407 796 q 786 775 688 796 q 933 695 884 754 q 981 522 981 636 l 981 355 l 196 355 q 208 216 197 268 q 254 137 220 163 q 358 102 289 111 q 541 94 427 94 q 708 98 644 94 q 804 116 771 102 q 848 157 837 130 q 860 232 860 185 l 981 232 m 538 688 q 360 680 427 688 q 257 648 292 671 q 209 578 222 625 q 196 457 197 532 l 857 457 l 857 522 q 845 603 857 571 q 802 654 834 635 q 706 680 769 673 q 538 688 642 688 z "},"é":{"ha":1063,"x_min":65,"x_max":981,"o":"m 981 232 q 955 94 981 144 q 876 21 929 44 q 739 -8 822 -2 q 541 -15 656 -15 q 319 -2 410 -15 q 172 53 228 12 q 91 176 116 94 q 65 395 65 258 q 90 608 65 528 q 170 728 115 688 q 316 783 226 769 q 538 796 407 796 q 786 775 688 796 q 933 695 884 754 q 981 522 981 636 l 981 355 l 196 355 q 208 216 197 268 q 254 137 220 163 q 358 102 289 111 q 541 94 427 94 q 708 98 644 94 q 804 116 771 102 q 848 157 837 130 q 860 232 860 185 l 981 232 m 538 688 q 360 680 427 688 q 257 648 292 671 q 209 578 222 625 q 196 457 197 532 l 857 457 l 857 522 q 845 603 857 571 q 802 654 834 635 q 706 680 769 673 q 538 688 642 688 m 380 910 l 336 975 l 727 1301 l 807 1184 l 380 910 z "},"ĕ":{"ha":1063,"x_min":65,"x_max":981,"o":"m 981 232 q 955 94 981 144 q 876 21 929 44 q 739 -8 822 -2 q 541 -15 656 -15 q 319 -2 410 -15 q 172 53 228 12 q 91 176 116 94 q 65 395 65 258 q 90 608 65 528 q 170 728 115 688 q 316 783 226 769 q 538 796 407 796 q 786 775 688 796 q 933 695 884 754 q 981 522 981 636 l 981 355 l 196 355 q 208 216 197 268 q 254 137 220 163 q 358 102 289 111 q 541 94 427 94 q 708 98 644 94 q 804 116 771 102 q 848 157 837 130 q 860 232 860 185 l 981 232 m 538 688 q 360 680 427 688 q 257 648 292 671 q 209 578 222 625 q 196 457 197 532 l 857 457 l 857 522 q 845 603 857 571 q 802 654 834 635 q 706 680 769 673 q 538 688 642 688 m 532 886 q 391 909 450 886 q 302 990 333 932 q 271 1151 271 1047 l 380 1151 q 427 994 380 1023 q 532 980 450 980 q 640 996 613 980 q 684 1151 684 1023 l 792 1151 q 761 990 792 1047 q 672 909 730 932 q 532 886 614 886 z "},"ě":{"ha":1063,"x_min":65,"x_max":981,"o":"m 981 232 q 955 94 981 144 q 876 21 929 44 q 739 -8 822 -2 q 541 -15 656 -15 q 319 -2 410 -15 q 172 53 228 12 q 91 176 116 94 q 65 395 65 258 q 90 608 65 528 q 170 728 115 688 q 316 783 226 769 q 538 796 407 796 q 786 775 688 796 q 933 695 884 754 q 981 522 981 636 l 981 355 l 196 355 q 208 216 197 268 q 254 137 220 163 q 358 102 289 111 q 541 94 427 94 q 708 98 644 94 q 804 116 771 102 q 848 157 837 130 q 860 232 860 185 l 981 232 m 538 688 q 360 680 427 688 q 257 648 292 671 q 209 578 222 625 q 196 457 197 532 l 857 457 l 857 522 q 845 603 857 571 q 802 654 834 635 q 706 680 769 673 q 538 688 642 688 m 467 892 l 250 1218 l 336 1283 l 532 979 l 727 1283 l 814 1218 l 597 892 l 467 892 z "},"ȩ":{"ha":1063,"x_min":65,"x_max":981,"o":"m 981 232 q 955 94 981 144 q 876 21 929 44 q 739 -8 822 -2 q 541 -15 656 -15 q 319 -2 410 -15 q 172 53 228 12 q 91 176 116 94 q 65 395 65 258 q 90 608 65 528 q 170 728 115 688 q 316 783 226 769 q 538 796 407 796 q 786 775 688 796 q 933 695 884 754 q 981 522 981 636 l 981 355 l 196 355 q 208 216 197 268 q 254 137 220 163 q 358 102 289 111 q 541 94 427 94 q 708 98 644 94 q 804 116 771 102 q 848 157 837 130 q 860 232 860 185 l 981 232 m 538 688 q 360 680 427 688 q 257 648 292 671 q 209 578 222 625 q 196 457 197 532 l 857 457 l 857 522 q 845 603 857 571 q 802 654 834 635 q 706 680 769 673 q 538 688 642 688 m 478 -369 l 478 -260 q 539 -257 509 -260 q 589 -241 569 -254 q 608 -203 608 -229 q 572 -162 608 -172 q 478 -152 536 -152 l 478 43 l 565 43 l 565 -87 q 695 -116 652 -87 q 739 -216 739 -146 q 706 -308 739 -275 q 614 -355 673 -342 q 478 -369 555 -369 z "},"ê":{"ha":1063,"x_min":65,"x_max":981,"o":"m 981 232 q 955 94 981 144 q 876 21 929 44 q 739 -8 822 -2 q 541 -15 656 -15 q 319 -2 410 -15 q 172 53 228 12 q 91 176 116 94 q 65 395 65 258 q 90 608 65 528 q 170 728 115 688 q 316 783 226 769 q 538 796 407 796 q 786 775 688 796 q 933 695 884 754 q 981 522 981 636 l 981 355 l 196 355 q 208 216 197 268 q 254 137 220 163 q 358 102 289 111 q 541 94 427 94 q 708 98 644 94 q 804 116 771 102 q 848 157 837 130 q 860 232 860 185 l 981 232 m 538 688 q 360 680 427 688 q 257 648 292 671 q 209 578 222 625 q 196 457 197 532 l 857 457 l 857 522 q 845 603 857 571 q 802 654 834 635 q 706 680 769 673 q 538 688 642 688 m 336 888 l 250 954 l 467 1279 l 597 1279 l 814 954 l 727 888 l 532 1192 l 336 888 z "},"ȅ":{"ha":1063,"x_min":65,"x_max":981,"o":"m 981 232 q 955 94 981 144 q 876 21 929 44 q 739 -8 822 -2 q 541 -15 656 -15 q 319 -2 410 -15 q 172 53 228 12 q 91 176 116 94 q 65 395 65 258 q 90 608 65 528 q 170 728 115 688 q 316 783 226 769 q 538 796 407 796 q 786 775 688 796 q 933 695 884 754 q 981 522 981 636 l 981 355 l 196 355 q 208 216 197 268 q 254 137 220 163 q 358 102 289 111 q 541 94 427 94 q 708 98 644 94 q 804 116 771 102 q 848 157 837 130 q 860 232 860 185 l 981 232 m 538 688 q 360 680 427 688 q 257 648 292 671 q 209 578 222 625 q 196 457 197 532 l 857 457 l 857 522 q 845 603 857 571 q 802 654 834 635 q 706 680 769 673 q 538 688 642 688 z "},"ë":{"ha":1063,"x_min":65,"x_max":981,"o":"m 981 232 q 955 94 981 144 q 876 21 929 44 q 739 -8 822 -2 q 541 -15 656 -15 q 319 -2 410 -15 q 172 53 228 12 q 91 176 116 94 q 65 395 65 258 q 90 608 65 528 q 170 728 115 688 q 316 783 226 769 q 538 796 407 796 q 786 775 688 796 q 933 695 884 754 q 981 522 981 636 l 981 355 l 196 355 q 208 216 197 268 q 254 137 220 163 q 358 102 289 111 q 541 94 427 94 q 708 98 644 94 q 804 116 771 102 q 848 157 837 130 q 860 232 860 185 l 981 232 m 538 688 q 360 680 427 688 q 257 648 292 671 q 209 578 222 625 q 196 457 197 532 l 857 457 l 857 522 q 845 603 857 571 q 802 654 834 635 q 706 680 769 673 q 538 688 642 688 m 707 911 l 707 1042 l 837 1042 l 837 911 l 707 911 m 227 911 l 227 1042 l 357 1042 l 357 911 l 227 911 z "},"ė":{"ha":1063,"x_min":65,"x_max":981,"o":"m 981 232 q 955 94 981 144 q 876 21 929 44 q 739 -8 822 -2 q 541 -15 656 -15 q 319 -2 410 -15 q 172 53 228 12 q 91 176 116 94 q 65 395 65 258 q 90 608 65 528 q 170 728 115 688 q 316 783 226 769 q 538 796 407 796 q 786 775 688 796 q 933 695 884 754 q 981 522 981 636 l 981 355 l 196 355 q 208 216 197 268 q 254 137 220 163 q 358 102 289 111 q 541 94 427 94 q 708 98 644 94 q 804 116 771 102 q 848 157 837 130 q 860 232 860 185 l 981 232 m 538 688 q 360 680 427 688 q 257 648 292 671 q 209 578 222 625 q 196 457 197 532 l 857 457 l 857 522 q 845 603 857 571 q 802 654 834 635 q 706 680 769 673 q 538 688 642 688 m 467 911 l 467 1042 l 597 1042 l 597 911 l 467 911 z "},"è":{"ha":1063,"x_min":65,"x_max":981,"o":"m 981 232 q 955 94 981 144 q 876 21 929 44 q 739 -8 822 -2 q 541 -15 656 -15 q 319 -2 410 -15 q 172 53 228 12 q 91 176 116 94 q 65 395 65 258 q 90 608 65 528 q 170 728 115 688 q 316 783 226 769 q 538 796 407 796 q 786 775 688 796 q 933 695 884 754 q 981 522 981 636 l 981 355 l 196 355 q 208 216 197 268 q 254 137 220 163 q 358 102 289 111 q 541 94 427 94 q 708 98 644 94 q 804 116 771 102 q 848 157 837 130 q 860 232 860 185 l 981 232 m 538 688 q 360 680 427 688 q 257 648 292 671 q 209 578 222 625 q 196 457 197 532 l 857 457 l 857 522 q 845 603 857 571 q 802 654 834 635 q 706 680 769 673 q 538 688 642 688 m 769 909 l 342 1183 l 422 1299 l 812 974 l 769 909 z "},"ȇ":{"ha":1063,"x_min":65,"x_max":981,"o":"m 981 232 q 955 94 981 144 q 876 21 929 44 q 739 -8 822 -2 q 541 -15 656 -15 q 319 -2 410 -15 q 172 53 228 12 q 91 176 116 94 q 65 395 65 258 q 90 608 65 528 q 170 728 115 688 q 316 783 226 769 q 538 796 407 796 q 786 775 688 796 q 933 695 884 754 q 981 522 981 636 l 981 355 l 196 355 q 208 216 197 268 q 254 137 220 163 q 358 102 289 111 q 541 94 427 94 q 708 98 644 94 q 804 116 771 102 q 848 157 837 130 q 860 232 860 185 l 981 232 m 538 688 q 360 680 427 688 q 257 648 292 671 q 209 578 222 625 q 196 457 197 532 l 857 457 l 857 522 q 845 603 857 571 q 802 654 834 635 q 706 680 769 673 q 538 688 642 688 m 532 1151 q 672 1128 614 1151 q 761 1048 730 1105 q 792 886 792 990 l 684 886 q 640 1041 684 1015 q 532 1057 613 1057 q 427 1043 450 1057 q 380 886 380 1015 l 271 886 q 302 1048 271 990 q 391 1128 333 1105 q 532 1151 450 1151 z "},"ē":{"ha":1063,"x_min":65,"x_max":981,"o":"m 981 232 q 955 94 981 144 q 876 21 929 44 q 739 -8 822 -2 q 541 -15 656 -15 q 319 -2 410 -15 q 172 53 228 12 q 91 176 116 94 q 65 395 65 258 q 90 608 65 528 q 170 728 115 688 q 316 783 226 769 q 538 796 407 796 q 786 775 688 796 q 933 695 884 754 q 981 522 981 636 l 981 355 l 196 355 q 208 216 197 268 q 254 137 220 163 q 358 102 289 111 q 541 94 427 94 q 708 98 644 94 q 804 116 771 102 q 848 157 837 130 q 860 232 860 185 l 981 232 m 538 688 q 360 680 427 688 q 257 648 292 671 q 209 578 222 625 q 196 457 197 532 l 857 457 l 857 522 q 845 603 857 571 q 802 654 834 635 q 706 680 769 673 q 538 688 642 688 m 271 885 l 271 994 l 792 994 l 792 885 l 271 885 z "},"ę":{"ha":1063,"x_min":65,"x_max":981,"o":"m 981 232 q 955 94 981 144 q 876 21 929 44 q 739 -8 822 -2 q 541 -15 656 -15 q 319 -2 410 -15 q 172 53 228 12 q 91 176 116 94 q 65 395 65 258 q 90 608 65 528 q 170 728 115 688 q 316 783 226 769 q 538 796 407 796 q 786 775 688 796 q 933 695 884 754 q 981 522 981 636 l 981 355 l 196 355 q 208 216 197 268 q 254 137 220 163 q 358 102 289 111 q 541 94 427 94 q 708 98 644 94 q 804 116 771 102 q 848 157 837 130 q 860 232 860 185 l 981 232 m 538 688 q 360 680 427 688 q 257 648 292 671 q 209 578 222 625 q 196 457 197 532 l 857 457 l 857 522 q 845 603 857 571 q 802 654 834 635 q 706 680 769 673 q 538 688 642 688 m 721 -377 q 483 -286 545 -377 q 460 -216 460 -252 q 468 -158 460 -180 q 488 -115 475 -136 q 634 14 534 -41 l 721 14 q 591 -182 591 -73 q 627 -252 591 -235 q 721 -269 663 -269 l 721 -377 z "},"ẽ":{"ha":1063,"x_min":65,"x_max":981,"o":"m 981 232 q 955 94 981 144 q 876 21 929 44 q 739 -8 822 -2 q 541 -15 656 -15 q 319 -2 410 -15 q 172 53 228 12 q 91 176 116 94 q 65 395 65 258 q 90 608 65 528 q 170 728 115 688 q 316 783 226 769 q 538 796 407 796 q 786 775 688 796 q 933 695 884 754 q 981 522 981 636 l 981 355 l 196 355 q 208 216 197 268 q 254 137 220 163 q 358 102 289 111 q 541 94 427 94 q 708 98 644 94 q 804 116 771 102 q 848 157 837 130 q 860 232 860 185 l 981 232 m 538 688 q 360 680 427 688 q 257 648 292 671 q 209 578 222 625 q 196 457 197 532 l 857 457 l 857 522 q 845 603 857 571 q 802 654 834 635 q 706 680 769 673 q 538 688 642 688 m 228 910 q 278 1039 228 994 q 401 1084 328 1084 q 550 1051 472 1084 q 599 1030 572 1042 q 652 1019 625 1019 q 695 1031 685 1019 q 705 1084 705 1044 l 836 1084 q 773 947 836 994 q 662 910 724 910 q 513 943 591 910 q 465 964 491 952 q 411 975 438 975 q 367 963 376 975 q 358 910 358 950 l 228 910 z "},"f":{"ha":716,"x_min":87,"x_max":716,"o":"m 217 0 l 217 682 l 87 682 l 87 781 l 217 781 l 217 815 q 253 986 217 926 q 367 1068 290 1046 q 565 1090 444 1090 l 716 1090 l 716 985 l 564 985 q 421 972 467 985 q 361 924 375 960 q 347 815 347 888 l 347 781 l 716 781 l 716 682 l 347 682 l 347 0 l 217 0 z "},"ḟ":{"ha":716,"x_min":87,"x_max":716,"o":"m 217 0 l 217 682 l 87 682 l 87 781 l 217 781 l 217 815 q 253 986 217 926 q 367 1068 290 1046 q 565 1090 444 1090 l 716 1090 l 716 985 l 564 985 q 421 972 467 985 q 361 924 375 960 q 347 815 347 888 l 347 781 l 716 781 l 716 682 l 347 682 l 347 0 l 217 0 m 418 1126 l 418 1256 l 549 1256 l 549 1126 l 418 1126 z "},"g":{"ha":1093,"x_min":68,"x_max":1004,"o":"m 566 -298 q 377 -293 463 -298 q 231 -268 292 -288 q 137 -207 170 -249 q 104 -93 104 -165 l 234 -93 q 271 -161 234 -140 q 382 -185 308 -181 q 566 -189 456 -189 q 707 -184 648 -189 q 802 -155 765 -179 q 856 -73 839 -130 q 873 88 873 -16 l 873 106 q 743 26 826 45 q 537 6 660 6 q 321 21 410 6 q 175 76 231 35 q 94 194 119 117 q 68 396 68 271 q 94 609 68 529 q 175 729 119 689 q 321 783 231 770 q 537 796 410 796 q 743 778 660 796 q 873 699 826 760 l 873 781 l 1004 781 l 1004 83 q 971 -122 1001 -46 q 886 -236 941 -199 q 750 -286 831 -274 q 566 -298 670 -298 m 873 396 q 862 551 873 493 q 815 638 850 609 q 714 678 781 668 q 537 688 648 688 q 352 678 420 688 q 251 638 284 668 q 208 551 218 609 q 198 396 198 493 q 208 252 198 308 q 251 167 218 197 q 352 126 283 137 q 537 115 420 115 q 714 126 648 115 q 815 167 781 137 q 862 252 850 197 q 873 396 873 308 z "},"ǵ":{"ha":1093,"x_min":68,"x_max":1004,"o":"m 566 -298 q 377 -293 463 -298 q 231 -268 292 -288 q 137 -207 170 -249 q 104 -93 104 -165 l 234 -93 q 271 -161 234 -140 q 382 -185 308 -181 q 566 -189 456 -189 q 707 -184 648 -189 q 802 -155 765 -179 q 856 -73 839 -130 q 873 88 873 -16 l 873 106 q 743 26 826 45 q 537 6 660 6 q 321 21 410 6 q 175 76 231 35 q 94 194 119 117 q 68 396 68 271 q 94 609 68 529 q 175 729 119 689 q 321 783 231 770 q 537 796 410 796 q 743 778 660 796 q 873 699 826 760 l 873 781 l 1004 781 l 1004 83 q 971 -122 1001 -46 q 886 -236 941 -199 q 750 -286 831 -274 q 566 -298 670 -298 m 873 396 q 862 551 873 493 q 815 638 850 609 q 714 678 781 668 q 537 688 648 688 q 352 678 420 688 q 251 638 284 668 q 208 551 218 609 q 198 396 198 493 q 208 252 198 308 q 251 167 218 197 q 352 126 283 137 q 537 115 420 115 q 714 126 648 115 q 815 167 781 137 q 862 252 850 197 q 873 396 873 308 m 395 910 l 351 975 l 742 1301 l 822 1184 l 395 910 z "},"ğ":{"ha":1093,"x_min":68,"x_max":1004,"o":"m 566 -298 q 377 -293 463 -298 q 231 -268 292 -288 q 137 -207 170 -249 q 104 -93 104 -165 l 234 -93 q 271 -161 234 -140 q 382 -185 308 -181 q 566 -189 456 -189 q 707 -184 648 -189 q 802 -155 765 -179 q 856 -73 839 -130 q 873 88 873 -16 l 873 106 q 743 26 826 45 q 537 6 660 6 q 321 21 410 6 q 175 76 231 35 q 94 194 119 117 q 68 396 68 271 q 94 609 68 529 q 175 729 119 689 q 321 783 231 770 q 537 796 410 796 q 743 778 660 796 q 873 699 826 760 l 873 781 l 1004 781 l 1004 83 q 971 -122 1001 -46 q 886 -236 941 -199 q 750 -286 831 -274 q 566 -298 670 -298 m 873 396 q 862 551 873 493 q 815 638 850 609 q 714 678 781 668 q 537 688 648 688 q 352 678 420 688 q 251 638 284 668 q 208 551 218 609 q 198 396 198 493 q 208 252 198 308 q 251 167 218 197 q 352 126 283 137 q 537 115 420 115 q 714 126 648 115 q 815 167 781 137 q 862 252 850 197 q 873 396 873 308 m 547 886 q 406 909 465 886 q 317 990 348 932 q 286 1151 286 1047 l 395 1151 q 441 994 395 1023 q 547 980 465 980 q 655 996 628 980 q 699 1151 699 1023 l 807 1151 q 776 990 807 1047 q 687 909 745 932 q 547 886 629 886 z "},"ǧ":{"ha":1093,"x_min":68,"x_max":1004,"o":"m 566 -298 q 377 -293 463 -298 q 231 -268 292 -288 q 137 -207 170 -249 q 104 -93 104 -165 l 234 -93 q 271 -161 234 -140 q 382 -185 308 -181 q 566 -189 456 -189 q 707 -184 648 -189 q 802 -155 765 -179 q 856 -73 839 -130 q 873 88 873 -16 l 873 106 q 743 26 826 45 q 537 6 660 6 q 321 21 410 6 q 175 76 231 35 q 94 194 119 117 q 68 396 68 271 q 94 609 68 529 q 175 729 119 689 q 321 783 231 770 q 537 796 410 796 q 743 778 660 796 q 873 699 826 760 l 873 781 l 1004 781 l 1004 83 q 971 -122 1001 -46 q 886 -236 941 -199 q 750 -286 831 -274 q 566 -298 670 -298 m 873 396 q 862 551 873 493 q 815 638 850 609 q 714 678 781 668 q 537 688 648 688 q 352 678 420 688 q 251 638 284 668 q 208 551 218 609 q 198 396 198 493 q 208 252 198 308 q 251 167 218 197 q 352 126 283 137 q 537 115 420 115 q 714 126 648 115 q 815 167 781 137 q 862 252 850 197 q 873 396 873 308 m 481 892 l 264 1218 l 351 1283 l 547 979 l 742 1283 l 829 1218 l 612 892 l 481 892 z "},"ĝ":{"ha":1093,"x_min":68,"x_max":1004,"o":"m 566 -298 q 377 -293 463 -298 q 231 -268 292 -288 q 137 -207 170 -249 q 104 -93 104 -165 l 234 -93 q 271 -161 234 -140 q 382 -185 308 -181 q 566 -189 456 -189 q 707 -184 648 -189 q 802 -155 765 -179 q 856 -73 839 -130 q 873 88 873 -16 l 873 106 q 743 26 826 45 q 537 6 660 6 q 321 21 410 6 q 175 76 231 35 q 94 194 119 117 q 68 396 68 271 q 94 609 68 529 q 175 729 119 689 q 321 783 231 770 q 537 796 410 796 q 743 778 660 796 q 873 699 826 760 l 873 781 l 1004 781 l 1004 83 q 971 -122 1001 -46 q 886 -236 941 -199 q 750 -286 831 -274 q 566 -298 670 -298 m 873 396 q 862 551 873 493 q 815 638 850 609 q 714 678 781 668 q 537 688 648 688 q 352 678 420 688 q 251 638 284 668 q 208 551 218 609 q 198 396 198 493 q 208 252 198 308 q 251 167 218 197 q 352 126 283 137 q 537 115 420 115 q 714 126 648 115 q 815 167 781 137 q 862 252 850 197 q 873 396 873 308 m 351 888 l 264 954 l 481 1279 l 612 1279 l 829 954 l 742 888 l 547 1192 l 351 888 z "},"ģ":{"ha":1093,"x_min":68,"x_max":1004,"o":"m 566 -298 q 377 -293 463 -298 q 231 -268 292 -288 q 137 -207 170 -249 q 104 -93 104 -165 l 234 -93 q 271 -161 234 -140 q 382 -185 308 -181 q 566 -189 456 -189 q 707 -184 648 -189 q 802 -155 765 -179 q 856 -73 839 -130 q 873 88 873 -16 l 873 106 q 743 26 826 45 q 537 6 660 6 q 321 21 410 6 q 175 76 231 35 q 94 194 119 117 q 68 396 68 271 q 94 609 68 529 q 175 729 119 689 q 321 783 231 770 q 537 796 410 796 q 743 778 660 796 q 873 699 826 760 l 873 781 l 1004 781 l 1004 83 q 971 -122 1001 -46 q 886 -236 941 -199 q 750 -286 831 -274 q 566 -298 670 -298 m 873 396 q 862 551 873 493 q 815 638 850 609 q 714 678 781 668 q 537 688 648 688 q 352 678 420 688 q 251 638 284 668 q 208 551 218 609 q 198 396 198 493 q 208 252 198 308 q 251 167 218 197 q 352 126 283 137 q 537 115 420 115 q 714 126 648 115 q 815 167 781 137 q 862 252 850 197 q 873 396 873 308 m 484 844 l 570 1104 l 657 1104 l 614 844 l 484 844 z "},"ġ":{"ha":1093,"x_min":68,"x_max":1004,"o":"m 566 -298 q 377 -293 463 -298 q 231 -268 292 -288 q 137 -207 170 -249 q 104 -93 104 -165 l 234 -93 q 271 -161 234 -140 q 382 -185 308 -181 q 566 -189 456 -189 q 707 -184 648 -189 q 802 -155 765 -179 q 856 -73 839 -130 q 873 88 873 -16 l 873 106 q 743 26 826 45 q 537 6 660 6 q 321 21 410 6 q 175 76 231 35 q 94 194 119 117 q 68 396 68 271 q 94 609 68 529 q 175 729 119 689 q 321 783 231 770 q 537 796 410 796 q 743 778 660 796 q 873 699 826 760 l 873 781 l 1004 781 l 1004 83 q 971 -122 1001 -46 q 886 -236 941 -199 q 750 -286 831 -274 q 566 -298 670 -298 m 873 396 q 862 551 873 493 q 815 638 850 609 q 714 678 781 668 q 537 688 648 688 q 352 678 420 688 q 251 638 284 668 q 208 551 218 609 q 198 396 198 493 q 208 252 198 308 q 251 167 218 197 q 352 126 283 137 q 537 115 420 115 q 714 126 648 115 q 815 167 781 137 q 862 252 850 197 q 873 396 873 308 m 481 911 l 481 1042 l 612 1042 l 612 911 l 481 911 z "},"h":{"ha":1087,"x_min":90,"x_max":1002,"o":"m 90 0 l 90 1042 l 220 1042 l 220 677 q 292 743 249 717 q 407 783 335 770 q 597 796 479 796 q 839 766 750 796 q 964 660 927 736 q 1002 443 1002 583 l 1002 0 l 871 0 l 871 443 q 857 572 871 523 q 811 646 844 621 q 720 679 778 671 q 574 688 663 688 q 361 665 438 688 q 252 595 283 643 q 220 471 220 547 l 220 0 l 90 0 z "},"ħ":{"ha":1086,"x_min":-16,"x_max":999,"o":"m 87 0 l 87 849 l -16 849 l -16 958 l 87 958 l 87 1042 l 217 1042 l 217 958 l 505 958 l 505 849 l 217 849 l 217 658 q 608 803 279 803 q 934 710 853 803 q 986 596 973 665 q 999 441 999 528 l 999 0 l 868 0 l 868 441 q 858 557 868 508 q 814 638 848 607 q 564 694 752 694 q 232 570 279 694 q 217 484 217 530 l 217 0 l 87 0 z "},"ȟ":{"ha":1087,"x_min":90,"x_max":1002,"o":"m 90 0 l 90 1042 l 220 1042 l 220 677 q 292 743 249 717 q 407 783 335 770 q 597 796 479 796 q 839 766 750 796 q 964 660 927 736 q 1002 443 1002 583 l 1002 0 l 871 0 l 871 443 q 857 572 871 523 q 811 646 844 621 q 720 679 778 671 q 574 688 663 688 q 361 665 438 688 q 252 595 283 643 q 220 471 220 547 l 220 0 l 90 0 m 479 1121 l 262 1447 l 349 1512 l 544 1208 l 739 1512 l 826 1447 l 609 1121 l 479 1121 z "},"ĥ":{"ha":1087,"x_min":90,"x_max":1002,"o":"m 90 0 l 90 1042 l 220 1042 l 220 677 q 292 743 249 717 q 407 783 335 770 q 597 796 479 796 q 839 766 750 796 q 964 660 927 736 q 1002 443 1002 583 l 1002 0 l 871 0 l 871 443 q 857 572 871 523 q 811 646 844 621 q 720 679 778 671 q 574 688 663 688 q 361 665 438 688 q 252 595 283 643 q 220 471 220 547 l 220 0 l 90 0 m 349 1117 l 262 1182 l 479 1508 l 609 1508 l 826 1182 l 739 1117 l 544 1421 l 349 1117 z "},"i":{"ha":304,"x_min":87,"x_max":217,"o":"m 87 0 l 87 738 l 217 738 l 217 0 l 87 0 m 87 911 l 87 1042 l 217 1042 l 217 911 l 87 911 z "},"ı":{"ha":304,"x_min":87,"x_max":217,"o":"m 87 0 l 87 738 l 217 738 l 217 0 l 87 0 z "},"í":{"ha":304,"x_min":-43,"x_max":427,"o":"m 87 0 l 87 738 l 217 738 l 217 0 l 87 0 m 0 910 l -43 975 l 347 1301 l 427 1184 l 0 910 z "},"ĭ":{"ha":304,"x_min":-109,"x_max":412,"o":"m 87 0 l 87 738 l 217 738 l 217 0 l 87 0 m 152 886 q 12 909 70 886 q -78 990 -47 932 q -109 1151 -109 1047 l 0 1151 q 47 994 0 1023 q 152 980 71 980 q 260 996 233 980 q 304 1151 304 1023 l 412 1151 q 381 990 412 1047 q 293 909 351 932 q 152 886 235 886 z "},"ǐ":{"ha":304,"x_min":-130,"x_max":434,"o":"m 87 0 l 87 738 l 217 738 l 217 0 l 87 0 m 87 892 l -130 1218 l -43 1283 l 152 979 l 347 1283 l 434 1218 l 217 892 l 87 892 z "},"î":{"ha":304,"x_min":-130,"x_max":434,"o":"m 87 0 l 87 738 l 217 738 l 217 0 l 87 0 m -43 888 l -130 954 l 87 1279 l 217 1279 l 434 954 l 347 888 l 152 1192 l -43 888 z "},"ȉ":{"ha":304,"x_min":87,"x_max":217,"o":"m 87 0 l 87 738 l 217 738 l 217 0 l 87 0 z "},"ï":{"ha":304,"x_min":-153,"x_max":457,"o":"m 87 0 l 87 738 l 217 738 l 217 0 l 87 0 m 327 911 l 327 1042 l 457 1042 l 457 911 l 327 911 m -153 911 l -153 1042 l -23 1042 l -23 911 l -153 911 z "},"ì":{"ha":304,"x_min":-38,"x_max":433,"o":"m 87 0 l 87 738 l 217 738 l 217 0 l 87 0 m 389 909 l -38 1183 l 42 1299 l 433 974 l 389 909 z "},"ȋ":{"ha":304,"x_min":-109,"x_max":412,"o":"m 87 0 l 87 738 l 217 738 l 217 0 l 87 0 m 152 1151 q 293 1128 235 1151 q 381 1048 351 1105 q 412 886 412 990 l 304 886 q 260 1041 304 1015 q 152 1057 233 1057 q 47 1043 71 1057 q 0 886 0 1015 l -109 886 q -78 1048 -109 990 q 12 1128 -47 1105 q 152 1151 70 1151 z "},"ī":{"ha":304,"x_min":-109,"x_max":412,"o":"m 87 0 l 87 738 l 217 738 l 217 0 l 87 0 m -109 885 l -109 994 l 412 994 l 412 885 l -109 885 z "},"į":{"ha":304,"x_min":-43,"x_max":217,"o":"m 87 0 l 87 738 l 217 738 l 217 0 l 87 0 m 87 911 l 87 1042 l 217 1042 l 217 911 l 87 911 m 217 -391 q -21 -299 41 -391 q -43 -229 -43 -265 q -36 -171 -43 -193 q -16 -128 -29 -149 q 130 0 30 -55 l 217 0 q 87 -195 87 -86 q 123 -266 87 -249 q 217 -282 159 -282 l 217 -391 z "},"ĩ":{"ha":304,"x_min":-152,"x_max":456,"o":"m 87 0 l 87 738 l 217 738 l 217 0 l 87 0 m -152 910 q -102 1039 -152 994 q 22 1084 -52 1084 q 170 1051 92 1084 q 219 1030 193 1042 q 273 1019 245 1019 q 315 1031 305 1019 q 326 1084 326 1044 l 456 1084 q 393 947 456 994 q 282 910 345 910 q 134 943 211 910 q 85 964 111 952 q 31 975 58 975 q -13 963 -3 975 q -22 910 -22 950 l -152 910 z "},"ĳ":{"ha":760,"x_min":87,"x_max":629,"o":"m 87 0 l 87 738 l 217 738 l 217 0 l 87 0 m 87 911 l 87 1042 l 217 1042 l 217 911 l 87 911 m 499 911 l 499 1042 l 629 1042 l 629 911 l 499 911 m 279 -260 l 279 -152 l 377 -152 q 471 -127 443 -152 q 499 -16 499 -102 l 499 781 l 629 781 l 629 -16 q 573 -200 629 -139 q 377 -260 517 -260 l 279 -260 z "},"j":{"ha":456,"x_min":-25,"x_max":326,"o":"m 195 911 l 195 1042 l 326 1042 l 326 911 l 195 911 m -25 -260 l -25 -152 l 73 -152 q 167 -127 139 -152 q 195 -16 195 -102 l 195 781 l 326 781 l 326 -16 q 269 -200 326 -139 q 73 -260 213 -260 l -25 -260 z "},"ȷ":{"ha":412,"x_min":87,"x_max":326,"o":"m 87 -260 l 87 -152 q 174 -131 153 -152 q 195 -43 195 -109 l 195 781 l 326 781 l 326 -43 q 318 -135 326 -95 q 288 -202 311 -174 q 87 -260 237 -260 z "},"ǰ":{"ha":412,"x_min":-22,"x_max":543,"o":"m 87 -260 l 87 -152 q 174 -131 153 -152 q 195 -43 195 -109 l 195 781 l 326 781 l 326 -43 q 318 -135 326 -95 q 288 -202 311 -174 q 87 -260 237 -260 m 195 892 l -22 1218 l 65 1283 l 260 979 l 456 1283 l 543 1218 l 326 892 l 195 892 z "},"ĵ":{"ha":412,"x_min":-22,"x_max":543,"o":"m 87 -260 l 87 -152 q 174 -131 153 -152 q 195 -43 195 -109 l 195 781 l 326 781 l 326 -43 q 318 -135 326 -95 q 288 -202 311 -174 q 87 -260 237 -260 m 65 888 l -22 954 l 195 1279 l 326 1279 l 543 954 l 456 888 l 260 1192 l 65 888 z "},"k":{"ha":959,"x_min":91,"x_max":959,"o":"m 91 0 l 91 1042 l 221 1042 l 221 440 l 740 781 l 937 781 l 386 414 l 959 0 l 765 0 l 221 401 l 221 0 l 91 0 z "},"ǩ":{"ha":959,"x_min":-126,"x_max":959,"o":"m 91 0 l 91 1042 l 221 1042 l 221 440 l 740 781 l 937 781 l 386 414 l 959 0 l 765 0 l 221 401 l 221 0 l 91 0 m 91 1153 l -126 1478 l -39 1544 l 156 1240 l 351 1544 l 438 1478 l 221 1153 l 91 1153 z "},"ķ":{"ha":959,"x_min":91,"x_max":959,"o":"m 91 0 l 91 1042 l 221 1042 l 221 440 l 740 781 l 937 781 l 386 414 l 959 0 l 765 0 l 221 401 l 221 0 l 91 0 m 555 -103 l 469 -363 l 382 -363 l 425 -103 l 555 -103 z "},"ĸ":{"ha":955,"x_min":87,"x_max":955,"o":"m 87 0 l 87 1042 l 217 1042 l 217 445 l 260 445 l 738 738 l 933 738 l 380 391 l 955 0 l 760 0 l 260 347 l 217 347 l 217 0 l 87 0 z "},"l":{"ha":391,"x_min":130,"x_max":260,"o":"m 130 0 l 130 1042 l 260 1042 l 260 0 l 130 0 z "},"ĺ":{"ha":391,"x_min":106,"x_max":576,"o":"m 130 0 l 130 1042 l 260 1042 l 260 0 l 130 0 m 149 1122 l 106 1187 l 496 1513 l 576 1396 l 149 1122 z "},"ľ":{"ha":391,"x_min":130,"x_max":515,"o":"m 130 0 l 130 1042 l 260 1042 l 260 0 l 130 0 m 341 781 l 385 1042 l 515 1042 l 428 781 l 341 781 z "},"ļ":{"ha":391,"x_min":87,"x_max":260,"o":"m 130 0 l 130 1042 l 260 1042 l 260 0 l 130 0 m 260 -103 l 174 -363 l 87 -363 l 130 -103 l 260 -103 z "},"ŀ":{"ha":522,"x_min":130,"x_max":522,"o":"m 130 0 l 130 1042 l 260 1042 l 260 0 l 130 0 m 391 477 l 391 608 l 522 608 l 522 477 l 391 477 z "},"ǉ":{"ha":846,"x_min":130,"x_max":716,"o":"m 130 0 l 130 1042 l 260 1042 l 260 0 l 130 0 m 586 911 l 586 1042 l 716 1042 l 716 911 l 586 911 m 366 -260 l 366 -152 l 464 -152 q 558 -127 530 -152 q 586 -16 586 -102 l 586 781 l 716 781 l 716 -16 q 660 -200 716 -139 q 464 -260 604 -260 l 366 -260 z "},"ł":{"ha":347,"x_min":-34,"x_max":357,"o":"m 87 0 l 87 541 l -34 507 l -34 616 l 87 649 l 87 1042 l 217 1042 l 217 686 l 357 724 l 357 616 l 217 577 l 217 0 l 87 0 z "},"m":{"ha":1678,"x_min":90,"x_max":1593,"o":"m 90 0 l 90 781 l 220 781 l 220 684 q 290 750 249 724 q 394 790 330 777 q 556 803 457 803 q 756 770 679 803 q 870 655 833 736 q 950 740 903 707 q 1068 788 997 772 q 1242 803 1139 803 q 1443 769 1366 803 q 1557 655 1520 736 q 1593 434 1593 574 l 1593 0 l 1463 0 l 1463 434 q 1440 597 1463 541 q 1366 674 1418 653 q 1226 694 1314 694 q 980 644 1053 694 q 906 477 906 593 l 906 478 q 907 434 907 457 l 907 0 l 777 0 l 777 434 q 754 597 777 541 q 680 674 732 653 q 540 694 628 694 q 293 644 367 694 q 220 477 220 593 l 220 0 l 90 0 z "},"ṁ":{"ha":1678,"x_min":90,"x_max":1593,"o":"m 90 0 l 90 781 l 220 781 l 220 684 q 290 750 249 724 q 394 790 330 777 q 556 803 457 803 q 756 770 679 803 q 870 655 833 736 q 950 740 903 707 q 1068 788 997 772 q 1242 803 1139 803 q 1443 769 1366 803 q 1557 655 1520 736 q 1593 434 1593 574 l 1593 0 l 1463 0 l 1463 434 q 1440 597 1463 541 q 1366 674 1418 653 q 1226 694 1314 694 q 980 644 1053 694 q 906 477 906 593 l 906 478 q 907 434 907 457 l 907 0 l 777 0 l 777 434 q 754 597 777 541 q 680 674 732 653 q 540 694 628 694 q 293 644 367 694 q 220 477 220 593 l 220 0 l 90 0 m 774 911 l 774 1042 l 904 1042 l 904 911 l 774 911 z "},"n":{"ha":1086,"x_min":90,"x_max":1002,"o":"m 90 0 l 90 781 l 220 781 l 220 677 q 292 743 249 717 q 407 783 335 770 q 597 796 479 796 q 839 766 750 796 q 964 660 927 736 q 1002 443 1002 583 l 1002 0 l 871 0 l 871 443 q 857 572 871 523 q 811 646 844 621 q 720 679 778 671 q 574 688 663 688 q 361 665 438 688 q 252 595 283 643 q 220 471 220 547 l 220 0 l 90 0 z "},"ń":{"ha":1086,"x_min":90,"x_max":1002,"o":"m 90 0 l 90 781 l 220 781 l 220 677 q 292 743 249 717 q 407 783 335 770 q 597 796 479 796 q 839 766 750 796 q 964 660 927 736 q 1002 443 1002 583 l 1002 0 l 871 0 l 871 443 q 857 572 871 523 q 811 646 844 621 q 720 679 778 671 q 574 688 663 688 q 361 665 438 688 q 252 595 283 643 q 220 471 220 547 l 220 0 l 90 0 m 391 910 l 348 975 l 739 1301 l 819 1184 l 391 910 z "},"ŉ":{"ha":1129,"x_min":-80,"x_max":1045,"o":"m 94 819 l 7 819 l -80 1080 l 50 1080 l 94 819 m 133 0 l 133 781 l 263 781 l 263 677 q 335 743 292 717 q 451 783 378 770 q 640 796 523 796 q 882 766 793 796 q 1008 660 970 736 q 1045 443 1045 583 l 1045 0 l 914 0 l 914 443 q 901 572 914 523 q 854 646 887 621 q 764 679 821 671 q 617 688 706 688 q 404 665 481 688 q 295 595 327 643 q 263 471 263 547 l 263 0 l 133 0 z "},"ň":{"ha":1086,"x_min":90,"x_max":1002,"o":"m 90 0 l 90 781 l 220 781 l 220 677 q 292 743 249 717 q 407 783 335 770 q 597 796 479 796 q 839 766 750 796 q 964 660 927 736 q 1002 443 1002 583 l 1002 0 l 871 0 l 871 443 q 857 572 871 523 q 811 646 844 621 q 720 679 778 671 q 574 688 663 688 q 361 665 438 688 q 252 595 283 643 q 220 471 220 547 l 220 0 l 90 0 m 478 892 l 261 1218 l 348 1283 l 543 979 l 739 1283 l 825 1218 l 608 892 l 478 892 z "},"ņ":{"ha":1086,"x_min":90,"x_max":1002,"o":"m 90 0 l 90 781 l 220 781 l 220 677 q 292 743 249 717 q 407 783 335 770 q 597 796 479 796 q 839 766 750 796 q 964 660 927 736 q 1002 443 1002 583 l 1002 0 l 871 0 l 871 443 q 857 572 871 523 q 811 646 844 621 q 720 679 778 671 q 574 688 663 688 q 361 665 438 688 q 252 595 283 643 q 220 471 220 547 l 220 0 l 90 0 m 608 -103 l 522 -363 l 435 -363 l 478 -103 l 608 -103 z "},"ǹ":{"ha":1086,"x_min":90,"x_max":1002,"o":"m 90 0 l 90 781 l 220 781 l 220 677 q 292 743 249 717 q 407 783 335 770 q 597 796 479 796 q 839 766 750 796 q 964 660 927 736 q 1002 443 1002 583 l 1002 0 l 871 0 l 871 443 q 857 572 871 523 q 811 646 844 621 q 720 679 778 671 q 574 688 663 688 q 361 665 438 688 q 252 595 283 643 q 220 471 220 547 l 220 0 l 90 0 m 781 909 l 353 1183 l 433 1299 l 824 974 l 781 909 z "},"ǌ":{"ha":1541,"x_min":90,"x_max":1411,"o":"m 90 0 l 90 781 l 220 781 l 220 677 q 292 743 249 717 q 407 783 335 770 q 597 796 479 796 q 839 766 750 796 q 964 660 927 736 q 1002 443 1002 583 l 1002 0 l 871 0 l 871 443 q 857 572 871 523 q 811 646 844 621 q 720 679 778 671 q 574 688 663 688 q 361 665 438 688 q 252 595 283 643 q 220 471 220 547 l 220 0 l 90 0 m 1281 911 l 1281 1042 l 1411 1042 l 1411 911 l 1281 911 m 1061 -260 l 1061 -152 l 1159 -152 q 1253 -127 1225 -152 q 1281 -16 1281 -102 l 1281 781 l 1411 781 l 1411 -16 q 1355 -200 1411 -139 q 1159 -260 1299 -260 l 1061 -260 z "},"ñ":{"ha":1086,"x_min":90,"x_max":1002,"o":"m 90 0 l 90 781 l 220 781 l 220 677 q 292 743 249 717 q 407 783 335 770 q 597 796 479 796 q 839 766 750 796 q 964 660 927 736 q 1002 443 1002 583 l 1002 0 l 871 0 l 871 443 q 857 572 871 523 q 811 646 844 621 q 720 679 778 671 q 574 688 663 688 q 361 665 438 688 q 252 595 283 643 q 220 471 220 547 l 220 0 l 90 0 m 239 910 q 289 1039 239 994 q 413 1084 339 1084 q 562 1051 484 1084 q 610 1030 584 1042 q 664 1019 637 1019 q 707 1031 696 1019 q 717 1084 717 1044 l 847 1084 q 785 947 847 994 q 673 910 736 910 q 525 943 602 910 q 476 964 503 952 q 422 975 450 975 q 379 963 388 975 q 370 910 370 950 l 239 910 z "},"ŋ":{"ha":1175,"x_min":133,"x_max":1045,"o":"m 806 -260 l 806 -152 q 893 -131 871 -152 q 914 -43 914 -109 l 914 443 q 901 572 914 523 q 854 646 887 621 q 764 679 821 671 q 617 688 706 688 q 404 665 481 688 q 295 595 327 643 q 263 471 263 547 l 263 0 l 133 0 l 133 781 l 263 781 l 263 677 q 336 743 293 717 q 451 783 378 770 q 640 796 523 796 q 882 766 793 796 q 1008 660 970 736 q 1045 443 1045 583 l 1045 -43 q 1038 -135 1045 -95 q 1006 -202 1030 -174 q 806 -260 956 -260 z "},"o":{"ha":1086,"x_min":65,"x_max":1021,"o":"m 543 -15 q 321 -2 412 -15 q 173 53 229 12 q 91 176 117 94 q 65 395 65 258 q 91 608 65 528 q 173 728 117 688 q 321 783 229 769 q 543 796 412 796 q 766 783 675 796 q 913 728 857 769 q 996 608 970 688 q 1021 395 1021 528 q 996 176 1021 258 q 913 53 970 94 q 766 -2 857 12 q 543 -15 675 -15 m 891 395 q 881 550 891 492 q 838 638 871 608 q 735 677 805 667 q 543 688 665 688 q 352 677 422 688 q 248 638 281 667 q 205 550 215 608 q 195 395 195 492 q 205 234 195 294 q 248 143 215 174 q 352 103 281 113 q 543 94 422 94 q 735 103 665 94 q 838 143 805 113 q 881 234 871 174 q 891 395 891 294 z "},"ó":{"ha":1086,"x_min":65,"x_max":1021,"o":"m 543 -15 q 321 -2 412 -15 q 173 53 229 12 q 91 176 117 94 q 65 395 65 258 q 91 608 65 528 q 173 728 117 688 q 321 783 229 769 q 543 796 412 796 q 766 783 675 796 q 913 728 857 769 q 996 608 970 688 q 1021 395 1021 528 q 996 176 1021 258 q 913 53 970 94 q 766 -2 857 12 q 543 -15 675 -15 m 891 395 q 881 550 891 492 q 838 638 871 608 q 735 677 805 667 q 543 688 665 688 q 352 677 422 688 q 248 638 281 667 q 205 550 215 608 q 195 395 195 492 q 205 234 195 294 q 248 143 215 174 q 352 103 281 113 q 543 94 422 94 q 735 103 665 94 q 838 143 805 113 q 881 234 871 174 q 891 395 891 294 m 391 910 l 348 975 l 739 1301 l 819 1184 l 391 910 z "},"ŏ":{"ha":1086,"x_min":65,"x_max":1021,"o":"m 543 -15 q 321 -2 412 -15 q 173 53 229 12 q 91 176 117 94 q 65 395 65 258 q 91 608 65 528 q 173 728 117 688 q 321 783 229 769 q 543 796 412 796 q 766 783 675 796 q 913 728 857 769 q 996 608 970 688 q 1021 395 1021 528 q 996 176 1021 258 q 913 53 970 94 q 766 -2 857 12 q 543 -15 675 -15 m 891 395 q 881 550 891 492 q 838 638 871 608 q 735 677 805 667 q 543 688 665 688 q 352 677 422 688 q 248 638 281 667 q 205 550 215 608 q 195 395 195 492 q 205 234 195 294 q 248 143 215 174 q 352 103 281 113 q 543 94 422 94 q 735 103 665 94 q 838 143 805 113 q 881 234 871 174 q 891 395 891 294 m 543 886 q 403 909 461 886 q 314 990 345 932 q 283 1151 283 1047 l 391 1151 q 438 994 391 1023 q 543 980 462 980 q 652 996 625 980 q 695 1151 695 1023 l 804 1151 q 773 990 804 1047 q 684 909 742 932 q 543 886 626 886 z "},"ǒ":{"ha":1086,"x_min":65,"x_max":1021,"o":"m 543 -15 q 321 -2 412 -15 q 173 53 229 12 q 91 176 117 94 q 65 395 65 258 q 91 608 65 528 q 173 728 117 688 q 321 783 229 769 q 543 796 412 796 q 766 783 675 796 q 913 728 857 769 q 996 608 970 688 q 1021 395 1021 528 q 996 176 1021 258 q 913 53 970 94 q 766 -2 857 12 q 543 -15 675 -15 m 891 395 q 881 550 891 492 q 838 638 871 608 q 735 677 805 667 q 543 688 665 688 q 352 677 422 688 q 248 638 281 667 q 205 550 215 608 q 195 395 195 492 q 205 234 195 294 q 248 143 215 174 q 352 103 281 113 q 543 94 422 94 q 735 103 665 94 q 838 143 805 113 q 881 234 871 174 q 891 395 891 294 m 478 892 l 261 1218 l 348 1283 l 543 979 l 739 1283 l 825 1218 l 608 892 l 478 892 z "},"ô":{"ha":1086,"x_min":65,"x_max":1021,"o":"m 543 -15 q 321 -2 412 -15 q 173 53 229 12 q 91 176 117 94 q 65 395 65 258 q 91 608 65 528 q 173 728 117 688 q 321 783 229 769 q 543 796 412 796 q 766 783 675 796 q 913 728 857 769 q 996 608 970 688 q 1021 395 1021 528 q 996 176 1021 258 q 913 53 970 94 q 766 -2 857 12 q 543 -15 675 -15 m 891 395 q 881 550 891 492 q 838 638 871 608 q 735 677 805 667 q 543 688 665 688 q 352 677 422 688 q 248 638 281 667 q 205 550 215 608 q 195 395 195 492 q 205 234 195 294 q 248 143 215 174 q 352 103 281 113 q 543 94 422 94 q 735 103 665 94 q 838 143 805 113 q 881 234 871 174 q 891 395 891 294 m 348 888 l 261 954 l 478 1279 l 608 1279 l 825 954 l 739 888 l 543 1192 l 348 888 z "},"ȍ":{"ha":1086,"x_min":65,"x_max":1021,"o":"m 543 -15 q 321 -2 412 -15 q 173 53 229 12 q 91 176 117 94 q 65 395 65 258 q 91 608 65 528 q 173 728 117 688 q 321 783 229 769 q 543 796 412 796 q 766 783 675 796 q 913 728 857 769 q 996 608 970 688 q 1021 395 1021 528 q 996 176 1021 258 q 913 53 970 94 q 766 -2 857 12 q 543 -15 675 -15 m 891 395 q 881 550 891 492 q 838 638 871 608 q 735 677 805 667 q 543 688 665 688 q 352 677 422 688 q 248 638 281 667 q 205 550 215 608 q 195 395 195 492 q 205 234 195 294 q 248 143 215 174 q 352 103 281 113 q 543 94 422 94 q 735 103 665 94 q 838 143 805 113 q 881 234 871 174 q 891 395 891 294 z "},"ö":{"ha":1086,"x_min":65,"x_max":1021,"o":"m 543 -15 q 321 -2 412 -15 q 173 53 229 12 q 91 176 117 94 q 65 395 65 258 q 91 608 65 528 q 173 728 117 688 q 321 783 229 769 q 543 796 412 796 q 766 783 675 796 q 913 728 857 769 q 996 608 970 688 q 1021 395 1021 528 q 996 176 1021 258 q 913 53 970 94 q 766 -2 857 12 q 543 -15 675 -15 m 891 395 q 881 550 891 492 q 838 638 871 608 q 735 677 805 667 q 543 688 665 688 q 352 677 422 688 q 248 638 281 667 q 205 550 215 608 q 195 395 195 492 q 205 234 195 294 q 248 143 215 174 q 352 103 281 113 q 543 94 422 94 q 735 103 665 94 q 838 143 805 113 q 881 234 871 174 q 891 395 891 294 m 718 911 l 718 1042 l 848 1042 l 848 911 l 718 911 m 238 911 l 238 1042 l 368 1042 l 368 911 l 238 911 z "},"ȯ":{"ha":1086,"x_min":65,"x_max":1021,"o":"m 543 -15 q 321 -2 412 -15 q 173 53 229 12 q 91 176 117 94 q 65 395 65 258 q 91 608 65 528 q 173 728 117 688 q 321 783 229 769 q 543 796 412 796 q 766 783 675 796 q 913 728 857 769 q 996 608 970 688 q 1021 395 1021 528 q 996 176 1021 258 q 913 53 970 94 q 766 -2 857 12 q 543 -15 675 -15 m 891 395 q 881 550 891 492 q 838 638 871 608 q 735 677 805 667 q 543 688 665 688 q 352 677 422 688 q 248 638 281 667 q 205 550 215 608 q 195 395 195 492 q 205 234 195 294 q 248 143 215 174 q 352 103 281 113 q 543 94 422 94 q 735 103 665 94 q 838 143 805 113 q 881 234 871 174 q 891 395 891 294 m 478 911 l 478 1042 l 608 1042 l 608 911 l 478 911 z "},"ò":{"ha":1086,"x_min":65,"x_max":1021,"o":"m 543 -15 q 321 -2 412 -15 q 173 53 229 12 q 91 176 117 94 q 65 395 65 258 q 91 608 65 528 q 173 728 117 688 q 321 783 229 769 q 543 796 412 796 q 766 783 675 796 q 913 728 857 769 q 996 608 970 688 q 1021 395 1021 528 q 996 176 1021 258 q 913 53 970 94 q 766 -2 857 12 q 543 -15 675 -15 m 891 395 q 881 550 891 492 q 838 638 871 608 q 735 677 805 667 q 543 688 665 688 q 352 677 422 688 q 248 638 281 667 q 205 550 215 608 q 195 395 195 492 q 205 234 195 294 q 248 143 215 174 q 352 103 281 113 q 543 94 422 94 q 735 103 665 94 q 838 143 805 113 q 881 234 871 174 q 891 395 891 294 m 781 909 l 353 1183 l 433 1299 l 824 974 l 781 909 z "},"ő":{"ha":1086,"x_min":65,"x_max":1163,"o":"m 543 -15 q 321 -2 412 -15 q 173 53 229 12 q 91 176 117 94 q 65 395 65 258 q 91 608 65 528 q 173 728 117 688 q 321 783 229 769 q 543 796 412 796 q 766 783 675 796 q 913 728 857 769 q 996 608 970 688 q 1021 395 1021 528 q 996 176 1021 258 q 913 53 970 94 q 766 -2 857 12 q 543 -15 675 -15 m 891 395 q 881 550 891 492 q 838 638 871 608 q 735 677 805 667 q 543 688 665 688 q 352 677 422 688 q 248 638 281 667 q 205 550 215 608 q 195 395 195 492 q 205 234 195 294 q 248 143 215 174 q 352 103 281 113 q 543 94 422 94 q 735 103 665 94 q 838 143 805 113 q 881 234 871 174 q 891 395 891 294 m 729 884 l 686 949 l 1076 1275 l 1163 1145 l 729 884 m 354 884 l 311 949 l 701 1275 l 788 1145 l 354 884 z "},"ȏ":{"ha":1086,"x_min":65,"x_max":1021,"o":"m 543 -15 q 321 -2 412 -15 q 173 53 229 12 q 91 176 117 94 q 65 395 65 258 q 91 608 65 528 q 173 728 117 688 q 321 783 229 769 q 543 796 412 796 q 766 783 675 796 q 913 728 857 769 q 996 608 970 688 q 1021 395 1021 528 q 996 176 1021 258 q 913 53 970 94 q 766 -2 857 12 q 543 -15 675 -15 m 891 395 q 881 550 891 492 q 838 638 871 608 q 735 677 805 667 q 543 688 665 688 q 352 677 422 688 q 248 638 281 667 q 205 550 215 608 q 195 395 195 492 q 205 234 195 294 q 248 143 215 174 q 352 103 281 113 q 543 94 422 94 q 735 103 665 94 q 838 143 805 113 q 881 234 871 174 q 891 395 891 294 m 543 1151 q 684 1128 626 1151 q 773 1048 742 1105 q 804 886 804 990 l 695 886 q 652 1041 695 1015 q 543 1057 625 1057 q 438 1043 462 1057 q 391 886 391 1015 l 283 886 q 314 1048 283 990 q 403 1128 345 1105 q 543 1151 461 1151 z "},"ō":{"ha":1086,"x_min":65,"x_max":1021,"o":"m 543 -15 q 321 -2 412 -15 q 173 53 229 12 q 91 176 117 94 q 65 395 65 258 q 91 608 65 528 q 173 728 117 688 q 321 783 229 769 q 543 796 412 796 q 766 783 675 796 q 913 728 857 769 q 996 608 970 688 q 1021 395 1021 528 q 996 176 1021 258 q 913 53 970 94 q 766 -2 857 12 q 543 -15 675 -15 m 891 395 q 881 550 891 492 q 838 638 871 608 q 735 677 805 667 q 543 688 665 688 q 352 677 422 688 q 248 638 281 667 q 205 550 215 608 q 195 395 195 492 q 205 234 195 294 q 248 143 215 174 q 352 103 281 113 q 543 94 422 94 q 735 103 665 94 q 838 143 805 113 q 881 234 871 174 q 891 395 891 294 m 283 885 l 283 994 l 804 994 l 804 885 l 283 885 z "},"ǫ":{"ha":1086,"x_min":65,"x_max":1021,"o":"m 543 -15 q 321 -2 412 -15 q 173 53 229 12 q 91 176 117 94 q 65 395 65 258 q 91 608 65 528 q 173 728 117 688 q 321 783 229 769 q 543 796 412 796 q 766 783 675 796 q 913 728 857 769 q 996 608 970 688 q 1021 395 1021 528 q 996 176 1021 258 q 913 53 970 94 q 766 -2 857 12 q 543 -15 675 -15 m 891 395 q 881 550 891 492 q 838 638 871 608 q 735 677 805 667 q 543 688 665 688 q 352 677 422 688 q 248 638 281 667 q 205 550 215 608 q 195 395 195 492 q 205 234 195 294 q 248 143 215 174 q 352 103 281 113 q 543 94 422 94 q 735 103 665 94 q 838 143 805 113 q 881 234 871 174 q 891 395 891 294 m 608 -377 q 370 -286 432 -377 q 347 -216 347 -252 q 354 -158 347 -180 q 374 -115 361 -136 q 521 14 420 -41 l 608 14 q 477 -182 477 -73 q 514 -252 477 -235 q 608 -269 550 -269 l 608 -377 z "},"ø":{"ha":1086,"x_min":65,"x_max":1021,"o":"m 349 -158 l 270 -129 l 327 -3 q 175 52 233 11 q 91 174 117 92 q 65 395 65 256 q 91 608 65 528 q 173 728 117 688 q 321 783 229 769 q 543 796 412 796 q 619 795 583 796 q 688 792 655 794 l 757 944 l 836 915 l 776 781 q 918 725 864 766 q 997 604 972 684 q 1021 395 1021 525 q 996 176 1021 258 q 913 53 970 94 q 766 -2 857 12 q 543 -15 675 -15 q 477 -14 509 -15 q 416 -12 445 -14 l 349 -158 m 195 395 q 206 228 195 289 q 254 138 216 167 q 374 100 292 109 l 640 686 q 594 687 618 687 q 543 688 570 688 q 352 677 422 688 q 248 638 281 667 q 205 550 215 608 q 195 395 195 492 m 891 395 q 881 551 891 492 q 837 638 871 609 q 729 679 803 668 l 464 94 q 543 94 498 94 q 735 103 665 94 q 838 143 805 113 q 881 234 871 174 q 891 395 891 294 z "},"ǿ":{"ha":1086,"x_min":65,"x_max":1021,"o":"m 349 -158 l 270 -129 l 327 -3 q 175 52 233 11 q 91 174 117 92 q 65 395 65 256 q 91 608 65 528 q 173 728 117 688 q 321 783 229 769 q 543 796 412 796 q 619 795 583 796 q 688 792 655 794 l 757 944 l 836 915 l 776 781 q 918 725 864 766 q 997 604 972 684 q 1021 395 1021 525 q 996 176 1021 258 q 913 53 970 94 q 766 -2 857 12 q 543 -15 675 -15 q 477 -14 509 -15 q 416 -12 445 -14 l 349 -158 m 195 395 q 206 228 195 289 q 254 138 216 167 q 374 100 292 109 l 640 686 q 594 687 618 687 q 543 688 570 688 q 352 677 422 688 q 248 638 281 667 q 205 550 215 608 q 195 395 195 492 m 891 395 q 881 551 891 492 q 837 638 871 609 q 729 679 803 668 l 464 94 q 543 94 498 94 q 735 103 665 94 q 838 143 805 113 q 881 234 871 174 q 891 395 891 294 m 391 910 l 348 975 l 739 1301 l 819 1184 l 391 910 z "},"õ":{"ha":1086,"x_min":65,"x_max":1021,"o":"m 543 -15 q 321 -2 412 -15 q 173 53 229 12 q 91 176 117 94 q 65 395 65 258 q 91 608 65 528 q 173 728 117 688 q 321 783 229 769 q 543 796 412 796 q 766 783 675 796 q 913 728 857 769 q 996 608 970 688 q 1021 395 1021 528 q 996 176 1021 258 q 913 53 970 94 q 766 -2 857 12 q 543 -15 675 -15 m 891 395 q 881 550 891 492 q 838 638 871 608 q 735 677 805 667 q 543 688 665 688 q 352 677 422 688 q 248 638 281 667 q 205 550 215 608 q 195 395 195 492 q 205 234 195 294 q 248 143 215 174 q 352 103 281 113 q 543 94 422 94 q 735 103 665 94 q 838 143 805 113 q 881 234 871 174 q 891 395 891 294 m 239 910 q 289 1039 239 994 q 413 1084 339 1084 q 562 1051 484 1084 q 610 1030 584 1042 q 664 1019 637 1019 q 707 1031 696 1019 q 717 1084 717 1044 l 847 1084 q 785 947 847 994 q 673 910 736 910 q 525 943 602 910 q 476 964 503 952 q 422 975 450 975 q 379 963 388 975 q 370 910 370 950 l 239 910 z "},"œ":{"ha":1910,"x_min":87,"x_max":1823,"o":"m 1413 -22 q 1231 -7 1320 -22 q 1073 41 1141 7 q 977 130 1004 75 q 833 22 943 63 q 701 -12 769 -3 q 538 -22 633 -22 q 343 -3 434 -22 q 146 114 206 24 q 87 369 87 203 q 113 558 87 482 q 206 687 142 644 q 364 745 270 730 q 577 760 458 760 q 696 750 631 760 q 821 722 760 741 q 924 675 881 703 q 977 608 966 646 q 1112 716 993 673 q 1389 760 1230 760 q 1667 711 1565 760 q 1787 595 1752 671 q 1823 391 1823 518 l 1812 347 l 1042 347 q 1080 166 1042 227 q 1225 94 1118 105 q 1310 89 1258 90 q 1431 87 1361 87 q 1630 111 1571 87 q 1678 149 1663 125 q 1693 217 1693 174 l 1823 217 q 1760 56 1823 105 q 1594 -9 1697 7 q 1413 -22 1509 -22 m 575 87 q 657 89 618 87 q 728 94 695 91 q 842 135 802 102 q 897 227 882 168 q 911 369 911 285 q 894 523 911 466 q 828 612 874 585 q 715 645 783 639 q 564 651 648 651 l 559 651 q 408 646 476 651 q 293 608 339 640 q 234 520 250 578 q 217 388 217 463 q 224 239 217 302 q 277 138 232 176 q 339 107 301 118 q 446 90 390 92 q 575 87 502 87 m 1042 434 l 1693 434 q 1622 608 1693 561 q 1519 644 1579 637 q 1381 651 1459 651 q 1242 647 1308 651 q 1128 622 1176 643 q 1059 551 1080 601 q 1042 434 1042 507 z "},"p":{"ha":1111,"x_min":90,"x_max":1046,"o":"m 916 395 q 906 550 916 492 q 863 638 896 608 q 759 677 829 667 q 568 688 689 688 q 389 677 457 688 q 283 638 320 667 q 233 550 247 608 q 220 395 220 492 q 233 234 220 294 q 283 143 247 174 q 389 103 320 113 q 568 94 457 94 q 759 103 689 94 q 863 143 829 113 q 906 234 896 174 q 916 395 916 294 m 90 -260 l 90 781 l 220 781 l 220 692 q 356 777 269 758 q 568 796 442 796 q 790 783 699 796 q 938 728 882 769 q 1020 608 994 688 q 1046 395 1046 528 q 1020 176 1046 258 q 938 53 994 94 q 790 -2 882 12 q 568 -15 699 -15 q 356 4 442 -15 q 220 90 269 23 l 220 -260 l 90 -260 z "},"ṗ":{"ha":1111,"x_min":90,"x_max":1046,"o":"m 916 395 q 906 550 916 492 q 863 638 896 608 q 759 677 829 667 q 568 688 689 688 q 389 677 457 688 q 283 638 320 667 q 233 550 247 608 q 220 395 220 492 q 233 234 220 294 q 283 143 247 174 q 389 103 320 113 q 568 94 457 94 q 759 103 689 94 q 863 143 829 113 q 906 234 896 174 q 916 395 916 294 m 90 -260 l 90 781 l 220 781 l 220 692 q 356 777 269 758 q 568 796 442 796 q 790 783 699 796 q 938 728 882 769 q 1020 608 994 688 q 1046 395 1046 528 q 1020 176 1046 258 q 938 53 994 94 q 790 -2 882 12 q 568 -15 699 -15 q 356 4 442 -15 q 220 90 269 23 l 220 -260 l 90 -260 m 490 911 l 490 1042 l 621 1042 l 621 911 l 490 911 z "},"þ":{"ha":1085,"x_min":87,"x_max":1042,"o":"m 87 -260 l 87 1042 l 217 1042 l 217 652 q 302 720 243 696 q 440 751 361 743 q 601 760 519 760 q 785 741 695 760 q 982 625 923 714 q 1042 369 1042 535 q 1017 183 1042 260 q 933 60 993 106 q 788 -2 879 17 q 601 -22 696 -22 q 519 -21 554 -22 q 463 -17 485 -20 q 217 87 262 5 l 217 -260 l 87 -260 m 533 87 l 610 87 q 789 107 722 87 q 854 140 831 120 q 894 200 877 160 q 911 369 911 243 q 890 548 911 496 q 821 620 869 598 q 707 646 772 641 q 570 651 642 651 q 504 650 534 651 q 448 648 474 650 q 250 559 294 640 q 217 371 217 500 q 250 180 217 241 q 314 117 273 137 q 411 92 355 97 q 533 87 467 87 z "},"q":{"ha":1111,"x_min":65,"x_max":1021,"o":"m 891 395 q 878 550 891 492 q 827 638 864 608 q 722 677 791 667 q 543 688 654 688 q 352 677 422 688 q 248 638 281 667 q 205 550 215 608 q 195 395 195 492 q 205 234 195 294 q 248 143 215 174 q 352 103 281 113 q 543 94 422 94 q 722 103 654 94 q 827 143 791 113 q 878 234 864 174 q 891 395 891 294 m 65 395 q 91 608 65 528 q 173 728 117 688 q 321 783 229 769 q 543 796 412 796 q 755 777 669 796 q 891 692 842 758 l 891 781 l 1021 781 l 1021 -260 l 891 -260 l 891 90 q 755 4 842 23 q 543 -15 669 -15 q 321 -2 412 -15 q 173 53 229 12 q 91 176 117 94 q 65 395 65 258 z "},"r":{"ha":669,"x_min":100,"x_max":589,"o":"m 100 0 l 100 781 l 231 781 l 231 673 q 274 731 252 708 q 332 768 296 754 q 429 787 368 781 q 589 793 490 793 l 589 684 q 381 674 455 684 q 276 642 308 665 q 237 579 244 619 q 231 477 231 539 l 231 0 l 100 0 z "},"ŕ":{"ha":669,"x_min":100,"x_max":619,"o":"m 100 0 l 100 781 l 231 781 l 231 673 q 274 731 252 708 q 332 768 296 754 q 429 787 368 781 q 589 793 490 793 l 589 684 q 381 674 455 684 q 276 642 308 665 q 237 579 244 619 q 231 477 231 539 l 231 0 l 100 0 m 192 910 l 149 975 l 539 1301 l 619 1184 l 192 910 z "},"ř":{"ha":669,"x_min":62,"x_max":626,"o":"m 100 0 l 100 781 l 231 781 l 231 673 q 274 731 252 708 q 332 768 296 754 q 429 787 368 781 q 589 793 490 793 l 589 684 q 381 674 455 684 q 276 642 308 665 q 237 579 244 619 q 231 477 231 539 l 231 0 l 100 0 m 279 892 l 62 1218 l 149 1283 l 344 979 l 539 1283 l 626 1218 l 409 892 l 279 892 z "},"ŗ":{"ha":669,"x_min":57,"x_max":589,"o":"m 100 0 l 100 781 l 231 781 l 231 673 q 274 731 252 708 q 332 768 296 754 q 429 787 368 781 q 589 793 490 793 l 589 684 q 381 674 455 684 q 276 642 308 665 q 237 579 244 619 q 231 477 231 539 l 231 0 l 100 0 m 231 -103 l 144 -363 l 57 -363 l 100 -103 l 231 -103 z "},"ȑ":{"ha":669,"x_min":100,"x_max":589,"o":"m 100 0 l 100 781 l 231 781 l 231 673 q 274 731 252 708 q 332 768 296 754 q 429 787 368 781 q 589 793 490 793 l 589 684 q 381 674 455 684 q 276 642 308 665 q 237 579 244 619 q 231 477 231 539 l 231 0 l 100 0 z "},"ȓ":{"ha":669,"x_min":83,"x_max":604,"o":"m 100 0 l 100 781 l 231 781 l 231 673 q 274 731 252 708 q 332 768 296 754 q 429 787 368 781 q 589 793 490 793 l 589 684 q 381 674 455 684 q 276 642 308 665 q 237 579 244 619 q 231 477 231 539 l 231 0 l 100 0 m 344 1151 q 485 1128 427 1151 q 573 1048 543 1105 q 604 886 604 990 l 496 886 q 452 1041 496 1015 q 344 1057 425 1057 q 239 1043 262 1057 q 192 886 192 1015 l 83 886 q 114 1048 83 990 q 203 1128 145 1105 q 344 1151 262 1151 z "},"s":{"ha":1078,"x_min":94,"x_max":991,"o":"m 528 -15 q 299 -5 386 -15 q 169 30 213 4 q 109 103 124 56 q 94 227 94 151 l 218 227 q 224 158 218 184 q 259 118 231 132 q 352 99 288 104 q 532 94 416 94 q 723 99 654 94 q 821 118 791 104 q 857 158 850 132 q 863 228 863 184 q 854 307 863 281 q 809 343 844 334 q 696 353 774 352 l 386 356 q 203 376 266 357 q 117 443 140 395 q 94 579 94 491 q 119 706 94 661 q 199 770 144 751 q 340 792 253 789 q 549 796 427 796 q 779 787 694 796 q 906 754 864 779 q 962 683 949 730 q 975 562 975 637 l 850 562 q 844 632 850 606 q 811 669 838 657 q 725 684 785 681 q 556 688 665 688 q 364 685 433 688 q 265 672 296 682 q 228 640 235 662 q 221 579 221 618 q 225 517 221 540 q 249 483 230 494 q 311 468 268 471 q 431 463 354 464 l 699 460 q 883 440 820 459 q 968 372 945 422 q 991 228 991 322 q 966 94 991 143 q 887 22 941 45 q 744 -8 833 -1 q 528 -15 656 -15 z "},"ś":{"ha":1078,"x_min":94,"x_max":991,"o":"m 528 -15 q 299 -5 386 -15 q 169 30 213 4 q 109 103 124 56 q 94 227 94 151 l 218 227 q 224 158 218 184 q 259 118 231 132 q 352 99 288 104 q 532 94 416 94 q 723 99 654 94 q 821 118 791 104 q 857 158 850 132 q 863 228 863 184 q 854 307 863 281 q 809 343 844 334 q 696 353 774 352 l 386 356 q 203 376 266 357 q 117 443 140 395 q 94 579 94 491 q 119 706 94 661 q 199 770 144 751 q 340 792 253 789 q 549 796 427 796 q 779 787 694 796 q 906 754 864 779 q 962 683 949 730 q 975 562 975 637 l 850 562 q 844 632 850 606 q 811 669 838 657 q 725 684 785 681 q 556 688 665 688 q 364 685 433 688 q 265 672 296 682 q 228 640 235 662 q 221 579 221 618 q 225 517 221 540 q 249 483 230 494 q 311 468 268 471 q 431 463 354 464 l 699 460 q 883 440 820 459 q 968 372 945 422 q 991 228 991 322 q 966 94 991 143 q 887 22 941 45 q 744 -8 833 -1 q 528 -15 656 -15 m 387 910 l 344 975 l 734 1301 l 814 1184 l 387 910 z "},"š":{"ha":1078,"x_min":94,"x_max":991,"o":"m 528 -15 q 299 -5 386 -15 q 169 30 213 4 q 109 103 124 56 q 94 227 94 151 l 218 227 q 224 158 218 184 q 259 118 231 132 q 352 99 288 104 q 532 94 416 94 q 723 99 654 94 q 821 118 791 104 q 857 158 850 132 q 863 228 863 184 q 854 307 863 281 q 809 343 844 334 q 696 353 774 352 l 386 356 q 203 376 266 357 q 117 443 140 395 q 94 579 94 491 q 119 706 94 661 q 199 770 144 751 q 340 792 253 789 q 549 796 427 796 q 779 787 694 796 q 906 754 864 779 q 962 683 949 730 q 975 562 975 637 l 850 562 q 844 632 850 606 q 811 669 838 657 q 725 684 785 681 q 556 688 665 688 q 364 685 433 688 q 265 672 296 682 q 228 640 235 662 q 221 579 221 618 q 225 517 221 540 q 249 483 230 494 q 311 468 268 471 q 431 463 354 464 l 699 460 q 883 440 820 459 q 968 372 945 422 q 991 228 991 322 q 966 94 991 143 q 887 22 941 45 q 744 -8 833 -1 q 528 -15 656 -15 m 474 892 l 257 1218 l 344 1283 l 539 979 l 734 1283 l 821 1218 l 604 892 l 474 892 z "},"ş":{"ha":1078,"x_min":94,"x_max":991,"o":"m 528 -15 q 299 -5 386 -15 q 169 30 213 4 q 109 103 124 56 q 94 227 94 151 l 218 227 q 224 158 218 184 q 259 118 231 132 q 352 99 288 104 q 532 94 416 94 q 723 99 654 94 q 821 118 791 104 q 857 158 850 132 q 863 228 863 184 q 854 307 863 281 q 809 343 844 334 q 696 353 774 352 l 386 356 q 203 376 266 357 q 117 443 140 395 q 94 579 94 491 q 119 706 94 661 q 199 770 144 751 q 340 792 253 789 q 549 796 427 796 q 779 787 694 796 q 906 754 864 779 q 962 683 949 730 q 975 562 975 637 l 850 562 q 844 632 850 606 q 811 669 838 657 q 725 684 785 681 q 556 688 665 688 q 364 685 433 688 q 265 672 296 682 q 228 640 235 662 q 221 579 221 618 q 225 517 221 540 q 249 483 230 494 q 311 468 268 471 q 431 463 354 464 l 699 460 q 883 440 820 459 q 968 372 945 422 q 991 228 991 322 q 966 94 991 143 q 887 22 941 45 q 744 -8 833 -1 q 528 -15 656 -15 m 486 -369 l 486 -260 q 547 -257 517 -260 q 596 -241 576 -254 q 616 -203 616 -229 q 580 -162 616 -172 q 486 -152 544 -152 l 486 43 l 572 43 l 572 -87 q 703 -116 659 -87 q 746 -216 746 -146 q 713 -308 746 -275 q 622 -355 680 -342 q 486 -369 563 -369 z "},"ŝ":{"ha":1078,"x_min":94,"x_max":991,"o":"m 528 -15 q 299 -5 386 -15 q 169 30 213 4 q 109 103 124 56 q 94 227 94 151 l 218 227 q 224 158 218 184 q 259 118 231 132 q 352 99 288 104 q 532 94 416 94 q 723 99 654 94 q 821 118 791 104 q 857 158 850 132 q 863 228 863 184 q 854 307 863 281 q 809 343 844 334 q 696 353 774 352 l 386 356 q 203 376 266 357 q 117 443 140 395 q 94 579 94 491 q 119 706 94 661 q 199 770 144 751 q 340 792 253 789 q 549 796 427 796 q 779 787 694 796 q 906 754 864 779 q 962 683 949 730 q 975 562 975 637 l 850 562 q 844 632 850 606 q 811 669 838 657 q 725 684 785 681 q 556 688 665 688 q 364 685 433 688 q 265 672 296 682 q 228 640 235 662 q 221 579 221 618 q 225 517 221 540 q 249 483 230 494 q 311 468 268 471 q 431 463 354 464 l 699 460 q 883 440 820 459 q 968 372 945 422 q 991 228 991 322 q 966 94 991 143 q 887 22 941 45 q 744 -8 833 -1 q 528 -15 656 -15 m 344 888 l 257 954 l 474 1279 l 604 1279 l 821 954 l 734 888 l 539 1192 l 344 888 z "},"ș":{"ha":1078,"x_min":94,"x_max":991,"o":"m 528 -15 q 299 -5 386 -15 q 169 30 213 4 q 109 103 124 56 q 94 227 94 151 l 218 227 q 224 158 218 184 q 259 118 231 132 q 352 99 288 104 q 532 94 416 94 q 723 99 654 94 q 821 118 791 104 q 857 158 850 132 q 863 228 863 184 q 854 307 863 281 q 809 343 844 334 q 696 353 774 352 l 386 356 q 203 376 266 357 q 117 443 140 395 q 94 579 94 491 q 119 706 94 661 q 199 770 144 751 q 340 792 253 789 q 549 796 427 796 q 779 787 694 796 q 906 754 864 779 q 962 683 949 730 q 975 562 975 637 l 850 562 q 844 632 850 606 q 811 669 838 657 q 725 684 785 681 q 556 688 665 688 q 364 685 433 688 q 265 672 296 682 q 228 640 235 662 q 221 579 221 618 q 225 517 221 540 q 249 483 230 494 q 311 468 268 471 q 431 463 354 464 l 699 460 q 883 440 820 459 q 968 372 945 422 q 991 228 991 322 q 966 94 991 143 q 887 22 941 45 q 744 -8 833 -1 q 528 -15 656 -15 m 604 -103 l 517 -363 l 431 -363 l 474 -103 l 604 -103 z "},"ṡ":{"ha":1078,"x_min":94,"x_max":991,"o":"m 528 -15 q 299 -5 386 -15 q 169 30 213 4 q 109 103 124 56 q 94 227 94 151 l 218 227 q 224 158 218 184 q 259 118 231 132 q 352 99 288 104 q 532 94 416 94 q 723 99 654 94 q 821 118 791 104 q 857 158 850 132 q 863 228 863 184 q 854 307 863 281 q 809 343 844 334 q 696 353 774 352 l 386 356 q 203 376 266 357 q 117 443 140 395 q 94 579 94 491 q 119 706 94 661 q 199 770 144 751 q 340 792 253 789 q 549 796 427 796 q 779 787 694 796 q 906 754 864 779 q 962 683 949 730 q 975 562 975 637 l 850 562 q 844 632 850 606 q 811 669 838 657 q 725 684 785 681 q 556 688 665 688 q 364 685 433 688 q 265 672 296 682 q 228 640 235 662 q 221 579 221 618 q 225 517 221 540 q 249 483 230 494 q 311 468 268 471 q 431 463 354 464 l 699 460 q 883 440 820 459 q 968 372 945 422 q 991 228 991 322 q 966 94 991 143 q 887 22 941 45 q 744 -8 833 -1 q 528 -15 656 -15 m 474 911 l 474 1042 l 604 1042 l 604 911 l 474 911 z "},"ß":{"ha":1389,"x_min":87,"x_max":1302,"o":"m 87 -87 l 87 718 q 101 861 87 800 q 157 961 115 922 q 522 1042 244 1042 l 868 1042 q 1139 979 1058 1042 q 1195 908 1175 952 q 1215 804 1215 863 q 1214 758 1215 779 q 1210 720 1213 736 q 1085 564 1185 574 q 1239 500 1177 559 q 1302 319 1302 441 q 1288 179 1302 239 q 1232 81 1274 119 q 867 0 1145 0 l 347 0 l 347 109 l 824 109 q 934 110 879 109 q 1037 119 989 111 q 1112 144 1084 126 q 1163 218 1154 170 q 1172 340 1172 267 q 1149 438 1172 404 q 1105 473 1132 464 q 1036 490 1079 482 q 824 499 983 499 l 347 499 l 347 608 l 829 608 q 949 612 896 608 q 1038 642 1003 616 q 1076 700 1067 663 q 1085 788 1085 738 q 1067 870 1085 844 q 1008 913 1050 895 q 825 933 964 933 l 565 933 q 339 921 401 933 q 275 898 298 913 q 235 851 252 883 q 217 718 217 820 l 217 -87 l 87 -87 z "},"t":{"ha":880,"x_min":121,"x_max":777,"o":"m 448 0 q 257 24 329 0 q 153 110 185 48 q 121 282 121 171 l 121 995 l 251 995 l 251 781 l 732 781 l 732 674 l 251 674 l 251 282 q 265 169 251 206 q 321 120 279 132 q 448 109 363 109 q 567 113 524 109 q 630 139 610 118 q 656 207 650 159 q 661 340 661 254 l 777 340 q 763 160 777 228 q 713 58 749 92 q 613 12 677 23 q 448 0 549 0 z "},"ŧ":{"ha":977,"x_min":43,"x_max":820,"o":"m 43 387 l 43 495 l 164 495 l 164 995 l 294 995 l 294 781 l 775 781 l 775 674 l 294 674 l 294 495 l 564 495 l 564 387 l 294 387 l 294 282 q 308 169 294 206 q 365 120 322 132 q 492 109 407 109 q 610 113 567 109 q 673 139 653 118 q 699 207 694 159 q 705 340 705 254 l 820 340 q 806 160 820 228 q 756 58 792 92 q 657 12 721 23 q 492 0 593 0 q 300 24 372 0 q 196 110 229 48 q 164 282 164 171 l 164 387 l 43 387 z "},"ť":{"ha":880,"x_min":121,"x_max":777,"o":"m 448 0 q 257 24 329 0 q 153 110 185 48 q 121 282 121 171 l 121 995 l 251 995 l 251 781 l 732 781 l 732 674 l 251 674 l 251 282 q 265 169 251 206 q 321 120 279 132 q 448 109 363 109 q 567 113 524 109 q 630 139 610 118 q 656 207 650 159 q 661 340 661 254 l 777 340 q 763 160 777 228 q 713 58 749 92 q 613 12 677 23 q 448 0 549 0 m 401 890 l 444 1151 l 574 1151 l 488 890 l 401 890 z "},"ț":{"ha":880,"x_min":121,"x_max":777,"o":"m 448 0 q 257 24 329 0 q 153 110 185 48 q 121 282 121 171 l 121 995 l 251 995 l 251 781 l 732 781 l 732 674 l 251 674 l 251 282 q 265 169 251 206 q 321 120 279 132 q 448 109 363 109 q 567 113 524 109 q 630 139 610 118 q 656 207 650 159 q 661 340 661 254 l 777 340 q 763 160 777 228 q 713 58 749 92 q 613 12 677 23 q 448 0 549 0 m 505 -103 l 418 -363 l 332 -363 l 375 -103 l 505 -103 z "},"ṫ":{"ha":880,"x_min":121,"x_max":777,"o":"m 448 0 q 257 24 329 0 q 153 110 185 48 q 121 282 121 171 l 121 995 l 251 995 l 251 781 l 732 781 l 732 674 l 251 674 l 251 282 q 265 169 251 206 q 321 120 279 132 q 448 109 363 109 q 567 113 524 109 q 630 139 610 118 q 656 207 650 159 q 661 340 661 254 l 777 340 q 763 160 777 228 q 713 58 749 92 q 613 12 677 23 q 448 0 549 0 m 382 1098 l 382 1228 l 512 1228 l 512 1098 l 382 1098 z "},"u":{"ha":1086,"x_min":84,"x_max":996,"o":"m 488 -15 q 247 19 335 -15 q 121 131 159 52 q 84 347 84 210 l 84 781 l 215 781 l 215 347 q 228 220 215 270 q 272 143 240 170 q 362 104 304 115 q 511 94 420 94 q 724 116 647 94 q 834 186 802 138 q 866 311 866 234 l 866 781 l 996 781 l 996 0 l 866 0 l 866 104 q 794 38 838 64 q 678 -2 751 12 q 488 -15 606 -15 z "},"ú":{"ha":1086,"x_min":84,"x_max":996,"o":"m 488 -15 q 247 19 335 -15 q 121 131 159 52 q 84 347 84 210 l 84 781 l 215 781 l 215 347 q 228 220 215 270 q 272 143 240 170 q 362 104 304 115 q 511 94 420 94 q 724 116 647 94 q 834 186 802 138 q 866 311 866 234 l 866 781 l 996 781 l 996 0 l 866 0 l 866 104 q 794 38 838 64 q 678 -2 751 12 q 488 -15 606 -15 m 391 910 l 348 975 l 739 1301 l 819 1184 l 391 910 z "},"ŭ":{"ha":1086,"x_min":84,"x_max":996,"o":"m 488 -15 q 247 19 335 -15 q 121 131 159 52 q 84 347 84 210 l 84 781 l 215 781 l 215 347 q 228 220 215 270 q 272 143 240 170 q 362 104 304 115 q 511 94 420 94 q 724 116 647 94 q 834 186 802 138 q 866 311 866 234 l 866 781 l 996 781 l 996 0 l 866 0 l 866 104 q 794 38 838 64 q 678 -2 751 12 q 488 -15 606 -15 m 543 886 q 403 909 461 886 q 314 990 345 932 q 283 1151 283 1047 l 391 1151 q 438 994 391 1023 q 543 980 462 980 q 652 996 625 980 q 695 1151 695 1023 l 804 1151 q 773 990 804 1047 q 684 909 742 932 q 543 886 626 886 z "},"ǔ":{"ha":1086,"x_min":84,"x_max":996,"o":"m 488 -15 q 247 19 335 -15 q 121 131 159 52 q 84 347 84 210 l 84 781 l 215 781 l 215 347 q 228 220 215 270 q 272 143 240 170 q 362 104 304 115 q 511 94 420 94 q 724 116 647 94 q 834 186 802 138 q 866 311 866 234 l 866 781 l 996 781 l 996 0 l 866 0 l 866 104 q 794 38 838 64 q 678 -2 751 12 q 488 -15 606 -15 m 478 892 l 261 1218 l 348 1283 l 543 979 l 739 1283 l 825 1218 l 608 892 l 478 892 z "},"û":{"ha":1086,"x_min":84,"x_max":996,"o":"m 488 -15 q 247 19 335 -15 q 121 131 159 52 q 84 347 84 210 l 84 781 l 215 781 l 215 347 q 228 220 215 270 q 272 143 240 170 q 362 104 304 115 q 511 94 420 94 q 724 116 647 94 q 834 186 802 138 q 866 311 866 234 l 866 781 l 996 781 l 996 0 l 866 0 l 866 104 q 794 38 838 64 q 678 -2 751 12 q 488 -15 606 -15 m 348 888 l 261 954 l 478 1279 l 608 1279 l 825 954 l 739 888 l 543 1192 l 348 888 z "},"ȕ":{"ha":1086,"x_min":84,"x_max":996,"o":"m 488 -15 q 247 19 335 -15 q 121 131 159 52 q 84 347 84 210 l 84 781 l 215 781 l 215 347 q 228 220 215 270 q 272 143 240 170 q 362 104 304 115 q 511 94 420 94 q 724 116 647 94 q 834 186 802 138 q 866 311 866 234 l 866 781 l 996 781 l 996 0 l 866 0 l 866 104 q 794 38 838 64 q 678 -2 751 12 q 488 -15 606 -15 z "},"ü":{"ha":1086,"x_min":84,"x_max":996,"o":"m 488 -15 q 247 19 335 -15 q 121 131 159 52 q 84 347 84 210 l 84 781 l 215 781 l 215 347 q 228 220 215 270 q 272 143 240 170 q 362 104 304 115 q 511 94 420 94 q 724 116 647 94 q 834 186 802 138 q 866 311 866 234 l 866 781 l 996 781 l 996 0 l 866 0 l 866 104 q 794 38 838 64 q 678 -2 751 12 q 488 -15 606 -15 m 718 911 l 718 1042 l 848 1042 l 848 911 l 718 911 m 238 911 l 238 1042 l 368 1042 l 368 911 l 238 911 z "},"ù":{"ha":1086,"x_min":84,"x_max":996,"o":"m 488 -15 q 247 19 335 -15 q 121 131 159 52 q 84 347 84 210 l 84 781 l 215 781 l 215 347 q 228 220 215 270 q 272 143 240 170 q 362 104 304 115 q 511 94 420 94 q 724 116 647 94 q 834 186 802 138 q 866 311 866 234 l 866 781 l 996 781 l 996 0 l 866 0 l 866 104 q 794 38 838 64 q 678 -2 751 12 q 488 -15 606 -15 m 781 909 l 353 1183 l 433 1299 l 824 974 l 781 909 z "},"ű":{"ha":1086,"x_min":84,"x_max":1163,"o":"m 488 -15 q 247 19 335 -15 q 121 131 159 52 q 84 347 84 210 l 84 781 l 215 781 l 215 347 q 228 220 215 270 q 272 143 240 170 q 362 104 304 115 q 511 94 420 94 q 724 116 647 94 q 834 186 802 138 q 866 311 866 234 l 866 781 l 996 781 l 996 0 l 866 0 l 866 104 q 794 38 838 64 q 678 -2 751 12 q 488 -15 606 -15 m 729 884 l 686 949 l 1076 1275 l 1163 1145 l 729 884 m 354 884 l 311 949 l 701 1275 l 788 1145 l 354 884 z "},"ȗ":{"ha":1086,"x_min":84,"x_max":996,"o":"m 488 -15 q 247 19 335 -15 q 121 131 159 52 q 84 347 84 210 l 84 781 l 215 781 l 215 347 q 228 220 215 270 q 272 143 240 170 q 362 104 304 115 q 511 94 420 94 q 724 116 647 94 q 834 186 802 138 q 866 311 866 234 l 866 781 l 996 781 l 996 0 l 866 0 l 866 104 q 794 38 838 64 q 678 -2 751 12 q 488 -15 606 -15 m 543 1151 q 684 1128 626 1151 q 773 1048 742 1105 q 804 886 804 990 l 695 886 q 652 1041 695 1015 q 543 1057 625 1057 q 438 1043 462 1057 q 391 886 391 1015 l 283 886 q 314 1048 283 990 q 403 1128 345 1105 q 543 1151 461 1151 z "},"ū":{"ha":1086,"x_min":84,"x_max":996,"o":"m 488 -15 q 247 19 335 -15 q 121 131 159 52 q 84 347 84 210 l 84 781 l 215 781 l 215 347 q 228 220 215 270 q 272 143 240 170 q 362 104 304 115 q 511 94 420 94 q 724 116 647 94 q 834 186 802 138 q 866 311 866 234 l 866 781 l 996 781 l 996 0 l 866 0 l 866 104 q 794 38 838 64 q 678 -2 751 12 q 488 -15 606 -15 m 283 885 l 283 994 l 804 994 l 804 885 l 283 885 z "},"ų":{"ha":1086,"x_min":84,"x_max":996,"o":"m 488 -15 q 247 19 335 -15 q 121 131 159 52 q 84 347 84 210 l 84 781 l 215 781 l 215 347 q 228 220 215 270 q 272 143 240 170 q 362 104 304 115 q 511 94 420 94 q 724 116 647 94 q 834 186 802 138 q 866 311 866 234 l 866 781 l 996 781 l 996 0 l 866 0 l 866 104 q 794 38 838 64 q 678 -2 751 12 q 488 -15 606 -15 m 957 -377 q 719 -286 781 -377 q 696 -216 696 -252 q 704 -158 696 -180 q 724 -115 711 -136 q 870 14 770 -41 l 957 14 q 827 -182 827 -73 q 863 -252 827 -235 q 957 -269 899 -269 l 957 -377 z "},"ů":{"ha":1086,"x_min":84,"x_max":996,"o":"m 488 -15 q 247 19 335 -15 q 121 131 159 52 q 84 347 84 210 l 84 781 l 215 781 l 215 347 q 228 220 215 270 q 272 143 240 170 q 362 104 304 115 q 511 94 420 94 q 724 116 647 94 q 834 186 802 138 q 866 311 866 234 l 866 781 l 996 781 l 996 0 l 866 0 l 866 104 q 794 38 838 64 q 678 -2 751 12 q 488 -15 606 -15 m 543 909 q 368 967 431 909 q 304 1126 304 1025 q 371 1286 304 1230 q 543 1343 437 1343 q 719 1284 656 1343 q 782 1126 782 1226 q 716 965 782 1021 q 543 909 650 909 m 543 996 q 654 1043 617 996 q 673 1126 673 1067 q 643 1223 673 1191 q 543 1256 612 1256 q 432 1208 469 1256 q 413 1126 413 1185 q 444 1028 413 1061 q 543 996 475 996 z "},"ũ":{"ha":1086,"x_min":84,"x_max":996,"o":"m 488 -15 q 247 19 335 -15 q 121 131 159 52 q 84 347 84 210 l 84 781 l 215 781 l 215 347 q 228 220 215 270 q 272 143 240 170 q 362 104 304 115 q 511 94 420 94 q 724 116 647 94 q 834 186 802 138 q 866 311 866 234 l 866 781 l 996 781 l 996 0 l 866 0 l 866 104 q 794 38 838 64 q 678 -2 751 12 q 488 -15 606 -15 m 239 910 q 289 1039 239 994 q 413 1084 339 1084 q 562 1051 484 1084 q 610 1030 584 1042 q 664 1019 637 1019 q 707 1031 696 1019 q 717 1084 717 1044 l 847 1084 q 785 947 847 994 q 673 910 736 910 q 525 943 602 910 q 476 964 503 952 q 422 975 450 975 q 379 963 388 975 q 370 910 370 950 l 239 910 z "},"v":{"ha":1077,"x_min":43,"x_max":1034,"o":"m 452 0 l 43 781 l 197 781 l 538 98 l 540 98 l 888 781 l 1034 781 l 625 0 l 452 0 z "},"w":{"ha":1519,"x_min":47,"x_max":1472,"o":"m 347 0 l 47 781 l 195 781 l 433 105 l 435 105 l 694 781 l 825 781 l 1082 105 l 1083 105 l 1324 781 l 1472 781 l 1172 0 l 998 0 l 760 633 l 759 633 l 521 0 l 347 0 z "},"ẃ":{"ha":1519,"x_min":47,"x_max":1472,"o":"m 347 0 l 47 781 l 195 781 l 433 105 l 435 105 l 694 781 l 825 781 l 1082 105 l 1083 105 l 1324 781 l 1472 781 l 1172 0 l 998 0 l 760 633 l 759 633 l 521 0 l 347 0 m 608 910 l 564 975 l 955 1301 l 1035 1184 l 608 910 z "},"ŵ":{"ha":1519,"x_min":47,"x_max":1472,"o":"m 347 0 l 47 781 l 195 781 l 433 105 l 435 105 l 694 781 l 825 781 l 1082 105 l 1083 105 l 1324 781 l 1472 781 l 1172 0 l 998 0 l 760 633 l 759 633 l 521 0 l 347 0 m 564 888 l 477 954 l 694 1279 l 825 1279 l 1042 954 l 955 888 l 760 1192 l 564 888 z "},"ẅ":{"ha":1519,"x_min":47,"x_max":1472,"o":"m 347 0 l 47 781 l 195 781 l 433 105 l 435 105 l 694 781 l 825 781 l 1082 105 l 1083 105 l 1324 781 l 1472 781 l 1172 0 l 998 0 l 760 633 l 759 633 l 521 0 l 347 0 m 935 911 l 935 1042 l 1065 1042 l 1065 911 l 935 911 m 454 911 l 454 1042 l 585 1042 l 585 911 l 454 911 z "},"ẁ":{"ha":1519,"x_min":47,"x_max":1472,"o":"m 347 0 l 47 781 l 195 781 l 433 105 l 435 105 l 694 781 l 825 781 l 1082 105 l 1083 105 l 1324 781 l 1472 781 l 1172 0 l 998 0 l 760 633 l 759 633 l 521 0 l 347 0 m 997 909 l 570 1183 l 650 1299 l 1040 974 l 997 909 z "},"x":{"ha":1104,"x_min":65,"x_max":1039,"o":"m 65 0 l 465 397 l 84 781 l 258 781 l 555 479 l 846 781 l 1020 781 l 639 398 l 1039 0 l 865 0 l 552 327 l 239 0 l 65 0 z "},"y":{"ha":1063,"x_min":31,"x_max":1017,"o":"m 209 -260 l 209 -152 q 325 -149 279 -152 q 401 -132 370 -146 q 457 -87 432 -118 q 509 0 481 -56 l 465 0 l 31 781 l 180 781 l 552 97 l 865 781 l 1017 781 l 621 -43 q 567 -139 595 -98 q 496 -207 538 -180 q 385 -247 454 -234 q 209 -260 317 -260 z "},"ý":{"ha":1063,"x_min":31,"x_max":1017,"o":"m 209 -260 l 209 -152 q 325 -149 279 -152 q 401 -132 370 -146 q 457 -87 432 -118 q 509 0 481 -56 l 465 0 l 31 781 l 180 781 l 552 97 l 865 781 l 1017 781 l 621 -43 q 567 -139 595 -98 q 496 -207 538 -180 q 385 -247 454 -234 q 209 -260 317 -260 m 380 910 l 336 975 l 727 1301 l 807 1184 l 380 910 z "},"ŷ":{"ha":1063,"x_min":31,"x_max":1017,"o":"m 209 -260 l 209 -152 q 325 -149 279 -152 q 401 -132 370 -146 q 457 -87 432 -118 q 509 0 481 -56 l 465 0 l 31 781 l 180 781 l 552 97 l 865 781 l 1017 781 l 621 -43 q 567 -139 595 -98 q 496 -207 538 -180 q 385 -247 454 -234 q 209 -260 317 -260 m 336 888 l 250 954 l 467 1279 l 597 1279 l 814 954 l 727 888 l 532 1192 l 336 888 z "},"ÿ":{"ha":1063,"x_min":31,"x_max":1017,"o":"m 209 -260 l 209 -152 q 325 -149 279 -152 q 401 -132 370 -146 q 457 -87 432 -118 q 509 0 481 -56 l 465 0 l 31 781 l 180 781 l 552 97 l 865 781 l 1017 781 l 621 -43 q 567 -139 595 -98 q 496 -207 538 -180 q 385 -247 454 -234 q 209 -260 317 -260 m 707 911 l 707 1042 l 837 1042 l 837 911 l 707 911 m 227 911 l 227 1042 l 357 1042 l 357 911 l 227 911 z "},"ỳ":{"ha":1063,"x_min":31,"x_max":1017,"o":"m 209 -260 l 209 -152 q 325 -149 279 -152 q 401 -132 370 -146 q 457 -87 432 -118 q 509 0 481 -56 l 465 0 l 31 781 l 180 781 l 552 97 l 865 781 l 1017 781 l 621 -43 q 567 -139 595 -98 q 496 -207 538 -180 q 385 -247 454 -234 q 209 -260 317 -260 m 769 909 l 342 1183 l 422 1299 l 812 974 l 769 909 z "},"ȳ":{"ha":1063,"x_min":31,"x_max":1017,"o":"m 209 -260 l 209 -152 q 325 -149 279 -152 q 401 -132 370 -146 q 457 -87 432 -118 q 509 0 481 -56 l 465 0 l 31 781 l 180 781 l 552 97 l 865 781 l 1017 781 l 621 -43 q 567 -139 595 -98 q 496 -207 538 -180 q 385 -247 454 -234 q 209 -260 317 -260 m 271 885 l 271 994 l 792 994 l 792 885 l 271 885 z "},"ỹ":{"ha":1063,"x_min":31,"x_max":1017,"o":"m 209 -260 l 209 -152 q 325 -149 279 -152 q 401 -132 370 -146 q 457 -87 432 -118 q 509 0 481 -56 l 465 0 l 31 781 l 180 781 l 552 97 l 865 781 l 1017 781 l 621 -43 q 567 -139 595 -98 q 496 -207 538 -180 q 385 -247 454 -234 q 209 -260 317 -260 m 228 910 q 278 1039 228 994 q 401 1084 328 1084 q 550 1051 472 1084 q 599 1030 572 1042 q 652 1019 625 1019 q 695 1031 685 1019 q 705 1084 705 1044 l 836 1084 q 773 947 836 994 q 662 910 724 910 q 513 943 591 910 q 465 964 491 952 q 411 975 438 975 q 367 963 376 975 q 358 910 358 950 l 228 910 z "},"z":{"ha":998,"x_min":87,"x_max":911,"o":"m 87 0 l 87 109 l 747 681 l 130 681 l 130 781 l 911 781 l 911 673 l 261 102 l 911 102 l 911 0 l 87 0 z "},"ź":{"ha":998,"x_min":87,"x_max":911,"o":"m 87 0 l 87 109 l 747 681 l 130 681 l 130 781 l 911 781 l 911 673 l 261 102 l 911 102 l 911 0 l 87 0 m 347 910 l 304 975 l 694 1301 l 774 1184 l 347 910 z "},"ž":{"ha":998,"x_min":87,"x_max":911,"o":"m 87 0 l 87 109 l 747 681 l 130 681 l 130 781 l 911 781 l 911 673 l 261 102 l 911 102 l 911 0 l 87 0 m 434 892 l 217 1218 l 304 1283 l 499 979 l 694 1283 l 781 1218 l 564 892 l 434 892 z "},"ż":{"ha":998,"x_min":87,"x_max":911,"o":"m 87 0 l 87 109 l 747 681 l 130 681 l 130 781 l 911 781 l 911 673 l 261 102 l 911 102 l 911 0 l 87 0 m 434 911 l 434 1042 l 564 1042 l 564 911 l 434 911 z "},"ﬁ":{"ha":1020,"x_min":87,"x_max":933,"o":"m 217 0 l 217 682 l 87 682 l 87 781 l 217 781 l 217 815 q 253 986 217 926 q 367 1068 290 1046 q 565 1090 444 1090 l 716 1090 l 716 985 l 564 985 q 421 972 467 985 q 361 924 375 960 q 347 815 347 888 l 347 781 l 716 781 l 716 682 l 347 682 l 347 0 l 217 0 m 803 0 l 803 738 l 933 738 l 933 0 l 803 0 m 803 911 l 803 1042 l 933 1042 l 933 911 l 803 911 z "},"ﬂ":{"ha":1107,"x_min":87,"x_max":977,"o":"m 217 0 l 217 682 l 87 682 l 87 781 l 217 781 l 217 815 q 253 986 217 926 q 367 1068 290 1046 q 565 1090 444 1090 l 716 1090 l 716 985 l 564 985 q 421 972 467 985 q 361 924 375 960 q 347 815 347 888 l 347 781 l 716 781 l 716 682 l 347 682 l 347 0 l 217 0 m 846 0 l 846 1042 l 977 1042 l 977 0 l 846 0 z "},"ǀ":{"ha":304,"x_min":87,"x_max":217,"o":"m 87 -87 l 87 1085 l 217 1085 l 217 -87 l 87 -87 z "},"ǁ":{"ha":608,"x_min":87,"x_max":521,"o":"m 391 -87 l 391 1085 l 521 1085 l 521 -87 l 391 -87 m 87 -87 l 87 1085 l 217 1085 l 217 -87 l 87 -87 z "},"ª":{"ha":1058,"x_min":87,"x_max":941,"o":"m 484 282 q 261 296 349 282 q 130 358 173 311 q 87 506 87 406 q 127 656 87 608 q 255 719 168 705 q 484 733 342 733 q 676 728 598 733 q 815 710 753 722 q 803 846 814 796 q 764 920 793 897 q 680 951 735 944 q 534 958 625 958 q 370 954 429 958 q 284 937 311 949 q 251 903 258 925 q 244 846 244 881 l 119 846 q 138 959 119 916 q 204 1025 157 1002 q 331 1055 250 1047 q 534 1063 411 1063 q 747 1046 666 1063 q 869 985 827 1029 q 926 861 911 941 q 941 658 941 782 l 941 296 l 815 296 l 815 348 q 754 310 793 324 q 649 289 715 296 q 484 282 584 282 m 484 384 q 662 387 595 384 q 761 401 728 389 q 805 439 794 413 q 815 512 815 465 l 815 627 l 484 631 q 341 629 395 633 q 260 613 288 626 q 222 575 232 601 q 213 506 213 550 q 222 438 213 463 q 260 402 232 414 q 341 387 288 391 q 484 384 395 384 z "},"º":{"ha":1128,"x_min":87,"x_max":1042,"o":"m 564 282 q 358 298 450 282 q 204 357 267 313 q 113 484 141 400 q 87 673 87 559 q 146 928 87 839 q 343 1045 206 1018 q 564 1063 434 1063 q 770 1048 679 1063 q 925 989 862 1032 q 1016 862 987 945 q 1042 673 1042 786 q 982 418 1042 507 q 785 300 923 328 q 564 282 695 282 m 534 391 q 647 393 598 391 q 728 398 695 395 q 842 439 802 406 q 896 530 881 472 q 911 673 911 589 q 897 815 911 758 q 842 906 882 873 q 728 947 802 939 q 654 953 695 951 q 564 955 613 955 q 413 949 481 955 q 300 916 346 943 q 235 827 254 889 q 217 692 217 770 q 224 543 217 606 q 277 442 232 479 q 339 411 301 422 q 534 391 408 391 z "},"Δ":{"ha":1128,"x_min":87,"x_max":1042,"o":"m 87 -1 l 477 1042 l 651 1042 l 1042 -1 l 87 -1 m 260 108 l 868 108 l 564 955 l 260 108 z "},"Ω":{"ha":998,"x_min":87,"x_max":911,"o":"m 130 0 l 130 109 l 260 109 q 87 455 87 172 q 123 730 87 633 q 254 873 163 836 q 499 910 345 910 q 692 890 608 910 q 825 815 776 869 q 911 455 911 721 q 738 109 911 172 l 868 109 l 868 0 l 608 0 l 608 152 q 717 188 684 152 q 766 291 750 224 q 781 489 781 350 q 757 699 781 627 q 723 758 744 737 q 663 791 701 779 q 499 802 625 802 q 330 789 371 802 q 241 699 266 770 q 217 455 217 627 q 271 199 217 268 q 321 162 292 173 q 391 152 349 152 l 391 0 l 130 0 z "},"μ":{"ha":1086,"x_min":87,"x_max":999,"o":"m 87 -260 l 87 738 l 218 738 l 218 347 q 228 228 218 279 q 272 144 237 177 q 522 87 332 87 q 854 215 808 87 q 869 304 869 255 l 869 738 l 999 738 l 999 0 l 869 0 l 869 130 q 813 62 848 89 q 730 16 778 35 q 468 -22 628 -22 q 218 22 308 -22 l 218 -260 l 87 -260 z "},"⁄":{"ha":513,"x_min":-47,"x_max":560,"o":"m -47 0 l 430 1042 l 560 1042 l 83 0 l -47 0 z "},"½":{"ha":2060,"x_min":43,"x_max":1973,"o":"m 391 303 l 391 932 l 109 672 l 43 759 l 347 1041 l 521 1041 l 521 303 l 391 303 m 589 0 l 1066 1042 l 1196 1042 l 719 0 l 589 0 m 1236 0 l 1236 152 q 1262 261 1236 223 q 1337 318 1289 299 q 1453 349 1386 336 l 1714 398 q 1789 420 1761 407 q 1830 460 1817 433 q 1843 538 1843 487 q 1813 624 1843 603 q 1720 648 1782 646 q 1661 650 1697 650 q 1577 651 1626 651 q 1434 643 1482 651 q 1377 618 1389 636 q 1366 543 1366 600 l 1236 543 q 1270 685 1236 638 q 1370 746 1303 731 q 1532 760 1436 760 q 1576 760 1554 760 q 1622 760 1598 760 q 1764 755 1693 760 q 1883 728 1835 751 q 1954 656 1935 703 q 1973 524 1973 608 q 1918 367 1973 416 q 1758 296 1863 317 l 1583 261 q 1431 227 1463 237 q 1389 207 1402 218 q 1370 173 1375 195 q 1366 109 1366 151 l 1953 109 l 1953 0 l 1236 0 z "},"¼":{"ha":1979,"x_min":43,"x_max":1926,"o":"m 391 303 l 391 932 l 109 672 l 43 759 l 347 1041 l 521 1041 l 521 303 l 391 303 m 589 0 l 1066 1042 l 1196 1042 l 719 0 l 589 0 m 1632 0 l 1632 164 l 1067 164 l 1067 294 l 1588 760 l 1762 760 l 1762 273 l 1926 273 l 1926 164 l 1762 164 l 1762 0 l 1632 0 m 1198 273 l 1632 273 l 1632 660 l 1198 273 z "},"¾":{"ha":2355,"x_min":68,"x_max":2302,"o":"m 364 303 q 118 354 177 303 q 68 498 68 397 l 198 498 q 219 432 198 444 q 290 416 240 420 q 358 413 326 414 q 409 412 390 412 q 577 413 503 412 q 682 425 651 414 q 724 459 714 435 q 734 528 734 482 q 702 609 734 589 q 604 629 671 629 l 339 629 l 339 738 l 604 738 q 705 761 676 738 q 734 853 734 785 q 705 936 734 916 q 612 956 675 956 q 539 955 581 956 q 432 955 498 955 q 353 954 392 955 q 290 951 314 953 q 218 929 238 946 q 198 848 198 912 l 68 848 q 118 1009 68 961 q 216 1054 155 1044 q 350 1064 278 1064 q 400 1064 378 1064 q 449 1064 421 1064 q 523 1063 477 1063 q 603 1063 557 1063 q 693 1057 648 1062 q 770 1038 739 1052 q 845 967 825 1016 q 865 838 865 919 q 838 736 865 770 q 756 684 811 701 q 824 646 801 666 q 856 593 848 627 q 865 500 865 560 q 834 386 865 427 q 752 329 804 346 q 632 308 699 311 q 490 304 565 304 q 421 303 445 304 q 364 303 398 303 m 904 0 l 1381 1042 l 1512 1042 l 1034 0 l 904 0 m 2007 0 l 2007 164 l 1443 164 l 1443 294 l 1964 760 l 2138 760 l 2138 273 l 2302 273 l 2302 164 l 2138 164 l 2138 0 l 2007 0 m 1573 273 l 2007 273 l 2007 660 l 1573 273 z "},"¹":{"ha":636,"x_min":43,"x_max":521,"o":"m 391 304 l 391 933 l 109 673 l 43 760 l 347 1042 l 521 1042 l 521 304 l 391 304 z "},"²":{"ha":911,"x_min":87,"x_max":825,"o":"m 87 304 l 87 456 q 113 566 87 528 q 189 622 140 604 q 304 653 237 641 l 566 703 q 641 724 612 711 q 682 764 669 737 q 694 843 694 791 q 664 929 694 907 q 571 953 633 950 q 512 955 548 954 q 429 956 477 956 q 285 947 333 956 q 229 923 240 941 q 217 847 217 905 l 87 847 q 121 989 87 943 q 221 1050 155 1036 q 383 1065 287 1065 q 427 1064 405 1065 q 473 1064 450 1064 q 615 1060 545 1064 q 734 1033 686 1055 q 806 960 787 1008 q 825 828 825 913 q 769 671 825 721 q 609 600 714 621 l 434 566 q 282 531 314 542 q 240 511 254 522 q 221 478 226 500 q 217 413 217 456 l 804 413 l 804 304 l 87 304 z "},"³":{"ha":951,"x_min":68,"x_max":865,"o":"m 364 303 q 118 354 177 303 q 68 498 68 397 l 198 498 q 219 432 198 444 q 290 416 240 420 q 358 413 326 414 q 409 412 390 412 q 577 413 503 412 q 682 425 651 414 q 724 459 714 435 q 734 528 734 482 q 702 609 734 589 q 604 629 671 629 l 339 629 l 339 738 l 604 738 q 705 761 676 738 q 734 853 734 785 q 705 936 734 916 q 612 956 675 956 q 539 955 581 956 q 432 955 498 955 q 353 954 392 955 q 290 951 314 953 q 218 929 238 946 q 198 848 198 912 l 68 848 q 118 1009 68 961 q 216 1054 155 1044 q 350 1064 278 1064 q 400 1064 378 1064 q 449 1064 421 1064 q 523 1063 477 1063 q 603 1063 557 1063 q 693 1057 648 1062 q 770 1038 739 1052 q 845 967 825 1016 q 865 838 865 919 q 838 736 865 770 q 756 684 811 701 q 824 646 801 666 q 856 593 848 627 q 865 500 865 560 q 834 386 865 427 q 752 329 804 346 q 632 308 699 311 q 490 304 565 304 q 421 303 445 304 q 364 303 398 303 z "},"⁴":{"ha":966,"x_min":54,"x_max":913,"o":"m 618 303 l 618 467 l 54 467 l 54 597 l 575 1063 l 749 1063 l 749 576 l 913 576 l 913 467 l 749 467 l 749 303 l 618 303 m 184 576 l 618 576 l 618 963 l 184 576 z "}," ":{"ha":395,"x_min":0,"x_max":0,"o":""}," ":{"ha":395,"x_min":0,"x_max":0,"o":""},".":{"ha":304,"x_min":87,"x_max":217,"o":"m 87 0 l 87 130 l 217 130 l 217 0 l 87 0 z "},",":{"ha":304,"x_min":43,"x_max":217,"o":"m 43 -174 l 87 87 l 217 87 l 130 -174 l 43 -174 z "},":":{"ha":304,"x_min":87,"x_max":217,"o":"m 87 521 l 87 651 l 217 651 l 217 521 l 87 521 m 87 130 l 87 260 l 217 260 l 217 130 l 87 130 z "},";":{"ha":304,"x_min":43,"x_max":217,"o":"m 87 521 l 87 651 l 217 651 l 217 521 l 87 521 m 43 87 l 87 347 l 217 347 l 130 87 l 43 87 z "},"…":{"ha":911,"x_min":87,"x_max":825,"o":"m 694 0 l 694 130 l 825 130 l 825 0 l 694 0 m 391 0 l 391 130 l 521 130 l 521 0 l 391 0 m 87 0 l 87 130 l 217 130 l 217 0 l 87 0 z "},"!":{"ha":385,"x_min":127,"x_max":258,"o":"m 160 304 l 127 1042 l 258 1042 l 225 304 l 160 304 m 127 0 l 127 130 l 258 130 l 258 0 l 127 0 z "},"¡":{"ha":385,"x_min":127,"x_max":258,"o":"m 160 543 l 225 543 l 258 -195 l 127 -195 l 160 543 m 127 847 l 258 847 l 258 717 l 127 717 l 127 847 z "},"?":{"ha":1259,"x_min":148,"x_max":1124,"o":"m 464 218 l 464 321 q 472 470 464 414 q 507 556 481 527 q 584 596 533 586 q 721 607 635 607 l 823 607 q 931 621 895 607 q 981 673 968 635 q 994 782 994 711 q 978 878 994 843 q 926 929 963 913 q 827 950 890 946 q 670 955 765 955 q 456 949 535 955 q 339 924 377 943 q 290 866 301 905 q 278 761 278 827 l 148 761 q 178 934 148 872 q 271 1024 208 996 q 433 1057 334 1051 q 670 1063 532 1063 q 859 1056 775 1063 q 1002 1022 943 1048 q 1092 938 1061 995 q 1124 782 1124 881 q 1114 663 1124 715 q 1074 574 1104 610 q 984 518 1044 537 q 823 499 924 499 l 721 499 q 649 494 675 499 q 612 473 623 490 q 597 420 600 456 q 594 321 594 384 l 594 218 l 464 218 m 464 0 l 464 130 l 594 130 l 594 0 l 464 0 z "}}}
